<?xml version="1.0" encoding="UTF-8"?>
<svg id="Layer_1" xmlns="http://www.w3.org/2000/svg" version="1.1" viewBox="0 0 295.6 52.8">
  <!-- Generator: Adobe Illustrator 30.5.1, SVG Export Plug-In . SVG Version: 2.1.4 Build 3)  -->
  <defs>
    <style>
      .st0 {
        fill: #00a34f;
      }
    </style>
  </defs>
  <path class="st0" d="M40.3,51.9h-16.4v-15.5h-5v-12.9h5v-4.5c0-2.6-1.6-4.2-3.8-4.2s-3.7,1.6-3.7,4.2v32.9H0V19.3C0,12.1,5.3,0,20.1,0s20.1,12.1,20.1,19.2v32.6h0Z"/>
  <path class="st0" d="M80.7,37.8c0,8.1-6.7,14.1-19.2,14.1h-15.8v-14.5h10c4.8,0,6.1-.4,6.1-2.4,0-3.4-15.9-9.2-15.9-20S54.4,1.1,63.6,1.1h15v14.2h-10c-3.9,0-4.7.7-4.7,1.9,0,3.1,16.8,8.7,16.8,20.6"/>
  <path class="st0" d="M119.3,51.9h-8.3c-12.3,0-26.6-8.1-26.6-25.4S98.7,1,111,1h8.3v13.5h-6.4c-4.1,0-8.4,1.2-10.5,5.8h16.9v12.2h-16.9c2.1,4.7,6.5,5.8,10.5,5.8h6.4v13.6Z"/>
  <path class="st0" d="M185,51.9h-15.9l-1.8-29.9h-.2l-5.6,22.3c-1.8,7.1-2.8,8.5-6.7,8.5s-4.9-1.4-6.7-8.5l-5.6-22.3h-.2l-1.8,29.9h-15.7l3.5-41.1c.8-8.7,5.8-10.7,10.9-10.7,7.6,0,9.8,2.2,11.3,8.1l4.2,15.8h.1l4.2-15.8c1.7-5.9,3.8-8.1,11.4-8.1s10.1,2,10.9,10.7l3.7,41.1Z"/>
  <path class="st0" d="M233.1,36.7c0,9.9-7.3,15.3-16.4,15.2h-6.7v-13.5c2.5-.2,6.2-.6,6.2-3.6s-3.7-3.3-6.2-3.3v-11.3c2.2,0,3.8-1.2,3.8-3.4s-1.7-2.6-3.2-2.6-2.8,1-2.8,4v33.7h-16.4V17.1c0-10.2,7.8-17.1,20-17.1s18.6,5.6,18.6,15.5-.9,6-3.4,8.6c4.3,2.8,6.5,6.9,6.5,12.6"/>
  <rect class="st0" x="238.7" y="1" width="16.4" height="50.9"/>
  <path class="st0" d="M295.6,37.8c0,8.1-6.7,14.1-19.2,14.1h-15.9v-14.5h10c4.8,0,6.1-.4,6.1-2.4,0-3.4-15.9-9.2-15.9-20s8.5-13.9,17.7-13.9h15v14.2h-10c-3.9,0-4.7.7-4.7,1.9,0,3.1,16.9,8.7,16.9,20.6"/>
</svg>