<?xml version="1.0" encoding="UTF-8"?>
<svg id="Layer_1" xmlns="http://www.w3.org/2000/svg" xmlns:xlink="http://www.w3.org/1999/xlink" version="1.1" viewBox="0 0 186 48">
  <!-- Generator: Adobe Illustrator 30.5.1, SVG Export Plug-In . SVG Version: 2.1.4 Build 3)  -->
  <defs>
    <style>
      .st0, .st1 {
        fill: none;
      }

      .st2 {
        fill: url(#radial-gradient);
      }

      .st3, .st4 {
        fill: #fff;
      }

      .st3, .st1 {
        stroke: #000;
        stroke-miterlimit: 10;
        stroke-width: 6px;
      }

      .st5 {
        fill: url(#linear-gradient);
      }

      .st6 {
        fill: #1b76bc;
      }

      .st7 {
        fill: #174478;
      }

      .st8 {
        clip-path: url(#clippath);
      }
    </style>
    <clipPath id="clippath">
      <rect class="st0" x="0" width="186" height="48"/>
    </clipPath>
    <linearGradient id="linear-gradient" x1="11.2" y1="11.1" x2="28.6" y2="32.1" gradientTransform="translate(0 50) scale(1 -1)" gradientUnits="userSpaceOnUse">
      <stop offset="0" stop-color="#27aae1"/>
      <stop offset="1" stop-color="#1c75bc"/>
    </linearGradient>
    <radialGradient id="radial-gradient" cx="-532.9" cy="375.5" fx="-532.9" fy="375.5" r="1" gradientTransform="translate(5621.944 4046.5738) scale(10.494 -10.7008)" gradientUnits="userSpaceOnUse">
      <stop offset=".6" stop-color="#8dc63f"/>
      <stop offset="1" stop-color="#bfd730"/>
    </radialGradient>
  </defs>
  <g class="st8">
    <g>
      <path class="st4" d="M40.2,40.9c9.2-9.3,9.2-24.5,0-33.8C31-2.3,16.1-2.3,7,7.1c-9.2,9.3-9.2,24.5,0,33.8,9.2,9.3,24,9.3,33.2,0Z"/>
      <path d="M28.4,36.5c6.8-2.7,10.1-10.6,7.4-17.5-2.7-6.9-10.4-10.3-17.2-7.6-6.8,2.7-10.1,10.6-7.4,17.5,2.7,6.9,10.4,10.3,17.2,7.6Z"/>
      <g>
        <path class="st4" d="M23.6,33.1c-4.9,0-8.9-4.1-8.9-9.1s4-9.1,8.9-9.1,4.7,1,6.3,2.7l5.6-5.8c-3.1-3.1-7.3-5-11.9-5-9.3,0-16.9,7.7-16.9,17.2s7.6,17.2,16.9,17.2,8.9-1.9,11.9-5.1l-5.6-5.8c-1.6,1.6-3.8,2.7-6.3,2.7h0Z"/>
        <path class="st1" d="M23.6,33.1c-4.9,0-8.9-4.1-8.9-9.1s4-9.1,8.9-9.1,4.7,1,6.3,2.7l5.6-5.8c-3.1-3.1-7.3-5-11.9-5-9.3,0-16.9,7.7-16.9,17.2s7.6,17.2,16.9,17.2,8.9-1.9,11.9-5.1l-5.6-5.8c-1.6,1.6-3.8,2.7-6.3,2.7h0Z"/>
      </g>
      <path class="st3" d="M38.2,15.5l-6.1,6.2-2.2,2.3,2.2,2.3,6.1,6.2c1.4-2.5,2.2-5.4,2.2-8.5s-.8-6-2.2-8.5h0Z"/>
      <path class="st6" d="M57.9,38c-2.3-1.3-4.1-3.2-5.4-5.7-1.2-2.4-1.9-5.3-1.9-8.5s.6-6,1.9-8.5c1.2-2.4,3-4.3,5.4-5.6,2.3-1.3,5-2,8.2-2s4,.3,5.9.9c1.9.6,3.4,1.5,4.6,2.7l-2.1,4.9c-1.4-1.1-2.7-1.8-4.1-2.3-1.3-.5-2.7-.7-4.1-.7-2.8,0-4.9.9-6.4,2.7-1.5,1.8-2.2,4.4-2.2,7.9s.7,6.1,2.2,7.9c1.5,1.8,3.6,2.7,6.4,2.7s2.8-.2,4.1-.7c1.3-.5,2.7-1.3,4.1-2.3l2.1,4.9c-1.2,1.1-2.7,2-4.6,2.7-1.9.6-3.8.9-5.9.9-3.1,0-5.8-.7-8.2-2h0Z"/>
      <path class="st6" d="M80.2,39.6V8.1h21.3v5.3h-14.7v7.4h13.8v5.4h-13.8v8h14.7v5.3h-21.3Z"/>
      <path class="st6" d="M105.1,39.6V8.1h20.8v5.4h-14.1v7.3h13.3v5.5h-13.3v13.3h-6.7Z"/>
      <path class="st6" d="M133.3,39.1c-2.2-.6-3.9-1.5-5.4-2.7l2.2-4.9c3,2.1,6.3,3.2,10,3.2s3.5-.3,4.5-.9c1.1-.6,1.6-1.5,1.6-2.7s-.5-1.8-1.5-2.4c-1-.6-2.7-1.1-5.1-1.7-2.7-.6-4.9-1.2-6.5-2.1-1.6-.8-2.8-1.8-3.5-3-.7-1.2-1.1-2.6-1.1-4.4s.5-3.6,1.5-5.1c1-1.5,2.5-2.7,4.3-3.5,1.8-.8,4-1.3,6.4-1.3s4.3.3,6.3,1,3.6,1.5,4.9,2.7l-2.2,4.9c-2.7-2.1-5.7-3.2-9-3.2s-3.1.4-4.2,1.1c-1,.7-1.6,1.7-1.6,2.9s.2,1.3.6,1.8c.4.5,1,.9,2,1.3.9.4,2.2.7,3.9,1.1,4,.9,6.8,2,8.6,3.4,1.7,1.4,2.6,3.3,2.6,5.8s-1.1,5.3-3.4,7c-2.3,1.7-5.4,2.6-9.4,2.6s-4.6-.3-6.7-.9h0Z"/>
      <path class="st6" d="M179.3,39.6l-2.9-7h-14.4l-2.9,7h-6.8l14.2-31.5h5.5l14.2,31.5h-6.7,0ZM164.2,27.4h10l-5-11.8-5,11.8h0Z"/>
      <path class="st5" d="M40.2,41c9.2-9.4,9.2-24.6,0-33.9C31-2.3,16.1-2.3,6.9,7c-9.2,9.4-9.2,24.6,0,33.9,9.2,9.4,24.1,9.4,33.3,0Z"/>
      <path class="st4" d="M28.4,36.6c6.8-2.8,10.1-10.6,7.4-17.6-2.7-6.9-10.4-10.3-17.2-7.6-6.8,2.8-10.1,10.6-7.4,17.6,2.7,6.9,10.4,10.3,17.2,7.6Z"/>
      <path class="st7" d="M23.5,33.1c-4.9,0-8.9-4.1-8.9-9.1s4-9.1,8.9-9.1,4.7,1,6.3,2.7l5.7-5.8c-3.1-3.1-7.3-5.1-12-5.1-9.3,0-16.9,7.7-16.9,17.3s7.6,17.3,16.9,17.3,8.9-1.9,12-5.1l-5.7-5.8c-1.6,1.7-3.8,2.7-6.3,2.7Z"/>
      <path class="st2" d="M38.3,15.5l-6.1,6.2-2.2,2.3,2.3,2.3,6.1,6.2c1.4-2.5,2.2-5.4,2.2-8.5s-.8-6-2.2-8.5h0Z"/>
    </g>
  </g>
</svg>