<?xml version="1.0" encoding="UTF-8"?>
<svg id="Layer_1" xmlns="http://www.w3.org/2000/svg" xmlns:xlink="http://www.w3.org/1999/xlink" version="1.1" viewBox="0 0 202 40.7">
  <!-- Generator: Adobe Illustrator 30.5.1, SVG Export Plug-In . SVG Version: 2.1.4 Build 3)  -->
  <defs>
    <style>
      .st0 {
        fill: none;
      }

      .st1 {
        fill: #2149f4;
      }

      .st2 {
        clip-path: url(#clippath);
      }
    </style>
    <clipPath id="clippath">
      <rect class="st0" width="202" height="40.7"/>
    </clipPath>
  </defs>
  <g class="st2">
    <g>
      <path class="st1" d="M8.3,7.8s14.8-6.5,26-1.4c0,0,3.7,4.1.9,14,0,0-3-12.9-26.9-12.6Z"/>
      <path class="st1" d="M9.3,7.3s14.1-5.8,25.3-1c0,0,2,3.8,1.6,7,0,0-10.9-9.3-26.9-6h0Z"/>
      <path class="st1" d="M11.5,9.5s18.9,1.2,23.2,13.2c0,0-2.5,6.4-3.7,7.7,0,0-2.3-13.2-19.5-20.8Z"/>
      <path class="st1" d="M12.6,9.7s17.8,1.3,22.1,13c0,0-1,2.7-1.4,3.5,0,0-5.1-12.4-20.7-16.5Z"/>
      <path class="st1" d="M21.8,19.1s7.2,6,7.9,13.1c0,0-4.3,6.5-6.6,8.5,0,0,5.8-13.6-1.3-21.6Z"/>
      <path class="st1" d="M21.8,19.1s7.2,6,7.9,13.1c0,0-.8,1.4-2.6,3.7,0,0,.9-8.4-5.3-16.8Z"/>
      <path class="st1" d="M17.3,40.6S4.2,28.2,5.1,7.4c0,0,9.4-9.2,29.6-3,0,0-15-9.8-34.6,0,0,0-2.1,20.8,17.3,36.3Z"/>
      <path class="st1" d="M17.3,40.6S4.2,28.2,5.1,7.4c0,0,9.4-9.2,29.6-3,0,0-14.4-8.1-32.3,2,0,0-.4,20.9,14.9,34.3Z"/>
      <path class="st1" d="M70.2,33.7c-1.2.6-3.8,1.2-7.3,1.2-9.8,0-14.8-6.1-14.8-14.2s6.9-15.1,15.5-15.1,5.8.7,7,1.3l-1.3,5.1c-1.3-.5-3.1-1.1-5.4-1.1-5.1,0-9,3.1-9,9.4s3.4,9.3,9.1,9.3,4.1-.4,5.3-.9l1,5h0Z"/>
      <path class="st1" d="M91.2,22.5h-10.4v6.7h11.7v5.3h-18.1V6.2h17.5v5.3h-11.1v5.9h10.4v5.2h0Z"/>
      <path class="st1" d="M101.7,34.5l-6.7-28.3h6.9l2.1,11.7c.6,3.4,1.2,7,1.7,9.9h0c.5-3.1,1.1-6.5,1.9-10l2.4-11.6h6.8l2.3,11.9c.6,3.3,1.1,6.4,1.5,9.5h0c.4-3.2,1.1-6.5,1.6-9.8l2.3-11.6h6.5l-7.3,28.3h-6.9l-2.4-12.2c-.5-2.9-1-5.5-1.3-8.7h0c-.5,3.2-1,5.9-1.6,8.7l-2.7,12.2h-7Z"/>
      <path class="st1" d="M140.8,11.6h-7.6v-5.4h21.8v5.4h-7.7v23h-6.4V11.6h0Z"/>
      <path class="st1" d="M175.3,22.5h-10.4v6.7h11.7v5.3h-18.1V6.2h17.5v5.3h-11.1v5.9h10.4v5.2h0Z"/>
      <path class="st1" d="M201.7,33.7c-1.2.6-3.8,1.2-7.3,1.2-9.8,0-14.8-6.1-14.8-14.2s6.9-15.1,15.5-15.1,5.8.7,7,1.3l-1.3,5.1c-1.3-.5-3.1-1.1-5.4-1.1-5.1,0-9,3.1-9,9.4s3.4,9.3,9.1,9.3,4.1-.4,5.3-.9l1,5h0Z"/>
    </g>
  </g>
</svg>