<?xml version="1.0" encoding="UTF-8"?>
<svg id="Layer_1" xmlns="http://www.w3.org/2000/svg" version="1.1" viewBox="0 0 195 47.2">
  <!-- Generator: Adobe Illustrator 30.5.1, SVG Export Plug-In . SVG Version: 2.1.4 Build 3)  -->
  <defs>
    <style>
      .st0 {
        fill: #00155c;
      }

      .st1 {
        fill: #43ab6c;
      }

      .st2 {
        fill: #20a19a;
      }

      .st3 {
        fill: #2d73b4;
      }

      .st4 {
        fill: #2d2d2d;
      }

      .st5 {
        fill: #002a84;
      }
    </style>
  </defs>
  <path class="st0" d="M0,0"/>
  <polygon class="st2" points="35.8 26.2 46.3 34.4 46.3 47.2 35.8 38.7 25.3 47.2 25.3 34.5 35.8 26.2"/>
  <polygon class="st1" points="25.3 11.4 33.5 .9 46.3 .9 37.8 11.4 46.3 21.9 33.6 21.9 25.3 11.4"/>
  <polygon class="st5" points="10.6 21.9 .1 13.7 .1 .9 10.6 9.4 21.1 .9 21.1 13.6 10.6 21.9"/>
  <polygon class="st3" points="21.1 36.7 12.9 47.2 .1 47.2 8.6 36.7 .1 26.2 12.8 26.2 21.1 36.7"/>
  <g>
    <path class="st4" d="M79.3,25.9l.8,1.4c-2,1.3-3.9,2.2-5.8,2.8-1.8.6-3.7.9-5.7.9s-4.8-.6-6.8-1.7-3.6-2.8-4.6-4.8-1.6-4.4-1.6-6.9c0-4.1,1.3-7.5,4-10.2,2.7-2.6,6.3-4,10.7-4s5.8.6,9.1,1.7c0,1.1,0,1.9,0,2.5,0,1.6,0,3.3.3,5h-1.6c-.5-2.2-.9-3.7-1.5-4.5-.5-.8-1.4-1.5-2.5-2-1.2-.5-2.6-.7-4.3-.7-3.6,0-6.3,1.3-8.2,3.8-1.4,2-2.1,4.5-2.1,7.5s1,6.4,3,8.5c2,2.1,4.6,3.1,7.8,3.1s2.8-.2,4.1-.5c1.4-.4,3-1,4.8-2Z"/>
    <path class="st4" d="M96.4,4v1.1c-.4.1-.8.2-1,.2-1.7.3-2.6.6-2.9.8-.3.3-.4.8-.4,1.7v8.1c0,0,0,10.9,0,10.9,0,.9.1,1.4.4,1.7.2.2,1.1.4,2.6.6.3,0,.7.1,1.2.2v1.1c-2-.1-3.9-.2-5.8-.2s-4,0-6.3.2v-1.1c.4,0,.6-.2.8-.2,1.8-.3,2.8-.5,3-.8s.4-.9.4-1.8v-.9s0-6.9,0-6.9c0-7,0-10.9,0-11.7,0-.4-.2-.7-.4-.9s-1.2-.5-2.8-.8c-.2,0-.6-.1-1-.2v-1.1c2.7.1,4.8.2,6.3.2,1.7,0,3.6,0,5.8-.2Z"/>
    <path class="st4" d="M99.4,5.1v-1.1c2.1.1,3.7.2,4.7.2s2.6,0,4-.2c.5,1.3.9,2.3,1.2,3,.4.9,2,4.4,4.9,10.5,1.2,2.6,2.4,5.1,3.7,7.5l8-16.8c.5-1,1.1-2.4,1.7-4.2,1.7.1,2.9.2,3.8.2s2.2,0,4.2-.2v1.1c-.4.1-.6.2-.8.2-1.7.4-2.7.6-2.9.8-.3.2-.5.9-.5,1.9v6.2c0,7.4,0,12,0,13.5,0,.3.1.6.3.8s1.2.4,3.2.8c.2,0,.4,0,.7.2v1.1c-2.2-.1-4.2-.2-5.9-.2s-3.8,0-6.2.2v-1.1c.5-.1.8-.2,1.1-.3,1.5-.3,2.4-.5,2.6-.6.2-.1.4-.3.4-.5.1-.4.2-1.4.2-3V8.7c-1.1,2.2-3.7,7.6-7.7,16.2-1.1,2.4-1.9,4.1-2.4,5.4h-1.1c-2.8-6.2-6.2-13.4-10.2-21.6l.2,17.4c0,1.4.1,2.2.3,2.4.2.2,1.2.4,2.8.7.2,0,.5,0,.9.2v1.1c-2.2-.1-3.9-.2-5.2-.2s-3.1,0-5.3.2v-1.1c.4,0,.6-.2.8-.2,1.6-.3,2.6-.6,2.8-.8.3-.3.4-1.2.5-2.6v-4.2c.1-3.8.2-7.5.2-11.1v-2.3c0-.9,0-1.5-.2-1.7s-.3-.4-.5-.5c-.5-.2-1.5-.4-3.2-.6-.3,0-.6-.1-1.1-.2Z"/>
    <path class="st4" d="M146.7,15.6h4.5c1.7,0,2.8,0,3.1-.1s.6-.3.8-.6c.2-.3.4-1.1.7-2.5,0-.1,0-.4.2-.6h1.2c-.1,2-.2,3.6-.2,4.7s0,2.7.2,4.7h-1.2c-.4-1.8-.6-2.8-.7-3-.1-.3-.3-.5-.6-.6s-1.2-.2-2.8-.2h-5.1v11h8.6c1.1,0,1.7,0,2-.2.5-.2.9-.4,1.2-.8s1-1.5,2-3.2c.1-.2.2-.4.4-.8h1.3c-.1.4-.9,2.7-2.3,7-4.5-.1-8.7-.2-12.4-.2s-5.5,0-8.7.2v-1.1l3-.7c.5-.1.8-.3.9-.4.2-.2.3-.7.3-1.5v-4.7c0-.9.1-2.5.1-5,0-3.6,0-6.2,0-7.9s0-2.6-.2-2.9c0-.1-.2-.3-.4-.4-.2,0-.7-.2-1.7-.5l-2-.4v-1.1c2.3.1,5.1.2,8.4.2s6,0,12.7-.2c0,2.1.2,4.3.4,6.4h-1.3c-.5-1.7-.9-2.8-1.2-3.4-.2-.4-.5-.6-.8-.8-.4-.2-1.3-.2-2.7-.2h-7.5v6c-.1,0-.2,3.7-.2,3.7Z"/>
    <path class="st4" d="M166.5,5.1v-1.1c2.5.1,5.1.2,8,.2h8.3c2.8-.1,5.1.3,6.8,1.1,1.7.8,3,2.1,3.9,3.9s1.4,3.9,1.4,6.2c0,4.4-1.5,7.9-4.4,10.8s-6.9,4.3-11.9,4.3-1.4,0-3.4,0c-2,0-3.2,0-3.5,0-1.2,0-2.9,0-5.2.2v-1.1c2-.4,3.2-.6,3.4-.7s.4-.2.5-.3c.1,0,.2-.2.2-.4,0-.3.1-1.3.1-3.2,0-4,.1-7,.1-8.8V7.8c-.1,0,0-.6,0-.6,0-.6-.2-1-.5-1.2-.2-.2-1.4-.5-3.7-1ZM174.5,28.2c2,.2,3.7.4,5.1.4,2.1,0,3.9-.3,5.3-1,2-1,3.5-2.5,4.5-4.4,1-1.9,1.5-4.3,1.5-7.1s-.2-2.8-.5-4-.8-2.2-1.4-2.9c-.8-1.1-1.9-1.9-3.3-2.4-1.3-.6-3.3-.9-5.8-.9s-3.3,0-5.4.3c0,3.3-.1,7-.1,11.1,0,4.4,0,8,.1,11Z"/>
  </g>
  <g>
    <path class="st4" d="M65.6,41.6l.2.3c-.5.3-1,.5-1.4.7-.4.2-.9.2-1.4.2s-1.2-.1-1.7-.4-.9-.7-1.2-1.2c-.3-.5-.4-1.1-.4-1.7,0-1,.3-1.9,1-2.5.7-.7,1.6-1,2.7-1s1.4.1,2.3.4c0,.3,0,.5,0,.6,0,.4,0,.8,0,1.2h-.4c-.1-.5-.2-.9-.4-1.1-.1-.2-.3-.4-.6-.5s-.7-.2-1.1-.2c-.9,0-1.6.3-2,1-.3.5-.5,1.1-.5,1.9s.2,1.6.7,2.1c.5.5,1.1.8,1.9.8s.7,0,1-.1c.3,0,.7-.2,1.2-.5Z"/>
    <path class="st4" d="M70.4,41.6l.2.3-.9.7c-.1,0-.3.2-.4.2-.2,0-.4,0-.6,0-.5,0-.9-.2-1.3-.6-.4-.4-.5-1-.5-1.6s.2-1.3.6-1.8c.4-.5.9-.7,1.6-.7s.8.1,1.1.4.4.7.4,1.2c-.1,0-.2.2-.3.3h-.4c-.8,0-1.5,0-2.1,0,0,.7.1,1.2.3,1.6.2.4.6.5.9.5s.4,0,.6-.1c.2,0,.5-.2.8-.4ZM69.8,39.6c0-.3,0-.5-.2-.7-.2-.2-.4-.3-.7-.3s-.5,0-.7.3-.3.5-.4.9h.3c.5,0,1.1,0,1.8,0Z"/>
    <path class="st4" d="M71.5,39v-.3c.6-.1,1.1-.3,1.5-.6h.1c0,.3,0,.6,0,.9l.6-.6c0,0,.2-.2.3-.2.2,0,.4,0,.6,0,.4,0,.8.2,1,.4.2.2.2.5.2,1v1.1c0,.8,0,1.2,0,1.3,0,0,0,.2,0,.2,0,0,.2,0,.4.1,0,0,.1,0,.2,0v.3c-.4,0-.7,0-1,0s-.7,0-1.3,0v-.3c.4,0,.6-.2.6-.2,0,0,0,0,0-.2,0-.3,0-.8,0-1.4s0-1.1,0-1.2c0-.2-.1-.4-.3-.5s-.3-.2-.5-.2-.4,0-.6.2-.3.3-.4.5c0,.2-.1.5-.1.9,0,1.1,0,1.7,0,1.8s.2.2.5.3c0,0,0,0,.2,0v.3c-.4,0-.8,0-1,0s-.7,0-1.2,0v-.3c.4,0,.6-.2.6-.2,0,0,0,0,0-.2,0-.3,0-.7,0-1.2,0-1,0-1.6,0-1.7,0-.1-.1-.2-.3-.2s-.2,0-.3,0c0,0-.1,0-.2,0Z"/>
    <path class="st4" d="M78.4,37.2h.3v1.2c-.1,0,1.2,0,1.2,0h0c0,.2-.2.3-.2.5-.4,0-.7,0-1.1,0v2.4s0,0,0,0c0,.4,0,.6.1.8s.2.2.4.2.4,0,.7-.2v.3c-.2.2-.5.3-.6.4-.2,0-.3,0-.5,0-.2,0-.4,0-.5-.2s-.2-.2-.3-.4c0,0,0-.4,0-1s0-1.4,0-2.4c-.2,0-.4,0-.7,0v-.2c.3-.1.5-.3.7-.5.2-.2.4-.5.6-.9Z"/>
    <path class="st4" d="M80.5,39v-.3c.6-.1,1.1-.3,1.5-.6h.1c0,.4,0,.7,0,1.1.4-.5.6-.7.8-.8.2,0,.3-.2.5-.2s.3,0,.4,0c0,.3-.1.6-.2,1h-.2c0-.2,0-.2-.1-.3,0,0-.1,0-.2,0-.1,0-.3,0-.4.2-.2.2-.4.4-.4.6s-.1.5-.1.9c0,.7,0,1.2,0,1.4,0,0,0,.2.1.2,0,0,.3.1.7.2v.3c-.4,0-.7,0-1.1,0s-.7,0-1.3,0v-.3c.4,0,.7-.2.7-.2,0,0,0-.2,0-.5v-1c0-1,0-1.5,0-1.6,0-.1-.1-.2-.3-.2s-.2,0-.4,0c0,0,0,0,0,0Z"/>
    <path class="st4" d="M84.6,40.6c0-.7.2-1.3.6-1.8.4-.4,1-.7,1.7-.7s1.2.2,1.6.6c.4.4.6.9.6,1.6s-.2,1.4-.6,1.8-1,.7-1.7.7-1.2-.2-1.6-.6c-.4-.4-.6-1-.6-1.7ZM85.4,40.1c0,.5,0,.9,0,1.1,0,.4.3.7.5.9.2.2.5.3.8.3s.7-.1.9-.4.4-.8.4-1.4-.1-1.2-.4-1.6c-.3-.3-.6-.5-1-.5s-.7.1-.9.4c-.2.3-.4.7-.4,1.2Z"/>
    <path class="st4" d="M95.9,36.1v.3c-.1,0-.2,0-.2,0-.4,0-.7.1-.7.2s0,.2,0,.4v2s0,2.7,0,2.7c0,.2,0,.3,0,.4s.3.1.7.2c0,0,.2,0,.3,0v.3c-.5,0-1,0-1.4,0s-1,0-1.6,0v-.3c0,0,.2,0,.2,0,.4,0,.7-.1.8-.2s0-.2,0-.5v-.2s0-1.7,0-1.7c0-1.7,0-2.7,0-2.9,0,0,0-.2,0-.2s-.3-.1-.7-.2c0,0-.1,0-.2,0v-.3c.7,0,1.2,0,1.6,0s.9,0,1.4,0Z"/>
    <path class="st4" d="M96.8,39v-.3c.6-.1,1.1-.3,1.5-.6h.1c0,.3,0,.6,0,.9l.6-.6c0,0,.2-.2.3-.2.2,0,.4,0,.6,0,.4,0,.8.2,1,.4.2.2.2.5.2,1v1.1c0,.8,0,1.2,0,1.3,0,0,0,.2,0,.2,0,0,.2,0,.4.1,0,0,.1,0,.2,0v.3c-.4,0-.7,0-1,0s-.7,0-1.3,0v-.3c.4,0,.6-.2.6-.2,0,0,0,0,0-.2,0-.3,0-.8,0-1.4s0-1.1,0-1.2c0-.2-.1-.4-.3-.5s-.3-.2-.5-.2-.4,0-.6.2-.3.3-.4.5c0,.2-.1.5-.1.9,0,1.1,0,1.7,0,1.8s.2.2.5.3c0,0,0,0,.2,0v.3c-.4,0-.8,0-1,0s-.7,0-1.2,0v-.3c.4,0,.6-.2.6-.2,0,0,0,0,0-.2,0-.3,0-.7,0-1.2,0-1,0-1.6,0-1.7,0-.1-.1-.2-.3-.2s-.2,0-.3,0c0,0-.1,0-.2,0Z"/>
    <path class="st4" d="M103.7,37.2h.3v1.2c-.1,0,1.2,0,1.2,0h0c0,.2-.2.3-.2.5-.4,0-.7,0-1.1,0v2.4s0,0,0,0c0,.4,0,.6.1.8s.2.2.4.2.4,0,.7-.2v.3c-.2.2-.5.3-.6.4-.2,0-.3,0-.5,0-.2,0-.4,0-.5-.2s-.2-.2-.3-.4c0,0,0-.4,0-1s0-1.4,0-2.4c-.2,0-.4,0-.7,0v-.2c.3-.1.5-.3.7-.5.2-.2.4-.5.6-.9Z"/>
    <path class="st4" d="M109.6,41.6l.2.3-.9.7c-.1,0-.3.2-.4.2-.2,0-.4,0-.6,0-.5,0-.9-.2-1.3-.6-.4-.4-.5-1-.5-1.6s.2-1.3.6-1.8c.4-.5.9-.7,1.6-.7s.8.1,1.1.4.4.7.4,1.2c-.1,0-.2.2-.3.3h-.4c-.8,0-1.5,0-2.1,0,0,.7.1,1.2.3,1.6.2.4.6.5.9.5s.4,0,.6-.1c.2,0,.5-.2.8-.4ZM108.9,39.6c0-.3,0-.5-.2-.7-.2-.2-.4-.3-.7-.3s-.5,0-.7.3-.3.5-.4.9h.3c.5,0,1.1,0,1.8,0Z"/>
    <path class="st4" d="M115.1,38.3h0c0,.2-.1.4-.2.5-.2,0-.5,0-.7,0,.2.3.3.6.3.9,0,.4-.2.8-.5,1.1s-.8.5-1.4.5-.3,0-.5,0c-.2.2-.3.4-.3.5s0,.1.1.2c.1,0,.5.1,1,.1h.8c.5,0,.8,0,1,.2s.3.4.3.7-.2.8-.6,1.1c-.6.4-1.2.6-2.1.6s-1-.1-1.3-.3-.4-.5-.4-.7,0-.2,0-.3c0,0,0,0,.2-.2l.7-.5c-.2,0-.4-.1-.5-.2-.1-.1-.2-.2-.2-.4s0-.2,0-.2c.2-.1.4-.3.8-.7-.3-.1-.5-.3-.6-.5s-.2-.5-.2-.8c0-.5.2-.9.5-1.2.3-.3.8-.5,1.3-.5s.3,0,.4,0c.2,0,.3,0,.5.1.2,0,.3,0,.4,0,.4,0,.7,0,.9,0ZM112.1,42.6c-.2.2-.4.4-.5.5,0,.1-.1.3-.1.4s0,.3.2.4c.2.2.6.2,1,.2s.9,0,1.2-.3c.3-.2.5-.4.5-.7s0-.3-.2-.4c-.1,0-.4-.2-.7-.2h-1.3ZM111.9,39.6c0,.4,0,.8.3,1s.4.3.7.3.4,0,.6-.3c.2-.2.2-.5.2-.8s0-.8-.3-1c-.2-.2-.4-.3-.7-.3s-.4,0-.6.3c-.2.2-.2.5-.2.8Z"/>
    <path class="st4" d="M115.9,39v-.3c.6-.1,1.1-.3,1.5-.6h.1c0,.4,0,.7,0,1.1.4-.5.6-.7.8-.8.2,0,.3-.2.5-.2s.3,0,.4,0c0,.3-.1.6-.2,1h-.2c0-.2,0-.2-.1-.3,0,0-.1,0-.2,0-.1,0-.3,0-.4.2-.2.2-.4.4-.4.6s-.1.5-.1.9c0,.7,0,1.2,0,1.4,0,0,0,.2.1.2,0,0,.3.1.7.2v.3c-.4,0-.7,0-1.1,0s-.7,0-1.3,0v-.3c.4,0,.7-.2.7-.2,0,0,0-.2,0-.5v-1c0-1,0-1.5,0-1.6,0-.1-.1-.2-.3-.2s-.2,0-.4,0c0,0,0,0,0,0Z"/>
    <path class="st4" d="M120.5,39.6h-.3c0-.3,0-.7.1-1,.6-.3,1.1-.4,1.6-.4s.4,0,.6,0,.3.1.4.2.2.2.2.4,0,.4,0,.7v1.9c0,.3,0,.4,0,.5,0,0,.1.1.2.1s.3,0,.5-.2v.2c-.3.4-.5.6-.6.6,0,0-.2,0-.3,0-.2,0-.3,0-.5-.2-.1,0-.2-.3-.2-.5-.4.3-.6.5-.8.5-.2,0-.4.1-.6.1-.3,0-.6,0-.8-.3-.2-.2-.3-.5-.3-.8s0-.4.1-.5.2-.3.3-.4c.1,0,.3-.2.5-.3.6-.3,1.1-.5,1.6-.7,0-.4,0-.7-.2-.9-.1-.1-.3-.2-.6-.2s-.5,0-.7.2c-.2.2-.3.4-.5.7ZM122.4,40.1c-.8.4-1.3.6-1.5.8-.2.2-.2.4-.2.6s0,.4.2.5c.1.1.3.2.4.2s.4,0,.6-.2c.2-.1.3-.2.4-.4,0-.1,0-.4,0-.8,0,0,0-.8,0-.8Z"/>
    <path class="st4" d="M124.8,36.8v-.3c.6-.2,1-.4,1.5-.6h.1c0,.7-.1,1.7-.1,3.3s0,2.5,0,2.6c0,.2,0,.3.1.3,0,0,.3.1.7.2v.3c-.5,0-.9,0-1.1,0s-.7,0-1.1,0v-.3c.4-.1.6-.2.7-.2,0,0,0-.1,0-.3,0-.2,0-1,0-2.5v-2.2s0,0,0,0c0-.2,0-.3,0-.3,0,0-.1,0-.2,0,0,0-.2,0-.5,0Z"/>
    <path class="st4" d="M133.4,36.8v-.3c.3,0,.6-.2.7-.2s.4-.2.8-.4h.1c0,.8-.1,2.1-.1,4.1s0,1.7,0,1.8.1.2.3.2.2,0,.5,0v.2c-.6.2-1.1.4-1.5.6h-.1c0-.3,0-.5,0-.8-.4.3-.7.6-.9.7-.2,0-.4.1-.6.1-.5,0-.9-.2-1.2-.5s-.5-.8-.5-1.5,0-.8.2-1.1c.1-.2.3-.5.5-.7.2-.2.5-.4.7-.5.3-.1.5-.2.8-.2s.3,0,.4,0c.1,0,.3,0,.5.1,0-.2,0-.2,0-.3,0-.7,0-1.1,0-1.2,0-.1-.1-.2-.3-.2s-.1,0-.3,0c0,0,0,0-.2,0ZM134.1,40.4c0-.6,0-1,0-1,0-.2-.2-.3-.4-.5s-.4-.2-.7-.2-.6.2-.9.4c-.2.3-.4.7-.4,1.3s.1,1,.4,1.3.6.5.9.5.4,0,.6-.2.3-.3.4-.5c0-.2,0-.5,0-1.1Z"/>
    <path class="st4" d="M140.1,41.6l.2.3-.9.7c-.1,0-.3.2-.4.2-.2,0-.4,0-.6,0-.5,0-.9-.2-1.3-.6-.4-.4-.5-1-.5-1.6s.2-1.3.6-1.8c.4-.5.9-.7,1.6-.7s.9.1,1.1.4.4.7.4,1.2c-.1,0-.2.2-.4.3h-.4c-.8,0-1.5,0-2.1,0,0,.7.1,1.2.4,1.6.2.4.6.5.9.5s.4,0,.6-.1c.2,0,.5-.2.8-.4ZM139.4,39.6c0-.3,0-.5-.2-.7-.2-.2-.4-.3-.7-.3s-.5,0-.7.3-.3.5-.4.9h.3c.5,0,1.1,0,1.8,0Z"/>
    <path class="st4" d="M144,36.4v-.3c.5,0,.9,0,1.2,0s.6,0,1,0c.1.3.2.6.3.7.1.2.5,1.1,1.2,2.6.3.6.6,1.3.9,1.9l2-4.2c.1-.3.3-.6.4-1,.4,0,.7,0,.9,0s.6,0,1,0v.3c0,0-.2,0-.2,0-.4,0-.7.2-.7.2,0,0-.1.2-.1.5h0c0,0,0,1.5,0,1.5,0,1.8,0,3,0,3.3,0,0,0,.1,0,.2,0,0,.3.1.8.2,0,0,.1,0,.2,0v.3c-.6,0-1,0-1.5,0s-.9,0-1.5,0v-.3c.1,0,.2,0,.3,0,.4,0,.6-.1.6-.2,0,0,0,0,.1-.1,0,0,0-.3,0-.8v-4c-.3.5-.9,1.9-1.9,4-.3.6-.5,1-.6,1.3h-.3c-.7-1.5-1.5-3.3-2.5-5.3v4.3c0,.3,0,.5.1.6,0,0,.3.1.7.2,0,0,.1,0,.2,0v.3c-.5,0-1,0-1.3,0s-.8,0-1.3,0v-.3c0,0,.2,0,.2,0,.4,0,.6-.2.7-.2,0,0,.1-.3.1-.6v-1c0-1,0-1.9,0-2.8v-.6c0-.2,0-.4,0-.4,0,0,0,0-.1-.1-.1,0-.4,0-.8-.2,0,0-.1,0-.2,0Z"/>
    <path class="st4" d="M157.5,41.6l.2.3-.9.7c-.1,0-.3.2-.4.2-.2,0-.4,0-.6,0-.5,0-.9-.2-1.3-.6-.4-.4-.5-1-.5-1.6s.2-1.3.6-1.8c.4-.5.9-.7,1.6-.7s.9.1,1.1.4.4.7.4,1.2c-.1,0-.2.2-.4.3h-.4c-.8,0-1.5,0-2.1,0,0,.7.1,1.2.4,1.6.2.4.6.5.9.5s.4,0,.6-.1c.2,0,.5-.2.8-.4ZM156.8,39.6c0-.3,0-.5-.2-.7-.2-.2-.4-.3-.7-.3s-.5,0-.7.3-.3.5-.4.9h.3c.5,0,1.1,0,1.8,0Z"/>
    <path class="st4" d="M161.1,36.8v-.3c.3,0,.6-.2.7-.2s.4-.2.8-.4h.1c0,.8-.1,2.1-.1,4.1s0,1.7,0,1.8.1.2.3.2.2,0,.5,0v.2c-.6.2-1.1.4-1.5.6h-.1c0-.3,0-.5,0-.8-.4.3-.7.6-.9.7-.2,0-.4.1-.6.1-.5,0-.9-.2-1.2-.5s-.5-.8-.5-1.5,0-.8.2-1.1c.1-.2.3-.5.5-.7.2-.2.5-.4.7-.5.3-.1.5-.2.8-.2s.3,0,.4,0c.1,0,.3,0,.5.1,0-.2,0-.2,0-.3,0-.7,0-1.1,0-1.2,0-.1-.1-.2-.3-.2s-.1,0-.3,0c0,0,0,0-.2,0ZM161.9,40.4c0-.6,0-1,0-1,0-.2-.2-.3-.4-.5s-.4-.2-.7-.2-.6.2-.9.4c-.2.3-.4.7-.4,1.3s.1,1,.4,1.3.6.5.9.5.4,0,.6-.2.3-.3.4-.5c0-.2,0-.5,0-1.1Z"/>
    <path class="st4" d="M164.2,39v-.3c.5-.1,1-.3,1.5-.6h.1c0,.8,0,1.7,0,2.9s0,.9,0,1c0,0,0,.2.1.2,0,0,.2,0,.5.2,0,0,0,0,.1,0v.3c-.4,0-.7,0-1,0s-.6,0-1.3,0v-.3c.4,0,.6-.2.7-.3,0,0,0-.5,0-1.3v-1.2c0-.3,0-.5,0-.6s-.1-.1-.2-.1-.2,0-.5,0ZM165.4,35.9c.1,0,.2,0,.3.1s.1.2.1.3,0,.2-.1.3c0,0-.2.1-.3.1s-.2,0-.3-.1c0,0-.1-.2-.1-.3s0-.2.1-.3.2-.1.3-.1Z"/>
    <path class="st4" d="M168.1,39.6h-.3c0-.3.1-.7.1-1,.6-.3,1.1-.4,1.6-.4s.4,0,.6,0c.2,0,.3.1.4.2.1.1.2.2.2.4s0,.4,0,.7v1.9c0,.3,0,.4,0,.5,0,0,.1.1.2.1s.3,0,.5-.2v.2c-.3.4-.5.6-.6.6,0,0-.2,0-.3,0-.2,0-.4,0-.5-.2-.1,0-.2-.3-.2-.5-.4.3-.6.5-.8.5-.2,0-.4.1-.6.1-.3,0-.6,0-.8-.3-.2-.2-.3-.5-.3-.8s0-.4.1-.5.2-.3.3-.4c.1,0,.3-.2.5-.3.6-.3,1.1-.5,1.6-.7,0-.4,0-.7-.2-.9s-.3-.2-.6-.2-.5,0-.6.2c-.2.2-.3.4-.5.7ZM170,40.1c-.8.4-1.3.6-1.5.8-.2.2-.2.4-.2.6s0,.4.2.5c.1.1.3.2.4.2s.4,0,.6-.2c.2-.1.3-.2.4-.4s.1-.4.1-.8v-.8h0Z"/>
    <path class="st4" d="M176,39.7h-.3c0-.4-.1-.7-.3-.9-.2-.2-.4-.3-.8-.3s-.4,0-.7.2c-.2.1-.4.3-.5.6-.1.3-.2.6-.2,1,0,.6.1,1,.4,1.3s.6.5,1,.5.9-.2,1.4-.5l.2.3c-.5.4-.9.6-1.2.8-.1,0-.3,0-.6,0-.5,0-1-.2-1.3-.5-.4-.4-.7-1-.7-1.7s.2-1.3.7-1.8,1-.7,1.7-.7.9.1,1.3.4c0,0,0,.2,0,.4,0,.2-.1.5-.2.8Z"/>
    <path class="st4" d="M177.2,39v-.3c.5-.1,1-.3,1.5-.6h.1c0,.8,0,1.7,0,2.9s0,.9,0,1c0,0,0,.2.1.2,0,0,.2,0,.5.2,0,0,0,0,.1,0v.3c-.4,0-.7,0-1,0s-.6,0-1.3,0v-.3c.4,0,.6-.2.7-.3,0,0,0-.5,0-1.3v-1.2c0-.3,0-.5,0-.6s-.1-.1-.2-.1-.2,0-.5,0ZM178.4,35.9c.1,0,.2,0,.3.1s.1.2.1.3,0,.2-.1.3c0,0-.2.1-.3.1s-.2,0-.3-.1c0,0-.1-.2-.1-.3s0-.2.1-.3.2-.1.3-.1Z"/>
    <path class="st4" d="M180.4,40.6c0-.7.2-1.3.6-1.8.4-.4,1-.7,1.7-.7s1.2.2,1.6.6c.4.4.6.9.6,1.6s-.2,1.4-.6,1.8-1,.7-1.7.7-1.2-.2-1.6-.6c-.4-.4-.6-1-.6-1.7ZM181.3,40.1c0,.5,0,.9.1,1.1.1.4.3.7.5.9.2.2.5.3.8.3s.7-.1.9-.4c.2-.3.4-.8.4-1.4s-.1-1.2-.4-1.6c-.3-.3-.6-.5-1-.5s-.7.1-.9.4c-.2.3-.4.7-.4,1.2ZM182.4,37.6h-.3c.2-.6.4-1.1.6-1.6h.5c0,0,.2,0,.4,0h0c-.4.6-.9,1.1-1.3,1.6Z"/>
    <path class="st4" d="M185.8,39v-.3c.6-.1,1.1-.3,1.5-.6h.1c0,.3,0,.6,0,.9l.6-.6c.1,0,.2-.2.4-.2.2,0,.4,0,.6,0,.4,0,.8.2,1,.4.1.2.2.5.2,1v1.1c0,.8,0,1.2,0,1.3,0,0,0,.2,0,.2,0,0,.2,0,.4.1,0,0,.1,0,.2,0v.3c-.4,0-.7,0-1,0s-.7,0-1.3,0v-.3c.4,0,.6-.2.6-.2,0,0,0,0,0-.2,0-.3,0-.8,0-1.4s0-1.1,0-1.2c0-.2-.1-.4-.3-.5s-.3-.2-.5-.2-.4,0-.6.2c-.2.1-.3.3-.4.5,0,.2-.1.5-.1.9,0,1.1,0,1.7,0,1.8s.2.2.5.3c0,0,.1,0,.2,0v.3c-.4,0-.8,0-1,0s-.7,0-1.2,0v-.3c.4,0,.6-.2.6-.2,0,0,0,0,0-.2,0-.3,0-.7,0-1.2,0-1,0-1.6,0-1.7,0-.1-.1-.2-.3-.2s-.2,0-.3,0c0,0-.1,0-.2,0Z"/>
  </g>
</svg>