<?xml version="1.0" encoding="UTF-8"?>
<svg id="Layer_2" data-name="Layer 2" xmlns="http://www.w3.org/2000/svg" viewBox="0 0 414.13 111.83">
  <defs>
    <style>
      .cls-1, .cls-2 {
        stroke-width: 0px;
      }

      .cls-2 {
        fill: none;
      }
    </style>
  </defs>
  <g id="Layer_2-2" data-name="Layer 2">
    <g>
      <rect class="cls-2" width="414.13" height="111.83"/>
      <g>
        <path class="cls-1" d="M8.66,10.24h42.46l3.36,14.13h-.18c-.91-2.68-1.83-4.82-2.77-6.42-.94-1.6-2.01-2.85-3.22-3.76-1.21-.91-2.6-1.51-4.17-1.81-1.57-.3-3.51-.45-5.81-.45h-8.62c-2.36,0-4.04.63-5.04,1.88-1,1.25-1.5,3.39-1.5,6.42v34.47h11.79c2.3,0,3.93-.52,4.9-1.56.97-1.04,1.6-3.02,1.9-5.96h.18v16.85h-.18c-.3-2.94-.94-4.92-1.9-5.96-.97-1.04-2.6-1.56-4.9-1.56h-11.79v34.47c0,3.03.53,5.16,1.59,6.42,1.06,1.25,2.71,1.88,4.94,1.88h11.98c1.93,0,3.61-.21,5.03-.65,1.42-.43,2.69-1.21,3.81-2.33,1.12-1.12,2.15-2.66,3.08-4.6.94-1.94,1.89-4.43,2.86-7.45h.18l-3.72,16.72H8.66v-1.68c2.12,0,3.75-.6,4.9-1.81,1.15-1.21,1.72-3.37,1.72-6.48V20.22c0-3.02-.53-5.16-1.59-6.42-1.06-1.25-2.74-1.88-5.04-1.88v-1.69Z"/>
        <path class="cls-1" d="M101.92,31.89h-.54c-1.09-7.52-3.43-13.15-7.03-16.91-3.6-3.76-8.06-5.64-13.38-5.64-2.24,0-4.28.45-6.12,1.36-1.85.91-3.43,2.14-4.76,3.69-1.33,1.56-2.36,3.35-3.08,5.38-.73,2.03-1.09,4.17-1.09,6.42,0,3.8.97,7.19,2.9,10.17,1.94,2.98,4.37,5.77,7.3,8.36,2.93,2.59,6.11,5.14,9.53,7.65,3.42,2.51,6.59,5.16,9.53,7.97,2.93,2.81,5.37,5.94,7.3,9.4,1.93,3.46,2.9,7.43,2.9,11.92,0,3.11-.54,5.98-1.63,8.62-1.09,2.64-2.59,4.9-4.49,6.8-1.91,1.9-4.19,3.39-6.85,4.47-2.66,1.08-5.53,1.62-8.62,1.62-3.57,0-6.56-.63-8.98-1.88-2.42-1.25-4.48-2.61-6.17-4.08-1.69-1.47-3.1-2.83-4.22-4.08-1.12-1.25-2.16-1.88-3.13-1.88-.67,0-1.23.43-1.68,1.3-.45.86-.68,2.03-.68,3.5h-.45v-21.38h.45c.54,3.72,1.56,7.21,3.04,10.5,1.48,3.28,3.3,6.14,5.44,8.55,2.15,2.42,4.54,4.32,7.17,5.7,2.63,1.38,5.34,2.07,8.12,2.07,2.06,0,4.01-.37,5.85-1.1,1.84-.73,3.45-1.79,4.81-3.18,1.36-1.38,2.43-3,3.22-4.86.79-1.86,1.18-3.95,1.18-6.29,0-3.89-.92-7.26-2.77-10.11-1.85-2.85-4.13-5.46-6.85-7.84-2.72-2.38-5.7-4.71-8.94-7-3.24-2.29-6.21-4.77-8.94-7.45-2.72-2.68-5-5.72-6.85-9.14-1.85-3.41-2.77-7.49-2.77-12.25,0-3.63.48-6.93,1.45-9.91.97-2.98,2.37-5.57,4.22-7.78,1.84-2.2,4.07-3.91,6.67-5.12,2.6-1.21,5.53-1.81,8.8-1.81,2.6,0,4.84.39,6.71,1.17,1.87.78,3.48,1.66,4.81,2.66,1.33.99,2.45,1.88,3.36,2.66.91.78,1.72,1.17,2.45,1.17,1.51,0,2.27-1.34,2.27-4.02h.54v20.61Z"/>
        <path class="cls-1" d="M106.36,10.24h27.22c3.08,0,5.93.67,8.53,2.01,2.6,1.34,4.84,3.22,6.71,5.64,1.87,2.42,3.34,5.34,4.4,8.75,1.06,3.41,1.59,7.19,1.59,11.34s-.53,7.95-1.59,11.4c-1.06,3.46-2.53,6.39-4.4,8.81-1.88,2.42-4.11,4.3-6.71,5.64-2.6,1.34-5.44,2.01-8.53,2.01h-12.7v25.14c0,3.03.51,5.16,1.54,6.42,1.03,1.25,2.69,1.88,4.99,1.88v1.68h-21.05v-1.68c2.3,0,3.98-.63,5.04-1.88,1.06-1.25,1.59-3.39,1.59-6.42V20.22c0-3.02-.53-5.16-1.59-6.42-1.06-1.25-2.74-1.88-5.04-1.88v-1.69ZM127.41,11.93c-2.3,0-3.96.63-4.99,1.88-1.03,1.25-1.54,3.39-1.54,6.42v43.8h8.16c2.6,0,4.96-.6,7.08-1.81,2.12-1.21,3.95-2.94,5.49-5.18,1.54-2.25,2.74-4.99,3.58-8.23.85-3.24,1.27-6.85,1.27-10.82s-.42-7.56-1.27-10.76c-.85-3.2-2.04-5.94-3.58-8.23-1.54-2.29-3.37-4.04-5.49-5.25-2.12-1.21-4.48-1.81-7.08-1.81h-1.63Z"/>
        <path class="cls-1" d="M172.41,10.24h1.45l25.58,80.74c.97,3.03,2.15,5.16,3.54,6.42,1.39,1.25,3.14,1.88,5.26,1.88v1.68h-21.23v-1.68c2.12,0,3.48-.6,4.08-1.81.6-1.21.39-3.37-.63-6.48l-4.63-15.03h-32.21l-4.54,15.03c-.97,3.11-1.13,5.27-.5,6.48.64,1.21,2.01,1.81,4.13,1.81v1.68h-13.61v-1.68c2.12,0,3.87-.63,5.26-1.88,1.39-1.25,2.51-3.39,3.36-6.42l24.68-80.74ZM169.5,23.98l-15.33,50.28h31.12l-15.79-50.28Z"/>
        <path class="cls-1" d="M230.38,8.56c4.05,0,8.04,1.38,11.97,4.15,3.93,2.77,7.26,6.74,9.98,11.92l-4.26,5.83c-2.36-6.22-5.19-10.99-8.48-14.32-3.3-3.33-6.79-4.99-10.48-4.99-3.33,0-6.37,1.08-9.12,3.24-2.75,2.16-5.05,5.12-6.89,8.88-1.85,3.76-3.22,8.21-4.13,13.35-.91,5.14-1.21,10.65-.91,16.52.3,6.05,1.25,11.79,2.86,17.24,1.6,5.44,3.67,10.17,6.21,14.19s5.43,7.21,8.66,9.59c3.23,2.38,6.61,3.56,10.12,3.56,4.72,0,8.92-1.81,12.61-5.44,3.69-3.63,6.65-8.94,8.89-15.94h.45c-1.81,7.95-4.81,14.32-8.98,19.12-4.17,4.79-9.62,7.19-16.33,7.19-4.54,0-8.82-1.28-12.84-3.82-4.02-2.55-7.56-6.03-10.61-10.43-3.05-4.41-5.47-9.53-7.26-15.36-1.78-5.83-2.68-12.03-2.68-18.6s.83-12.38,2.49-17.95c1.66-5.57,3.9-10.43,6.71-14.58,2.81-4.15,6.12-7.41,9.93-9.78,3.81-2.38,7.83-3.56,12.07-3.56Z"/>
        <path class="cls-1" d="M256.05,10.24h21.05v1.69c-2.3,0-3.98.63-5.04,1.88-1.06,1.25-1.59,3.39-1.59,6.42v70.76c0,3.03.53,5.16,1.59,6.42,1.06,1.25,2.74,1.88,5.04,1.88v1.68h-21.05v-1.68c2.24,0,3.89-.63,4.94-1.88,1.06-1.25,1.59-3.39,1.59-6.42V20.22c0-3.11-.51-5.27-1.54-6.48-1.03-1.21-2.69-1.81-4.99-1.81v-1.69Z"/>
        <path class="cls-1" d="M308.76,102.13c-4.36,0-8.45-1.25-12.29-3.76-3.84-2.5-7.2-5.92-10.07-10.24-2.87-4.32-5.14-9.37-6.8-15.16-1.66-5.79-2.49-11.92-2.49-18.4s.79-12.22,2.36-17.75c1.57-5.53,3.7-10.35,6.4-14.45,2.69-4.1,5.87-7.34,9.53-9.72,3.66-2.38,7.58-3.56,11.75-3.56s8.45,1.25,12.29,3.76c3.84,2.51,7.2,5.92,10.07,10.24,2.87,4.32,5.14,9.38,6.8,15.16,1.66,5.79,2.49,11.92,2.49,18.4s-.79,12.23-2.36,17.75c-1.57,5.53-3.71,10.35-6.39,14.45-2.69,4.1-5.87,7.34-9.53,9.72-3.66,2.38-7.58,3.56-11.75,3.56ZM305.04,11.15c-3.02,0-5.81,1.21-8.35,3.63-2.54,2.42-4.69,5.66-6.44,9.72-1.75,4.06-3.04,8.81-3.86,14.26-.82,5.44-1.04,11.19-.68,17.24.36,6.14,1.3,11.88,2.81,17.24,1.51,5.36,3.39,10.02,5.62,14,2.24,3.98,4.79,7.11,7.67,9.4,2.87,2.29,5.85,3.43,8.94,3.43,2.78,0,5.37-.97,7.76-2.92,2.39-1.94,4.47-4.6,6.26-7.97,1.78-3.37,3.19-7.32,4.22-11.86,1.03-4.54,1.54-9.44,1.54-14.71,0-6.31-.68-12.53-2.04-18.66-1.36-6.13-3.19-11.64-5.49-16.52-2.3-4.88-5.01-8.81-8.12-11.79-3.12-2.98-6.4-4.47-9.84-4.47Z"/>
      </g>
      <g>
        <path class="cls-1" d="M350.8,38.14c-2.36-1.31-4.22-3.13-5.58-5.45-1.36-2.32-2.04-4.92-2.04-7.81s.68-5.49,2.04-7.81c1.36-2.32,3.22-4.13,5.58-5.45,2.36-1.32,5.01-1.97,7.96-1.97,2.17,0,4.18.35,6.01,1.05,1.83.7,3.39,1.74,4.68,3.11l-1.37,1.42c-2.4-2.37-5.48-3.56-9.22-3.56-2.52,0-4.8.57-6.86,1.72-2.06,1.14-3.68,2.72-4.85,4.74-1.17,2.02-1.76,4.27-1.76,6.76s.59,4.74,1.76,6.76c1.17,2.02,2.79,3.6,4.85,4.74,2.06,1.14,4.35,1.72,6.86,1.72,3.72,0,6.79-1.2,9.22-3.6l1.37,1.42c-1.29,1.37-2.85,2.42-4.7,3.13-1.84.71-3.84,1.07-5.98,1.07-2.95,0-5.6-.66-7.96-1.97Z"/>
        <path class="cls-1" d="M397.63,39.9l-7.17-10.04c-1.06.14-2.03.21-2.92.21h-8.58v9.82h-2.19V9.87h10.77c3.78,0,6.74.89,8.88,2.68,2.15,1.79,3.22,4.27,3.22,7.44,0,2.37-.61,4.37-1.82,5.98-1.22,1.62-2.95,2.75-5.21,3.41l7.51,10.51h-2.49ZM387.55,28.14c3.2,0,5.65-.71,7.34-2.12s2.53-3.42,2.53-6.03-.84-4.61-2.53-6.03c-1.69-1.42-4.13-2.12-7.34-2.12h-8.58v16.3h8.58Z"/>
      </g>
    </g>
  </g>
</svg>