<?xml version="1.0" encoding="UTF-8"?>
<svg id="Layer_2" xmlns="http://www.w3.org/2000/svg" version="1.1" viewBox="0 0 481 154">
  <!-- Generator: Adobe Illustrator 30.5.1, SVG Export Plug-In . SVG Version: 2.1.4 Build 3)  -->
  <defs>
    <style>
      .st0 {
        fill: none;
      }

      .st1 {
        fill: #070707;
      }
    </style>
  </defs>
  <g id="Layer_1-2">
    <g>
      <rect class="st0" width="481" height="154"/>
      <g>
        <g>
          <path class="st1" d="M281.4,14h-11c-3.9,0-7,3.1-7,7s3.1,7,7,7h11c3.9,0,7-3.1,7-7s-3.1-7-7-7Z"/>
          <path class="st1" d="M284.9,58.1c-2.7-6.4-6.5-12-11.4-16.7-4.8-4.8-10.3-8.6-16.7-11.2-6.4-2.7-13.4-4.1-21-4.1s-14.4,1.4-20.8,4.1c-6.4,2.6-12,6.4-16.9,11.2-4.8,4.8-8.5,10.3-11.2,16.7-2.6,6.3-3.9,13.2-3.9,20.5s1.4,14.3,4.1,20.8c2.7,6.4,6.4,12,11.2,16.9,4.9,4.8,10.5,8.5,16.9,11.2,6.5,2.7,13.5,4.1,21,4.1s14.4-1.4,20.7-4.1c6.4-2.7,12-6.4,16.7-11.2,4.9-4.8,8.6-10.5,11.4-16.9,2.7-6.4,4.1-13.3,4.1-20.7s-1.4-14.3-4.1-20.7h0ZM235.9,112.9c-18.8,0-34.1-15.2-34.1-34.1s15.2-34.1,34.1-34.1,34.1,15.2,34.1,34.1-15.2,34.1-34.1,34.1Z"/>
        </g>
        <polygon class="st1" points="25 86.1 71.3 86.1 71.3 69.2 25 69.2 25 45 75.7 45 75.7 27.6 25 27.6 19.8 27.6 5.2 27.6 5.2 129.9 19.8 129.9 25 129.9 76.4 129.9 76.4 112.4 25 112.4 25 86.1"/>
        <polygon class="st1" points="131.7 99.4 104.6 27.6 83.2 27.6 123.6 129.9 139.3 129.9 180 27.6 158.9 27.6 131.7 99.4"/>
        <polygon class="st1" points="422.6 112.4 422.6 86.1 468.9 86.1 468.9 69.2 422.6 69.2 422.6 45 473.3 45 473.3 27.6 422.6 27.6 417.4 27.6 402.8 27.6 402.8 129.9 417.4 129.9 422.6 129.9 474 129.9 474 112.4 422.6 112.4"/>
        <polygon class="st1" points="390.6 27.6 365.9 27.6 325 73.8 325 27.6 305.2 27.6 305.2 129.9 325 129.9 325 79.3 367 129.9 392.2 129.9 346.5 76.2 390.6 27.6"/>
      </g>
    </g>
  </g>
</svg>