<?xml version="1.0" encoding="UTF-8"?>
<svg id="Layer_2" xmlns="http://www.w3.org/2000/svg" version="1.1" viewBox="0 0 295.6 39.6">
  <!-- Generator: Adobe Illustrator 30.5.1, SVG Export Plug-In . SVG Version: 2.1.4 Build 3)  -->
  <defs>
    <style>
      .st0 {
        fill: #10192a;
      }
    </style>
  </defs>
  <g id="Layer_1-2">
    <g>
      <path class="st0" d="M78.2,8h-3.4c1.9.8,3.4,2.2,3.4,6.1v24.7h5.9V8h-5.9Z"/>
      <path class="st0" d="M103.7,7c-2.9,0-5.6.7-8.1,2.2-2.5,1.5-4.5,3.4-5.9,5.9s-2.2,5.2-2.2,8.2c0,4.4,1.5,8.3,4.6,11.5s7,4.8,11.6,4.8,8.2-1.6,11.3-4.7c3.1-3.1,4.7-7,4.7-11.5s-1.6-8.4-4.7-11.6c-3.2-3.2-6.9-4.8-11.3-4.8h0ZM110.9,30.8c-2,2-4.4,3-7.2,3s-4.7-.8-6.6-2.3c-2.5-2-3.7-4.7-3.7-8.1s1-5.6,2.9-7.6c2-2,4.4-3,7.2-3s5.3,1,7.2,3.1c2,2,3,4.5,3,7.5s-1,5.5-3,7.5h.2Z"/>
      <path class="st0" d="M133.4,24.9l5.1,1h0l-.5-2s0-.1-.1-.1h-7.8v.3c0,0,0,0,0,.1l3.2,4.9c-2.8.3-4.7,1.9-4.7,4.6s1.9,4.3,4.5,4.8c.5,0,1,.2,1.6.2s1,0,1.5-.2c.9-.2,1.8-.6,2.5-1.1l.8,1.2h2.9l-8.8-13.7h0c0-.1-.2,0-.2,0ZM137.2,35.7c-.7.5-1.6.9-2.6.9-1.9,0-3.3-1.3-3.3-2.7s1.1-2.6,3-2.7l2.9,4.6h0q0,0,0,0Z"/>
      <path class="st0" d="M65.1,34.9c-6.4,0-11.4-5-11.4-11.5s5-11.9,11.5-11.9,6.4,1.3,9.1,3.9h0v-5.6c-2.9-2-5.8-2.9-9.3-2.9-9.5,0-16.6,7.2-16.6,16.6s6.9,16,16.5,16,6.6-1,9.4-3v-5.7h0c-2.5,2.5-5.9,4.1-9.3,4.1,0,0,0,0,.1,0Z"/>
      <path class="st0" d="M47.8,33.1l-9.6-24.7c0-.3-.4-.4-.6-.4h-5c-.3,0-.5.2-.6.4l-11.7,30.1s0,.3.2.3h5.9l2.4-6.1h12.8l2.3,6.1h9.1c-1.6-.6-3.3-2-5.1-5.7,0,0,0,0-.1,0ZM38.9,26.6h-7.7s-.3-.1-.2-.3l3.3-11.2c0-.1.2-.2.3-.2h1s.3,0,.3.2l3.3,11.2c0,.1,0,.3-.2.3,0,0,0,0,0,0Z"/>
      <path class="st0" d="M294.4,4.7c-.8-.8-1.7-1.2-2.8-1.2s-2,.4-2.8,1.2c-.8.8-1.2,1.7-1.2,2.8s.4,2,1.2,2.8c.8.8,1.7,1.2,2.8,1.2s2-.4,2.8-1.2,1.2-1.7,1.2-2.8-.4-2-1.2-2.8h0ZM293.9,9.9c-.6.6-1.4,1-2.3,1s-1.7-.3-2.3-1c-.6-.7-.9-1.5-.9-2.4s.3-1.7.9-2.4c.6-.6,1.4-1,2.3-1s1.7.3,2.3,1c.6.7.9,1.4.9,2.4s-.3,1.8-.9,2.4h0Z"/>
      <path class="st0" d="M293.5,6.5c0-.9-.6-1.3-1.6-1.3h-1.8v4.6h.7v-2h.8l1.3,2h.8l-1.3-2c.8,0,1.2-.6,1.2-1.3,0,0-.1,0-.1,0ZM290.8,7.2v-1.5h1c.6,0,1,.2,1,.7s-.3.8-1.1.8h-.9Z"/>
      <path class="st0" d="M194,8.4c-.1-.3-.4-.4-.6-.4h-5c-.3,0-.5.2-.6.4l-11.6,30.1s0,.3.2.3h5.8l2.4-6.1h12.7l2.3,6.1h5.8c.2,0,.3-.2.2-.3l-11.6-30.1h0ZM194.7,26.7h-7.7c-.1,0-.3-.1-.2-.3l3.3-11.2c0-.1.2-.2.3-.2h1c.1,0,.3,0,.3.2l3.2,11.2c0,.1,0,.3-.2.3h0Z"/>
      <path class="st0" d="M232.2,8h-9.2c1.8.7,3.5,2.1,3.6,5.6v13.6c0,.3-.4.4-.6.2l-12.5-19.2s-.2-.1-.3-.1h-5.1c-.2,0-.3.1-.3.3v30.2c0,.2.1.3.3.3h9.2c-1.7-.7-3.3-1.9-3.6-5v-14.1c0-.3.4-.4.6-.2l12.5,19.2h5.5c.2,0,.3,0,.3-.3V8.3c0-.2-.1-.3-.3-.3h-.1,0Z"/>
      <path class="st0" d="M280.9,23.7c-.5-.5-1.8-1.7-4.1-3.6-2.4-2-3.8-3.4-4.3-4-.4-.5-.5-1-.5-1.5s.2-1,.7-1.4,1.1-.6,1.9-.6c1.6,0,3.2,1.1,4.7,3.2l4.4-3.9c-1.6-1.9-3.1-3.2-4.5-3.9s-2.9-1.1-4.4-1.1c-2.4,0-4.4.8-6.1,2.3-1.6,1.5-2.5,3.4-2.5,5.5s.5,3,1.5,4.5,3.2,3.6,6.5,6.4c1.8,1.4,2.9,2.5,3.4,3.2s.8,1.4.8,2.1-.3,1.5-1,2c-.7.6-1.5.9-2.6.9-1.9,0-3.7-1.4-5.2-4.1l-5,3c1.2,2.3,2.6,4,4.2,5.1s3.6,1.6,5.8,1.6,5.1-.8,6.9-2.5,2.6-3.8,2.6-6.3-.2-2.5-.7-3.6-1.3-2.3-2.5-3.5h0v.2h0Z"/>
      <path class="st0" d="M164.8,34.9c-6.3,0-11.4-5-11.4-11.5s5-11.9,11.5-11.9,6.4,1.3,9.1,3.9h0v-5.6c-2.9-2-5.8-2.9-9.3-2.9-9.5,0-16.6,7.2-16.6,16.6s6.9,15.9,16.4,15.9,6.6-1,9.4-3v-5.7h0c-2.5,2.5-5.8,4-9.3,4h0l.2.2h0Z"/>
      <path class="st0" d="M262,34.4l-10-26c-.1-.3-.4-.4-.6-.4h-5c-.3,0-.5.2-.6.4l-11.6,30.1s0,.3.2.3h5.8l2.4-6.1h12.7l2.3,6.1h7.7c-1.3-.8-2.1-1.7-3.2-4.3h-.1q0,0,0,0ZM252.7,26.7h-7.7c-.1,0-.3-.1-.2-.3l3.3-11.2c0-.1.2-.2.3-.2h1c.1,0,.3,0,.3.2l3.2,11.2c0,.1,0,.3-.2.3h0Z"/>
      <path class="st0" d="M213.5,3.1s0,.2.1.2c5.2,2.9,7.8-3.1,13,0h.1V1s0-.2-.1-.2c-5.2-2.9-7.8,3-13,0h-.1v2.3h0Z"/>
      <path class="st0" d="M10.4,10.1c0-.4.3-.8.8-.8h4c.4,0,.7.1,1,.4l6.9,6.9h0c0-.1-.6-7.3-.6-7.3l-.9-1.4H.2s-.2,0-.2.2,0,0,0,.1l2.4,2.4c0,.1.2.3.2.5v24.4c0,.2,0,.4-.2.6l-2.4,2.5v.2h12.8s.1,0,0-.2l-2.4-2.5c-.2-.2-.2-.4-.2-.6v-11.6h9v-4.2l-9,2.6v-12.2s.2,0,.2,0Z"/>
    </g>
  </g>
</svg>