<svg width="323" height="53" viewBox="0 0 323 53" fill="none" xmlns="http://www.w3.org/2000/svg">
<g clip-path="url(#clip0_313_170)">
<path d="M16.9389 52.5795C14.645 51.3959 12.5175 49.3302 11.6539 46.4464C11.1141 44.6458 11.1051 42.6806 11.1006 40.7611C11.0871 30.4646 11.0692 18.3491 11.0557 8.05717C11.0557 3.61499 8.14101 0.0182806 4.55167 0.0182806C3.46767 0.0182806 2.38817 0.0182806 1.30418 0.0182806H0.490052C0.377604 0.0182806 0.206683 -0.0228507 0.098733 0.0182806C0.0132726 0.0502716 0.0402601 -0.00457015 0.00877467 0.0959731C-0.0137149 0.164525 0.00877467 0.3062 0.00877467 0.379322C0.00877467 1.05113 0.00877467 1.72295 0.0132726 2.39476C0.0222684 5.07743 0.0267663 7.76468 0.0357622 10.4474C0.044758 13.13 0.0492559 17.6362 0.0582518 20.3234C0.0672476 23.0107 0.0717455 25.6934 0.0807414 28.376C0.0897372 31.0587 0.0942351 33.746 0.103231 36.4286C0.107729 38.2933 0.116725 40.1625 0.116725 42.0271C0.116725 43.2427 0.125721 44.4721 0.368608 45.6512C1.16024 49.4673 4.33127 51.8803 7.46632 52.5841C10.6014 53.2833 14.5595 52.9589 17.0019 52.607C16.9839 52.5978 16.9659 52.5887 16.9479 52.5795H16.9389Z" fill="#044737"/>
<path d="M43.5397 51.1719C41.2458 49.9883 39.1183 47.9226 38.2547 45.0388C37.7149 43.2382 37.7059 41.273 37.7014 39.3535C37.6879 29.057 37.6699 20.8125 37.6565 10.5159C37.652 6.07373 34.7373 2.47702 31.148 2.47702C30.064 2.47702 28.9845 2.47702 27.9005 2.47702H27.0863C26.9739 2.47702 26.803 2.43589 26.695 2.47702C26.6051 2.50901 26.6366 2.45417 26.6006 2.55471C26.5781 2.62327 26.6006 2.76494 26.6006 2.83806C26.6006 3.50987 26.6006 4.18169 26.6051 4.8535C26.6141 7.53617 26.6186 10.2234 26.6276 12.9061C26.6366 15.5888 26.6411 16.2286 26.65 18.9113C26.659 21.5939 26.6635 24.2812 26.6725 26.9639C26.6815 29.6465 26.686 32.3338 26.695 35.0165C26.6995 36.8811 26.7085 38.7503 26.7085 40.6149C26.7085 41.8306 26.7175 43.0599 26.9604 44.239C27.752 48.0551 30.9231 50.4681 34.0581 51.1719C37.1932 51.8712 41.1513 51.5467 43.5937 51.1948C43.5757 51.1856 43.5577 51.1765 43.5397 51.1674V51.1719Z" fill="#044737"/>
<path d="M24.2256 13.427C18.2524 13.427 13.4126 19.1625 13.4126 26.5525V43.7636H13.4171C13.534 47.3284 15.9089 50.1756 18.8191 50.1756C21.7292 50.1756 24.1041 47.3284 24.2211 43.7636H24.2256V13.427Z" fill="#044737"/>
<path d="M40.0134 5.70801V42.356H40.0179C40.1349 45.9207 42.5098 48.7679 45.4199 48.7679C48.3301 48.7679 50.705 45.9207 50.8219 42.356H50.8264V19.0848C50.8264 11.6949 45.9867 5.70801 40.0134 5.70801Z" fill="#044737"/>
<path d="M90.9029 29.4318C90.9029 38.2384 83.9356 45.3176 75.1152 45.3176C71.6563 45.3176 68.5123 44.2162 65.9305 42.3287V52.6572H59.4805V29.4318C59.4805 20.4149 66.4477 13.3357 75.1152 13.3357C83.7827 13.3357 90.9029 20.4149 90.9029 29.4318ZM84.3495 29.4318C84.3495 24.1898 80.2204 19.9944 75.1152 19.9944C70.0101 19.9944 65.9305 24.135 65.9305 29.4318C65.9305 34.7286 70.0596 38.764 75.1152 38.764C80.1709 38.764 84.3495 34.5686 84.3495 29.4318Z" fill="black"/>
<path d="M125.577 35.9304C125.577 37.6077 125.937 38.3435 126.918 38.1332V44.792C124.597 45.3175 121.808 43.9008 120.261 41.3826C117.526 43.8459 113.914 45.3129 109.943 45.3129C101.118 45.3129 94.155 38.2338 94.155 29.2169C94.155 20.2 101.122 13.3311 109.943 13.3311C118.763 13.3311 125.577 20.4102 125.577 29.2169V35.9259V35.9304ZM119.127 29.2215C119.127 24.0846 114.998 19.8892 109.943 19.8892C104.887 19.8892 100.708 24.0846 100.708 29.2215C100.708 34.3583 104.784 38.6588 109.943 38.6588C115.102 38.6588 119.127 34.5183 119.127 29.2215Z" fill="black"/>
<path d="M149.313 37.2969C149.16 41.8579 145.134 45.3175 140.695 45.3175C137.083 45.3175 132.644 43.3752 130.066 40.2309L133.782 35.2495C134.195 36.8216 136.103 38.7091 138.271 39.39C140.079 39.7556 141.882 39.3352 142.449 37.7128C143.277 35.4049 140.798 33.362 137.704 31.4197C132.855 27.7499 130.327 25.6522 130.584 21.3517C130.791 16.8958 134.713 13.3311 139.148 13.3311C142.71 13.3311 146.628 14.3273 149.259 17.5767L145.391 22.1377C144.514 20.7758 143.326 19.6744 141.316 19.2037C139.562 18.8381 137.654 19.3591 137.083 21.0409C136.462 23.3488 139.355 25.6019 142.242 27.334C147.194 30.8987 149.569 33.3117 149.313 37.2969Z" fill="black"/>
<path d="M168.766 38.0282V45.1074H163.864C159.064 45.1074 155.246 41.2822 155.246 36.351V20.4149H153.748V13.8613H155.246V8.09375H161.696V13.8613H167.835V20.4149H161.696V35.4095C161.696 37.297 162.933 38.8189 164.844 38.8189C166.135 38.8189 167.633 38.5035 168.766 38.0328V38.0282Z" fill="black"/>
<path d="M171.604 29.2718C171.604 20.4651 178.621 13.3357 187.289 13.3357C195.956 13.3357 203.027 20.4651 203.027 29.2718C203.027 38.0785 196.06 45.313 187.289 45.313C178.518 45.313 171.604 38.1836 171.604 29.2718ZM196.581 29.2718C196.581 24.0801 192.403 19.8893 187.293 19.8893C182.184 19.8893 178.059 24.0847 178.059 29.2718C178.059 34.4589 182.238 38.7594 187.293 38.7594C192.349 38.7594 196.581 34.4589 196.581 29.2718Z" fill="black"/>
<path d="M238.583 39.4449C238.583 41.177 238.943 41.9083 239.923 41.8031V44.792C237.809 45.1074 235.691 43.2702 235.691 40.0756V38.6086C232.853 42.6989 228.211 45.3176 222.948 45.3176C214.123 45.3176 207.161 38.2384 207.161 29.2215C207.161 20.2046 214.128 13.3357 222.948 13.3357C231.769 13.3357 238.583 20.4149 238.583 29.2215V39.4449ZM235.691 29.2215C235.691 22.0921 229.911 16.2743 222.948 16.2743C215.986 16.2743 210.048 22.0921 210.048 29.2215C210.048 36.351 215.774 42.3287 222.948 42.3287C230.123 42.3287 235.691 36.5612 235.691 29.2215Z" fill="black"/>
<path d="M256.539 13.8613V17.1107C255.405 16.7954 254.164 16.6902 253.03 16.6902C249.522 16.6902 246.994 19.5192 246.994 22.9833V44.7921H244.052V22.6177C244.052 17.6911 247.768 13.8613 252.67 13.8613H256.539Z" fill="black"/>
<path d="M286.31 39.6003C283.423 43.1148 279.087 45.313 274.288 45.313C265.566 45.313 258.549 38.1287 258.549 29.2718C258.549 20.4149 265.566 13.3357 274.288 13.3357C279.19 13.3357 283.576 15.6436 286.414 19.2586L284.763 21.827C282.442 18.4725 278.624 16.2697 274.288 16.2697C267.217 16.2697 261.441 22.1424 261.441 29.2718C261.441 36.4012 267.221 42.379 274.288 42.379C278.466 42.379 282.078 40.231 284.246 37.2421L286.31 39.6003Z" fill="black"/>
<path d="M321.66 39.4449C321.66 41.177 322.02 41.9083 323 41.8031V44.792C320.886 45.1074 318.768 43.2702 318.768 40.0756V38.6086C315.929 42.6989 311.288 45.3176 306.025 45.3176C297.2 45.3176 290.237 38.2384 290.237 29.2215C290.237 20.2046 297.205 13.3357 306.025 13.3357C314.845 13.3357 321.66 20.4149 321.66 29.2215V39.4449ZM318.768 29.2215C318.768 22.0921 312.988 16.2743 306.025 16.2743C299.062 16.2743 293.125 22.0921 293.125 29.2215C293.125 36.351 298.851 42.3287 306.025 42.3287C313.199 42.3287 318.768 36.5612 318.768 29.2215Z" fill="black"/>
</g>
<defs>
<clipPath id="clip0_313_170">
<rect width="323" height="53" fill="white"/>
</clipPath>
</defs>
</svg>
