<?xml version="1.0" encoding="UTF-8"?>
<svg id="Layer_2" xmlns="http://www.w3.org/2000/svg" version="1.1" viewBox="0 0 1287.7 320.1">
  <!-- Generator: Adobe Illustrator 30.5.1, SVG Export Plug-In . SVG Version: 2.1.4 Build 3)  -->
  <defs>
    <style>
      .st0 {
        fill: #273630;
      }
    </style>
  </defs>
  <g id="Layer_1-2">
    <g>
      <path class="st0" d="M295.4,285.4c0,7.9.7,14.2,2.1,19s3,8.3,4.8,10.8c1.8,2.7,4,4.4,6.4,5h-65.4c2.1-.6,4.1-2.3,5.9-5,1.5-2.4,2.9-5.8,4.1-10.1,1.2-4.3,1.8-10.4,1.8-18.3l-.5-74.5c0-13.4-2.7-25.9-8.2-37.5-5.5-11.6-12.9-21.6-22.2-30.2-9.3-8.5-20-15.2-32-19.9-12.1-4.7-24.6-7.1-37.7-7.1s-25.8,2.4-38,7.1c-12.2,4.7-22.9,11.4-32.2,19.9-9.3,8.5-16.7,18.6-22.2,30.2-5.5,11.6-8.2,24.1-8.2,37.5v74.5c0,7.9.6,14,1.8,18.3,1.2,4.3,2.6,7.6,4.1,10.1,1.8,2.7,3.8,4.4,5.9,5H0c2.4-.6,4.7-2.3,6.9-5,1.5-2.4,3-6,4.3-10.8,1.4-4.7,2.1-11,2.1-19V34.8c0-8.2-.7-14.6-2.1-19.2-1.4-4.6-2.8-8.1-4.3-10.5C4.7,2.3,2.4.6,0,0h65.8c-2.1.6-4.1,2.3-5.9,5-1.5,2.4-2.9,5.8-4.1,10.1-1.2,4.3-1.8,10.4-1.8,18.3v131.7c9.8-19.2,23.6-34,41.6-44.4,18-10.4,37.7-15.6,59-15.6s41.5,5.3,58.8,15.8c17.2,10.5,31.2,25.2,41.8,44.1V33.4c0-7.9-.6-14-1.8-18.3s-2.6-7.6-4.1-10.1c-1.8-2.7-3.8-4.4-5.9-5h65.4c-2.4.6-4.6,2.3-6.4,5-1.8,2.4-3.4,5.9-4.8,10.5-1.4,4.6-2.1,11-2.1,19.2v250.6h0Z"/>
      <path class="st0" d="M647.1,285.4c0,7.9.7,14.2,2.1,19s3,8.3,4.8,10.8c1.8,2.7,4,4.4,6.4,5h-64c1.8-.9,3.5-2.9,5-5.9,1.5-2.4,2.7-5.8,3.7-10.1.9-4.3,1.4-10.1,1.4-17.4v-20.6c0-15.6-3.2-29.9-9.6-43-6.4-13.1-14.9-24.5-25.4-34.1-10.5-9.6-22.7-17.1-36.6-22.6-13.9-5.5-28.3-8.2-43.2-8.2s-28.1,2.4-41.4,7.3-25.1,11.7-35.7,20.6c-10.5,8.9-19.1,19.4-25.8,31.8-6.7,12.4-10.5,25.8-11.4,40.5v27c0,7.6.5,13.7,1.4,18.3s2.1,8.1,3.7,10.5c1.2,2.7,2.7,4.7,4.6,5.9h-35.2c2.4-.6,4.7-2.3,6.9-5,1.5-2.4,3-6,4.3-10.8,1.4-4.7,2.1-11,2.1-19l.5-11v-16.5c1.2-31.4,6.2-59.5,14.9-84.4,8.7-24.8,20-46.8,33.8-65.8,13.9-19,29.6-35.4,47.3-48.9,17.7-13.6,36-24.7,55.1-33.4s38.1-15.1,57.2-19.2c19-4.1,36.8-6.2,53.3-6.2h33.4c-2.4.6-4.6,2.3-6.4,5-1.8,2.4-3.4,5.9-4.8,10.5-1.4,4.6-2.1,11-2.1,19.2v250.6h0ZM606.4,216.8l1.4-203.9c-21,1.8-43.1,6.9-66.3,15.3-23.2,8.4-45.3,20.3-66.3,35.9s-39.7,35-56,58.3-28,51.1-35,83.5c2.7-4.3,5.6-8.7,8.5-13.3,2.9-4.6,6.3-8.7,10.3-12.4,11.9-11,25.5-19.4,40.7-25.4,15.2-5.9,31.2-8.9,48-8.9s23.6,1.6,35.2,4.8c11.6,3.2,22.5,7.9,32.7,14.2,10.2,6.2,19.4,13.7,27.4,22.4,8.1,8.7,14.5,18.5,19.4,29.5h0Z"/>
      <path class="st0" d="M982.3,202.1c0,6.4-.8,13.7-2.5,21.9s-4.4,16.7-8.2,25.4c-3.8,8.7-8.8,17.2-15.1,25.6-6.2,8.4-13.8,15.9-22.6,22.4-8.8,6.6-19.1,11.9-30.9,16-11.7,4.1-25.1,6.3-40,6.6h-2.3c-18.9-.3-36.6-3-53-8s-30.9-12.7-43.2-23.1c-12.3-10.4-22-23.5-29-39.3-7-15.9-10.5-34.8-10.5-56.7V33.8c0-7.9-.7-14.1-2.1-18.5s-2.8-7.8-4.3-10.3c-2.1-2.7-4.4-4.4-6.9-5h67.2c-2.4.6-4.6,2.3-6.4,5-1.8,2.4-3.4,5.9-4.8,10.5-1.4,4.6-2.1,10.8-2.1,18.7v152.7c0,40.2,7.8,70,23.3,89.4s39,29.8,70.4,31.3h1.4c21,0,38.5-3.9,52.4-11.7,13.9-7.8,25.1-17.1,33.6-28.1,8.5-11,14.5-22.6,18.1-34.8,3.5-12.2,5.3-22.6,5.3-31.1l.5-166.9c0-7.9-.8-14.2-2.3-18.8-1.5-4.6-3-8.1-4.6-10.5-2.1-2.7-4.4-4.4-6.9-5h38.9c-2.4.6-4.6,2.3-6.4,5-1.8,2.4-3.4,5.9-4.8,10.5-1.4,4.6-2.1,11-2.1,19.2v166.5h0Z"/>
      <path class="st0" d="M1215.9,148.2c24.1,4.3,42.1,13.6,54,28.1,11.9,14.5,17.8,31.3,17.8,50.5s-.2,6.7-.5,10.1c-1.2,15.6-5.5,28.6-12.8,39.1-7.3,10.5-16.4,19.1-27.2,25.6-10.8,6.6-22.9,11.3-36.4,14.2s-27,4.3-40.7,4.3c-28.7,0-54.3-5.7-76.8-17.1-22.6-11.4-41.6-29.5-57.2-54.2l29.7-16.9c7.6,24.1,19,42.5,34.1,55.1,15.1,12.6,35.4,19.4,61.1,20.4,4,.3,7.9.5,11.9.5,13.7,0,27.1-1.5,40.2-4.6,13.1-3,24.5-8.5,34.3-16.5,7-5.5,12.8-11.4,17.4-17.8s7.2-14.3,7.8-23.8c.3-1.8.5-3.8.5-5.9,0-14.9-5.8-27.8-17.4-38.6s-27.3-17.9-47.1-21.3l-80-13.7c-11.6-1.8-22.1-5.3-31.6-10.5-9.4-5.2-17.5-11.4-24-18.8-6.6-7.3-11-14.6-13.3-21.9s-3.4-13.9-3.4-19.7.3-7.3.9-11c3-15.8,7.8-29.2,14.2-40,6.4-10.8,14.5-19.6,24.2-26.3,9.8-6.7,20.5-11.3,32.2-13.7,11.7-2.4,23.8-3.7,36.3-3.7h8.2c22.9.6,43.5,6.9,62,18.7,18.4,11.9,33.8,27.4,46,46.6l-26.5,15.1c-6.1-20.1-15.8-36.4-29-48.9s-30.9-19.2-52.8-20.1h-6.4c-25.3,0-46.1,5.5-62.4,16.5-16.3,11-26.8,27.9-31.3,50.8-.6,2.7-.9,5.3-.9,7.8,0,5.2,1.3,10.4,3.9,15.6,2.6,5.2,6.9,10.1,12.8,14.6,5.9,4.6,13.1,8.3,21.5,11.2,8.4,2.9,17.3,5.1,26.8,6.6l80,13.7h0Z"/>
    </g>
  </g>
</svg>