<?xml version="1.0" encoding="UTF-8"?>
<svg id="Layer_2" data-name="Layer 2" xmlns="http://www.w3.org/2000/svg" viewBox="0 0 566.93 235.91">
  <defs>
    <style>
      .cls-1 {
        fill: #72bf44;
      }

      .cls-2 {
        fill: #0095da;
      }
    </style>
  </defs>
  <g id="logo">
    <g>
      <g>
        <path class="cls-1" d="M377.9,140.16l-62.1-59.67c-5.55-5.08-9.14-9.94-10.76-14.57-1.62-4.62-2.43-10.98-2.43-19.08s2.72-14.45,8.15-19.08c5.43-4.62,13.58-6.94,24.46-6.94s19.02,2.32,24.46,6.94c5.43,4.63,8.15,11.1,8.15,19.43v30.88h24.29v-29.49c0-32.38-18.62-48.57-55.86-48.57-19.43,0-33.94,4.22-43.54,12.66-9.6,8.45-14.4,20.41-14.4,35.91,0,10.41,1.33,19.03,3.99,25.85,2.66,6.83,7.57,13.82,14.74,20.99l61.06,59.67c5.32,5.32,8.85,10.35,10.58,15.09,1.73,4.74,2.6,11.1,2.6,19.08s-2.89,14.28-8.67,18.91c-5.78,4.63-14.34,6.94-25.67,6.94s-19.89-2.31-25.67-6.94c-5.78-4.62-8.67-11.1-8.67-19.43v-30.88h-24.29v29.49c0,32.38,19.54,48.57,58.63,48.57s58.63-16.19,58.63-48.57c0-10.41-1.27-19.02-3.82-25.85-2.55-6.82-7.17-13.93-13.88-21.34Z"/>
        <path class="cls-1" d="M527.52,105.82v-57.24c0-15.5-4.86-27.47-14.57-35.91-9.71-8.44-24.05-12.66-43.02-12.66s-33.19,4.22-42.67,12.66c-9.48,8.44-14.22,20.41-14.22,35.91v29.49h24.29v-29.49c0-18.51,10.99-27.75,32.96-27.75s32.96,9.25,32.96,27.75v57.24h-47.04c-23.84,0-43.16,17.59-43.16,41.43v40.1c0,15.49,4.86,27.46,14.57,35.91,9.71,8.44,24.06,12.66,43.02,12.66s33.19-4.22,42.67-12.66c9.49-8.45,14.22-20.41,14.22-35.91v-60.71h39.41v-20.82h-39.41ZM503.24,187.34c0,18.5-10.98,27.75-32.96,27.75s-32.96-9.25-32.96-27.75v-38.02c0-11.83,9.59-22.69,21.42-22.69h44.5v60.71Z"/>
      </g>
      <path class="cls-2" d="M243.3,12.66c-9.71-8.44-24.06-12.66-43.02-12.66s-33.19,4.22-42.67,12.66c-9.49,8.45-14.22,20.41-14.22,35.91v60.71h-26.47V5.2h-24.29v104.08H24.29V5.2H0v225.51h24.29v-100.61h68.35v100.61h24.29v-100.61h26.47v57.24c0,15.5,4.86,27.47,14.57,35.91,9.71,8.44,24.05,12.66,43.02,12.66s33.19-4.22,42.67-12.66c9.48-8.44,14.22-20.41,14.22-35.91v-29.49h-24.29v29.49c0,18.51-10.99,27.75-32.96,27.75s-32.96-9.25-32.96-27.75v-57.24s33.03.25,44.04,0c34.01-.78,46.17-17.59,46.17-41.43v-40.1c0-15.49-4.86-27.46-14.57-35.91ZM233.59,86.59c0,11.83-9.59,22.69-21.42,22.69h-44.5v-60.71c0-18.5,10.98-27.75,32.96-27.75s32.96,9.25,32.96,27.75v38.02Z"/>
    </g>
  </g>
</svg>