<?xml version="1.0" encoding="utf-8"?>
<!-- Generator: Adobe Illustrator 28.1.0, SVG Export Plug-In . SVG Version: 6.00 Build 0)  -->
<svg version="1.1" id="Layer_1" xmlns="http://www.w3.org/2000/svg" xmlns:xlink="http://www.w3.org/1999/xlink" x="0px" y="0px"
	 viewBox="0 0 276 115" style="enable-background:new 0 0 276 115;" xml:space="preserve">
<style type="text/css">
	.st0{fill:#1D1D1B;}
	.st1{fill:#FFFFFF;}
	.st2{fill:#FFD600;}
</style>
<g>
	<path class="st0" d="M270.9,41.7c-3.9-4.7-9.9-7.3-16.3-7.3c0,0,0,0,0,0c-0.6,0-1.2,0-1.8,0.1c0.1-0.3,0.3-0.6,0.4-0.9
		c0.2-0.4,0.4-0.9,0.5-1.3c0.1-0.3,0.2-0.5,0.3-0.8c0.8-0.7,1.5-1.5,2.3-2.3c0,0,0,0,0,0c1-0.2,1.9-0.4,2.7-0.6
		c2.7-0.6,4.4-3.1,4.1-5.9c0.3-0.1,0.6-0.3,0.9-0.4l0.1,0c2.5-1.3,3.6-4.4,2.4-7c-0.2-0.5-0.6-1-0.9-1.4c0.2-1.6-0.4-3.3-1.7-4.5
		c-1.1-1-2.5-1.5-3.8-1.4c0,0,0,0-0.1,0c-0.4,0-0.8,0-1.3,0c0,0-0.1,0-0.1,0c-0.7,0.1-1.3,0.3-2,0.6c-0.5-0.4-1-0.8-1.6-1
		c-1.3-0.5-2.6-0.4-3.8,0c-0.2,0.1-0.4,0.1-0.7,0.3C250.2,7.9,250.1,8,250,8c-1.2,0.7-2.2,1.7-3,2.9c-0.1,0.1-0.2,0.3-0.2,0.4
		c-0.9,0-1.9,0.2-2.7,0.6c-0.3,0.1-0.6,0.3-1,0.6c-1.1,0.8-2,1.9-2.6,3.2c-0.3,0.6-0.6,1.4-0.9,2.3c-1.6,1.4-2.9,3.2-3.6,5.4
		c0,0.1-0.1,0.1-0.1,0.2c0,0,0,0,0,0c-0.2-0.4-0.5-0.8-0.8-1.1c-2-2.4-5-3.7-8.2-3.7c0,0,0,0,0,0c-6.1,0-11.6,4.6-12.6,10.8
		c-0.4,2-0.2,4,0.5,5.8c-1,0.3-2.1,0.7-3.2,1.2c-0.5,0.2-1.2,0.5-1.9,1c-1.4-1.4-3.2-2.3-5.3-2.7c-1.3-0.3-2.7-0.5-4.2-0.5
		c-2.7,0-5.6,1-8.2,2.7c-2-1.8-4.5-2.7-7.4-2.7c0,0,0,0,0,0c-3.1,0-6.3,0.8-9.5,2.4c-1.2,0.6-3.1,1.5-4.6,3.2
		c-3.5-3.6-8.4-5.6-13.9-5.6c0,0,0,0,0,0c-5.6,0-11.6,2.3-16.5,6.2c-1.4,1.2-3,2.7-4.5,4.6c-0.8-1.6-1.7-2.9-2.5-3.9
		c-3.6-4.3-9.2-6.8-15-6.8c0,0,0,0,0,0c-3.2,0-6.5,0.8-9.6,2.3c-1.7-1.3-4.2-2.3-7.5-2.3c0,0,0,0,0,0c-3.1,0-7.3,1.2-10.8,3
		c-0.8,0.3-1.6,0.8-2.2,1.3c-2.3-2.2-6.1-4.3-12.4-4.3c0,0,0,0,0,0c-3.6,0-7.1,1.3-10,2.9c-2.4-1.7-5.6-2.9-10.4-2.9c0,0,0,0,0,0
		c-3.3,0-6.4,0.9-8.9,2.2c-2-1.4-4.5-2.2-7.3-2.2c-2.3,0-5.2,0.7-8,1.7c0.9-1.4,1.6-3,1.9-4.7c0.6-3.3-0.3-6.5-2.3-8.9
		c-2-2.4-5-3.7-8.2-3.7c0,0,0,0,0,0c-6.1,0-11.6,4.6-12.6,10.8c-0.4,2-0.2,4,0.5,5.8c-1.6,0.5-3.3,1.2-4.8,2C2.1,38.9,0,42,0,45.6
		c0,3.1,1.7,6.1,4.3,7.6c0.5,0.3,0.9,0.5,1.4,0.6L2.5,72c-0.8,4.3,0.3,8.4,2.8,11.4c2.3,2.8,5.7,4.3,9.5,4.3c0,0,0,0,0,0
		c4.5,0,9-2.1,11.7-4.1c0.1-0.1,0.3-0.2,0.4-0.3c2,2.7,5.2,4.5,8.8,4.5c4.6,0,8.7-2.9,10.3-7.2c0.1-0.2,0.2-0.5,0.3-0.7
		c1.3,4.6,5.5,7.9,10.5,7.9c5.2,0,9.5-3.6,10.7-8.5c0.5,1.5,1.3,2.9,2.3,4.1c2.3,2.8,5.7,4.3,9.5,4.3c0,0,0,0,0,0
		c2,0,3.9-0.3,5.5-0.9l-2.4,13.4c-0.2,0.7-0.3,1.4-0.4,2.1c-0.1,0.6-0.1,1.3,0,1.9c0.5,5.4,5.3,9.6,11.2,9.6c6.1,0,11-4.9,11-11
		l2.7-15.3c0.9,0.2,1.8,0.3,2.7,0.3c5.4,0,11.3-2.2,16.1-6c1.5-1.2,3.2-2.8,4.8-4.8c0.7,1.3,1.5,2.4,2.2,3.4
		c3.9,4.7,10,7.3,16.8,7.3c0,0,0,0,0,0c4.9,0,9.8-1.4,14.1-4.1c2.8-1.8,5.3-4,7.1-6.5c0.4,2.5,1.3,4.7,2.9,6.6
		c2.3,2.7,5.7,4.2,9.5,4.2c0,0,0,0,0.1,0c3.1,0,6.3-0.9,9-2.5c2.2-1.3,7.4-4.3,7.4-9.9c0-0.4,0-0.9-0.1-1.3c0.5,0,1-0.1,1.5-0.2
		c1.9-0.3,3.8-0.6,5.6-1c-0.4,3.9,0.6,7.7,2.9,10.4c2.3,2.8,5.7,4.3,9.5,4.3c0,0,0,0,0,0c3.1,0,6.2-0.8,9-2.4c1-0.6,2.6-1.5,4-2.8
		c3.8,3.3,8.9,5.1,14.7,5.1c0,0,0,0,0,0c6.3,0,12.6-2.2,17.6-6.3c5.6-4.6,9.4-11.1,10.7-18.9C277.3,51.9,274,45.4,270.9,41.7z
		 M250.9,7.7c-0.4,0.2-0.8,0.4-1.1,0.6C250.1,8,250.5,7.8,250.9,7.7z M243.9,12c-0.5,0.3-0.9,0.6-1.2,1
		C243.1,12.6,243.5,12.3,243.9,12z M242.3,13.5c0,0-0.1,0.1-0.1,0.1C242.2,13.6,242.3,13.6,242.3,13.5z M242.7,13.1
		c-0.1,0.1-0.1,0.1-0.2,0.2C242.6,13.2,242.6,13.1,242.7,13.1z M242.5,13.3c0,0.1-0.1,0.1-0.1,0.2C242.4,13.4,242.4,13.3,242.5,13.3
		z M241.5,15.2c0,0,0-0.1,0-0.1C241.5,15.1,241.5,15.2,241.5,15.2z M241.6,14.9c0,0,0-0.1,0.1-0.1C241.6,14.8,241.6,14.9,241.6,14.9
		z M241.7,14.6c0-0.1,0-0.1,0.1-0.2C241.7,14.5,241.7,14.6,241.7,14.6z M241.8,14.4c0-0.1,0-0.1,0.1-0.2
		C241.8,14.3,241.8,14.3,241.8,14.4z M241.9,14.1c0,0,0.1-0.1,0.1-0.1C242,14,241.9,14.1,241.9,14.1z M242.1,13.9
		c0,0,0.1-0.1,0.1-0.1C242.1,13.8,242.1,13.8,242.1,13.9z"/>
	<g>
		<g>
			<g>
				<g>
					<path class="st1" d="M231.2,61.4c2.4-13.9,14.1-21.7,23.3-21.7c9.6,0,18.1,7.5,15.6,21.7c-2.5,14.1-13.4,20.8-23.1,20.8
						C237.1,82.2,228.8,75.3,231.2,61.4z M258.4,61.4c1.1-6.4,0.5-13.1-5.3-13.1c-5.8,0-8.9,6.7-10,13.1c-1.1,6.1,0.2,12.5,5.5,12.5
						C253.9,73.9,257.3,67.5,258.4,61.4z"/>
				</g>
			</g>
		</g>
		<g>
			<g>
				<g>
					<g>
						<path class="st1" d="M22.3,24.2c-3.5,0-6.8,2.8-7.4,6.4c-0.6,3.5,1.6,6.3,5.2,6.3c3.5,0,6.8-2.7,7.5-6.3
							C28.2,27,25.9,24.2,22.3,24.2z"/>
					</g>
				</g>
			</g>
			<g>
				<g>
					<g>
						<path class="st1" d="M22.9,72.4c-1.9,0-4,1.3-3.3-2.3l3.7-21.2c1.1-6.2-2.6-9.1-7.3-9.1c-2.1,0-5.6,1-8.3,2.5
							c-1.3,0.5-2.2,1.8-2.2,3.3c0,1.1,0.6,2.4,1.6,3c1.9,1.1,5.2-0.8,4.6,2.8L7.8,72.9c-0.8,4.7,1.6,9.4,7.1,9.4
							c2.9,0,6.3-1.4,8.6-3c1.1-0.8,2.4-2,2.6-3.4c0.2-1.2-0.7-2.4-1.6-3.1C23.9,72.5,23.4,72.4,22.9,72.4z"/>
					</g>
				</g>
			</g>
		</g>
		<g>
			<g>
				<g>
					<g>
						<path class="st1" d="M226.8,24.2c-3.5,0-6.8,2.8-7.4,6.4c-0.6,3.5,1.6,6.3,5.2,6.3c3.5,0,6.8-2.7,7.5-6.3
							C232.7,27,230.3,24.2,226.8,24.2z"/>
					</g>
				</g>
			</g>
			<g>
				<g>
					<g>
						<path class="st1" d="M227.3,72.4c-0.9,0.2-1.8,0.8-2.6,0.5c-1.1-0.4-0.9-1.9-0.7-2.7l3.7-21.2c1.1-6.2-2.6-9.1-7.3-9.1
							c-2.3,0-4.7,0.8-6.8,1.7c-1.7,0.7-3.5,1.7-3.7,3.7c-0.2,2,1.6,3.9,3.6,3.8c0.8,0,1.6-0.5,2.2,0.2c0.5,0.5,0.4,1.4,0.3,2.1
							l-3.8,21.5c-0.8,4.7,1.6,9.4,7.1,9.4c2.2,0,4.4-0.6,6.4-1.7c1.9-1.1,4.7-2.8,4.7-5.2c0-1.3-0.8-2.4-1.9-2.9
							C228.1,72.3,227.7,72.3,227.3,72.4z"/>
					</g>
				</g>
			</g>
		</g>
		<g>
			<g>
				<g>
					<path class="st1" d="M117.9,39.8c-3.7,0-7.5,1.5-10.8,4c-1.3-3.3-3.8-4-6.3-4c-2.2,0-5.7,1-8.5,2.6c-1.4,0.5-2.4,1.7-2.4,3.3
						c0,1.9,1.6,3.5,3.5,3.5c0.2,0,0.3,0,0.5-0.1l0,0c0,0,0,0,0,0c0.2,0,0.5-0.1,0.7-0.2c0.9-0.1,2.2,0,1.8,2.5l-8.8,50.1
						c-0.2,0.5-0.2,1-0.3,1.5l0,0.3c0,0,0,0,0,0c0,3.1,2.8,5.2,5.9,5.2c3.1,0,5.7-2.5,5.7-5.7c0-0.1,0-0.2,0-0.3l4-22.7
						c2,1.8,4.7,2.6,6.8,2.6c7.4,0,19.4-5.7,22.2-21.2C134.7,45.1,125,39.8,117.9,39.8z M119.7,61.7c-1.5,8.3-5.3,11.8-9.4,11.8
						c-2.5,0-4.7-1.2-5.8-2.4l3.6-20.3c0,0,2.6-2.7,6.4-2.7C119.2,47.9,121.1,53.8,119.7,61.7z"/>
				</g>
			</g>
		</g>
		<g>
			<g>
				<g>
					<path class="st1" d="M156.5,39.8c-7.8,0-19.8,6.2-22.5,21.6c-2.7,15.3,7.2,20.9,15.8,20.9c8.7,0,15.3-5.6,17.7-9.7
						c0.5-0.7,0.8-1.6,0.8-2.5c0-2.3-1.9-4.2-4.2-4.2c-2.6,0-3.7,2.6-5.1,4.3c-1.8,2.1-4.4,3.7-7.2,3.7c-3.4,0-7.3-1.1-6.8-8.5
						c2.1,0.5,3.8,0.5,5.6,0.5c8.5,0,18.5-2.6,19.3-7C172.2,46.5,165.3,39.8,156.5,39.8z M158.8,57c-0.2,0.9-3.6,1.3-7.1,1.3
						c-1.9,0-3.8-0.2-5.2-0.4c1.5-6.2,4.5-10,8.7-10C158.9,47.9,159.4,53.6,158.8,57z"/>
				</g>
			</g>
		</g>
		<g>
			<g>
				<g>
					<path class="st1" d="M90.3,75.3c0-1.7-1.4-3-3-3c-0.3,0-0.5,0-0.7,0.1c0,0,0,0,0,0c0,0-0.1,0.1-0.2,0.1c-0.1,0-0.2,0.1-0.3,0.1
						c-0.9,0.3-2.5,0.6-2-2.5l2.6-14.9c2.2-12.6-4.6-15.4-11.2-15.4c-3.8,0-7.9,2.2-10.4,4.5c-2-2.5-4.3-4.5-9.9-4.5
						c-4,0-7.9,2-10,4c-0.8-2.2-2.7-4-6.2-4c-2.3,0-6,1.1-8.8,2.7v0c-1,0.6-1.7,1.7-1.7,3c0,1.9,1.6,3.5,3.5,3.5c0,0,0.1,0,0.1,0
						c0,0,0,0,0,0s0.1,0,0.2-0.1c0.3,0,0.5-0.1,0.8-0.2c0.9-0.1,1.9,0.3,1.6,2.5l-4.4,25c0,0,0,0,0.1,0c0,0.1,0,0.3,0,0.4
						c0,3.1,2.5,5.6,5.6,5.6c2.6,0,4.7-1.7,5.4-4.1c0,0,0,0,0,0l0-0.2c0-0.1,0-0.2,0.1-0.4L45.9,51c0,0,0.6-0.5,1.6-1.1
						c1-0.5,2.4-1.2,4-1.2c3.2,0,4.3,2.3,3.7,5.8l-3.9,21.1c0,0.1,0,0.2,0,0.3l-0.1,0.3c0,0,0,0,0,0c0,0.2-0.1,0.4-0.1,0.6
						c0,3.1,2.5,5.6,5.6,5.6c3.1,0,5.6-2.5,5.6-5.6c0,0,0,0,0,0L66.9,51c0,0,2.6-2.3,4.8-2.3c2.7,0,4.5,1.5,3.5,7.1l-3,17.1
						c-0.8,4.7,1.6,9.4,7.1,9.4c6.2,0,9.8-4.5,9.8-4.5s0,0,0-0.1C89.8,77.2,90.3,76.3,90.3,75.3z"/>
				</g>
			</g>
		</g>
		<g>
			<g>
				<g>
					<path class="st1" d="M203.1,40.1c-0.9-0.2-1.9-0.4-3-0.4c-3.2,0-7.1,2.5-9.7,6c-0.5-3.6-2.4-6-5.9-6c-2.5,0-4.9,0.7-7.2,1.8
						c-1.6,0.8-3.5,1.7-3.8,3.7c-0.3,2,1.4,3.8,3.4,3.8c0.2,0,0.4,0,0.7-0.1c0.2,0,0.3-0.1,0.5-0.1c0.9-0.2,2.5-0.2,2,2.4l-0.8,4.3
						l-0.1,0l-1.7,10.1l-0.3,1.6h0l-1,5.9c-0.8,4.7,1.6,9.4,7.1,9.4c2.2,0,4.4-0.6,6.4-1.7c1.9-1.1,4.7-2.8,4.7-5.3
						c0-1.3-0.8-2.4-1.9-2.8c-0.4-0.2-0.8-0.2-1.1-0.1c-0.9,0.2-1.8,0.8-2.6,0.5c-1.1-0.4-0.9-1.9-0.6-2.7l0.6-3.5h0
						c0.8-4.9,1.6-9.6,1.6-9.6c0.8-4.6,4.3-8.7,9.4-7.7c1.8,0.4,3.6,0.9,5.3-0.2c1.4-0.9,2.3-2.5,2.3-4.2
						C207.3,42.5,205.5,40.5,203.1,40.1z"/>
				</g>
			</g>
		</g>
		<g>
			<g>
				<g>
					<g>
						<path class="st2" d="M246.2,31.3c-0.1,0-0.1,0-0.2,0c-0.5,0.5-0.9,1-1.3,1.6c0,0-2.5,3.4-2.8,5.7c0,0.3-0.1,0.5-0.1,0.8
							c-0.1,1.6,0.4,1.9,0.4,1.9c0.2,0.1,1.1-1,1.2-1.1c1.3-1.5,2.3-3.2,3.1-4.9c0.6-1.2,1.2-2.5,1.7-3.8c0.2-0.4,0.3-0.8,0.5-1.2
							c-0.3,0.2-0.5,0.3-0.8,0.5C246.9,31.3,246.5,31.3,246.2,31.3z"/>
					</g>
				</g>
			</g>
			<g>
				<g>
					<g>
						<path class="st2" d="M252.3,24.8c-0.1,0-0.2,0.1-0.3,0.1c-0.7,0.2-1,0.2-1.2,0.2c0,0,0,0,0,0c-0.4,0.2-0.8,0.4-1.1,0.7
							c0,0-2,1.3-2.9,2.5c-0.1,0.1-0.2,0.2-0.2,0.4c-0.7,1.4-0.5,1.8-0.5,1.8c0.1,0.1,0.9-0.3,1-0.4c1.2-0.6,2.2-1.5,3.1-2.3
							c1-0.9,1.9-1.9,2.8-2.9c0,0,0,0-0.1,0C252.7,24.8,252.5,24.8,252.3,24.8z"/>
					</g>
				</g>
			</g>
			<g>
				<g>
					<g>
						<path class="st2" d="M251.1,22.5c-0.2,0.2-0.3,0.5-0.4,0.6c-0.3,0.5-0.2,0.6-0.2,0.6c0.1,0.1,0.7-0.1,0.8-0.1
							c0.9-0.3,1.8-0.8,2.7-1.3c0.9-0.5,1.7-1.1,2.5-1.7c0,0-0.1,0-0.2,0c-0.2-0.1-0.5-0.1-0.5-0.1c-0.7-0.1-1.3,0.1-1.9,0.4
							C253.8,20.8,251.8,21.6,251.1,22.5z"/>
					</g>
				</g>
			</g>
			<g>
				<g>
					<g>
						<path class="st2" d="M260.9,17.2c-0.6-0.2-1.2-0.1-1.8,0c0,0-1.9,0.4-2.8,1.2c-0.8,0.8-0.7,1.1-0.7,1.1c0,0.1,0.7,0,0.7,0
							c0.9-0.1,1.8-0.4,2.6-0.8c0.9-0.4,1.7-0.8,2.5-1.3C261.5,17.5,261,17.2,260.9,17.2z"/>
					</g>
				</g>
			</g>
			<g>
				<g>
					<g>
						<path class="st2" d="M251.2,19.1c0.1-0.1,0.3-0.2,0.4-0.3c0.7-0.6,1.4-1.2,2-1.9c0.7-0.9,1.4-1.8,2.1-2.6c0,0-0.7,0-0.8,0
							c-0.7,0.1-1.4,0.5-1.9,1.1c0,0-0.3,0.3-0.8,0.7c-0.6,0.5-1.3,1.3-1.6,2.1c-0.5,1.2-0.2,1.5-0.2,1.5
							C250.5,19.6,251.1,19.1,251.2,19.1z"/>
					</g>
				</g>
			</g>
			<g>
				<g>
					<g>
						<path class="st2" d="M239,34.4c-0.4-0.6-0.7-1.4-0.8-2.9c-0.1-0.9,0.1-2,0.3-3.1c0-0.1,0-0.1,0-0.2c0,0.1-1,1-1.1,1.1
							c-0.9,1.2-1.3,2.7-1.4,4.2c0,0,0,0,0,0c-0.1,0.4-0.7,4.8,0.2,7.2c0.9,2.5,1.7,2.5,1.7,2.5c0.2,0,0.5-1.1,0.6-1.5
							c0-0.1,0-0.2,0-0.2c0.5-2.1,0.6-4.4,0.5-6.6C239.1,34.8,239.1,34.6,239,34.4z"/>
					</g>
				</g>
			</g>
			<g>
				<g>
					<g>
						<path class="st2" d="M240.4,34.1c0.2,0.1,0.9-1.2,0.9-1.3c0.1-0.1,0.1-0.3,0.2-0.4c0.8-1.6,1.3-3.3,1.7-5.1
							c0.1-0.4,0.2-0.9,0.3-1.3c-0.2-0.6-0.2-1.4-0.1-2.4c0.1-0.6,0.3-1.3,0.6-2c-0.3,0.2-0.9,0.5-0.9,0.5c-1,0.8-1.7,2-2.2,3.3
							c0,0-0.2,0.4-0.4,1.1c-0.5,1.3-1.2,3.5-1,5.1C239.8,33.9,240.4,34.1,240.4,34.1z"/>
					</g>
				</g>
			</g>
			<g>
				<g>
					<g>
						<path class="st2" d="M245.7,19.3c0.1-0.2,0.2-0.4,0.4-0.5c0.2-0.7,0.4-1.4,0.5-2c0,0-0.4,0.2-0.5,0.2
							c-0.4,0.3-0.7,0.7-0.9,1.1c0,0-0.7,1.3-0.7,2.2c0,0.3,0,0.5,0.1,0.6C245.2,20.1,245.6,19.5,245.7,19.3z"/>
					</g>
				</g>
			</g>
			<g>
				<g>
					<g>
						<path class="st2" d="M244.7,26.3c0.1,0.1,0.8-0.6,0.9-0.8c0,0,0,0,0,0c1.1-1.1,1.9-2.4,2.6-3.8c0.3-0.6,0.6-1.2,0.9-1.8
							c0-0.5,0.2-1,0.5-1.6c0.1-0.3,0.3-0.6,0.5-0.9c-0.3,0.1-0.9,0.2-0.9,0.2c-1,0.4-1.7,1.2-2.3,2c0,0-0.1,0.1-0.2,0.3
							c-0.5,0.7-1.9,2.7-2.2,4.1C244.2,26,244.7,26.3,244.7,26.3z"/>
					</g>
				</g>
			</g>
			<g>
				<g>
					<g>
						<path class="st2" d="M252.1,14.5c0.1-0.1,0.2-0.1,0.2-0.2c0.2-0.6,0.4-1.2,0.7-1.7c0,0-0.4,0.1-0.5,0.2c-0.4,0.2-0.7,0.6-1,1
							c0,0-0.8,1.3-0.9,2.1c0,0,0,0,0,0C251.3,15.2,251.9,14.7,252.1,14.5z"/>
					</g>
				</g>
			</g>
			<g>
				<g>
					<g>
						<path class="st2" d="M255.8,22.7c0,0-0.2,0-0.5,0c-0.1,0.1-0.3,0.2-0.4,0.3c-0.6,0.4-1.2,0.7-2,1.1c0,0,0,0,0,0
							c0.8,0.1,1.6,0,2.3-0.1c0.8-0.1,1.6-0.3,2.4-0.5c0,0-0.4-0.3-0.4-0.4C256.9,22.8,256.4,22.7,255.8,22.7z"/>
					</g>
				</g>
			</g>
			<g>
				<g>
					<g>
						<path class="st2" d="M235.4,41.7c-0.2-0.7-0.3-1.4-0.4-2.2c-0.2,0.3-0.7,1-0.8,1.1c-0.3,0.6-0.4,1.2-0.5,1.8
							c-0.1,0.8-0.1,1.7,0,2.6c0,0,0.1,1.3,0.4,2.8c0.8-1.1,1.7-2.1,2.7-3.1c-0.1-0.2-0.1-0.4-0.2-0.6
							C236.2,43.6,235.8,42.7,235.4,41.7z"/>
					</g>
				</g>
			</g>
			<g>
				<g>
					<g>
						<path class="st2" d="M254.8,18.4c0.2-0.1,0.6-0.3,0.7-0.4c0.9-0.6,1.8-1.4,2.5-2.2c0.8-0.8,1.5-1.7,2.2-2.6c0,0-0.7,0-0.8,0
							c-0.7,0.1-1.4,0.5-2,1c0,0-1.9,1.4-2.5,2.6c-0.1,0.2-0.2,0.4-0.2,0.6c-9.5,8.2-13.8,17.1-15.3,25c0.2-0.2,0.5-0.4,0.7-0.6
							C241.5,34.2,245.4,25.6,254.8,18.4z"/>
					</g>
				</g>
			</g>
		</g>
	</g>
</g>
</svg>
