<svg width="317" height="108" viewBox="0 0 317 108" fill="none" xmlns="http://www.w3.org/2000/svg">
<path d="M0 7H76C88.7026 7 99 17.2975 99 30V101H27C12.0883 101 0 88.9117 0 74V7Z" fill="#000A5E"/>
<path d="M20.864 76V30.176H36.224C40.3627 30.176 43.776 31.4133 46.464 33.888C49.1733 36.3413 50.528 39.5627 50.528 43.552C50.528 47.6053 49.1733 50.9013 46.464 53.44C43.7547 55.9573 40.128 57.216 35.584 57.216H23.552V52.384H35.968C38.72 52.384 40.96 51.5947 42.688 50.016C44.416 48.416 45.28 46.272 45.28 43.584C45.28 41.0667 44.4373 39.0187 42.752 37.44C41.0667 35.8613 38.8693 35.072 36.16 35.072H26.016V76H20.864ZM46.592 76L33.056 54.944L38.56 54.304L52.832 76H46.592ZM58.489 76V30.176H63.641V71.104H84.409V76H58.489Z" fill="white"/>
<path d="M113.864 62V16.176H129.224C133.363 16.176 136.776 17.4133 139.464 19.888C142.173 22.3413 143.528 25.5627 143.528 29.552C143.528 33.6053 142.173 36.9013 139.464 39.44C136.755 41.9573 133.128 43.216 128.584 43.216H116.552V38.384H128.968C131.72 38.384 133.96 37.5947 135.688 36.016C137.416 34.416 138.28 32.272 138.28 29.584C138.28 27.0667 137.437 25.0187 135.752 23.44C134.067 21.8613 131.869 21.072 129.16 21.072H119.016V62H113.864ZM139.592 62L126.056 40.944L131.56 40.304L145.832 62H139.592ZM154.081 62.352C152.929 62.352 151.958 61.968 151.169 61.2C150.401 60.432 150.017 59.4827 150.017 58.352C150.017 57.2427 150.401 56.3147 151.169 55.568C151.958 54.8 152.929 54.416 154.081 54.416C155.212 54.416 156.161 54.8 156.929 55.568C157.718 56.3147 158.113 57.2427 158.113 58.352C158.113 59.4827 157.718 60.432 156.929 61.2C156.161 61.968 155.212 62.352 154.081 62.352ZM180.739 62V16.176H185.891V57.104H206.659V62H180.739ZM226.572 62.864C221.729 62.864 217.687 61.1893 214.444 57.84C211.223 54.4907 209.612 50.3733 209.612 45.488C209.612 40.56 211.233 36.4427 214.476 33.136C217.719 29.808 221.751 28.144 226.572 28.144C231.393 28.144 235.425 29.8187 238.668 33.168C241.932 36.496 243.564 40.6027 243.564 45.488C243.564 50.3733 241.943 54.4907 238.7 57.84C235.479 61.1893 231.436 62.864 226.572 62.864ZM226.572 58.096C229.857 58.096 232.652 56.912 234.956 54.544C237.26 52.1547 238.412 49.136 238.412 45.488C238.412 41.7973 237.249 38.7893 234.924 36.464C232.62 34.1173 229.836 32.944 226.572 32.944C223.287 32.944 220.492 34.1173 218.188 36.464C215.905 38.8107 214.764 41.8187 214.764 45.488C214.764 49.136 215.905 52.1547 218.188 54.544C220.471 56.912 223.265 58.096 226.572 58.096ZM249.624 62V29.008H254.552V34.768L253.944 34.288H254.68C255.533 32.432 256.856 30.9493 258.648 29.84C260.44 28.7093 262.274 28.144 264.152 28.144C264.6 28.144 265.101 28.176 265.656 28.24C266.21 28.304 266.712 28.4 267.16 28.528C267.608 28.6347 267.832 28.688 267.832 28.688V33.968C267.832 33.968 267.554 33.8933 267 33.744C266.445 33.5947 265.858 33.488 265.24 33.424C264.621 33.3387 264.13 33.296 263.767 33.296C261.336 33.296 259.224 34.256 257.432 36.176C255.64 38.0747 254.744 40.5067 254.744 43.472V62H249.624ZM273.266 62V29.008H278.387V62H273.266ZM273.011 24.24L277.523 15.472H283.123L277.555 24.24H273.011ZM297.591 62.864C293.943 62.864 290.956 61.8507 288.631 59.824C286.305 57.7973 285.143 55.1627 285.143 51.92C285.143 48.6133 286.423 45.968 288.983 43.984C291.543 41.9787 294.871 40.976 298.967 40.976C300.695 40.976 302.444 41.1787 304.215 41.584C305.985 41.968 307.425 42.48 308.535 43.12V41.008C308.535 38.512 307.66 36.528 305.911 35.056C304.161 33.5627 301.996 32.816 299.415 32.816C298.028 32.816 296.844 32.9867 295.863 33.328C294.881 33.648 294.039 34.0747 293.335 34.608C292.631 35.12 291.937 35.728 291.255 36.432C290.593 37.136 290.263 37.488 290.263 37.488L286.327 34.576C286.327 34.576 286.743 34.1173 287.575 33.2C288.428 32.2613 289.409 31.408 290.519 30.64C291.628 29.8507 292.887 29.2427 294.295 28.816C295.703 28.368 297.495 28.144 299.671 28.144C303.873 28.144 307.223 29.296 309.719 31.6C312.236 33.904 313.495 37.008 313.495 40.912V62H308.567V54.416L310.263 56.912H308.439C307.329 58.768 305.804 60.2293 303.863 61.296C301.921 62.3413 299.831 62.864 297.591 62.864ZM298.039 58.16C301.047 58.16 303.543 57.0827 305.527 54.928C307.532 52.7733 308.535 50.4053 308.535 47.824V47.664C307.447 46.9173 306.103 46.3413 304.503 45.936C302.924 45.5093 301.271 45.296 299.543 45.296C296.705 45.296 294.476 45.8613 292.855 46.992C291.233 48.1013 290.423 49.744 290.423 51.92C290.423 53.8187 291.127 55.3333 292.535 56.464C293.943 57.5947 295.777 58.16 298.039 58.16Z" fill="#000A5E"/>
<path d="M114.81 98L124.818 72.062H126.762L136.752 98H134.826L126.348 75.716L125.808 74.06H125.754L125.196 75.716L116.7 98H114.81ZM118.716 90.152L119.31 88.514H131.892L132.486 90.152H118.716ZM148.913 98.504C147.197 98.504 145.697 98.066 144.413 97.19C143.141 96.302 142.265 95.138 141.785 93.698H141.281L141.731 93.032V98H140.075V72.224H141.803V84.194L141.839 84.212C142.283 82.796 143.141 81.62 144.413 80.684C145.697 79.736 147.209 79.262 148.949 79.262C151.409 79.262 153.425 80.144 154.997 81.908C156.581 83.66 157.373 85.97 157.373 88.838C157.373 91.718 156.575 94.052 154.979 95.84C153.395 97.616 151.373 98.504 148.913 98.504ZM148.733 96.92C150.689 96.92 152.327 96.194 153.647 94.742C154.967 93.29 155.627 91.328 155.627 88.856C155.627 86.384 154.979 84.434 153.683 83.006C152.387 81.566 150.749 80.846 148.769 80.846C146.741 80.846 145.061 81.578 143.729 83.042C142.397 84.494 141.731 86.396 141.731 88.748V88.946C141.731 91.346 142.379 93.278 143.675 94.742C144.983 96.194 146.669 96.92 148.733 96.92ZM169.408 98.504C166.732 98.504 164.542 97.604 162.838 95.804C161.134 93.992 160.282 91.682 160.282 88.874C160.282 86.054 161.146 83.75 162.874 81.962C164.602 80.162 166.78 79.262 169.408 79.262C172.024 79.262 174.196 80.174 175.924 81.998C177.652 83.81 178.516 86.102 178.516 88.874C178.516 91.658 177.67 93.962 175.978 95.786C174.286 97.598 172.096 98.504 169.408 98.504ZM169.408 96.92C171.52 96.92 173.272 96.176 174.664 94.688C176.068 93.2 176.77 91.262 176.77 88.874C176.77 86.498 176.062 84.566 174.646 83.078C173.242 81.59 171.496 80.846 169.408 80.846C167.308 80.846 165.55 81.584 164.134 83.06C162.73 84.536 162.028 86.474 162.028 88.874C162.028 91.274 162.724 93.218 164.116 94.706C165.508 96.182 167.272 96.92 169.408 96.92ZM190.266 106.154C188.97 106.154 187.848 105.974 186.9 105.614C185.952 105.266 185.13 104.78 184.434 104.156C183.75 103.532 183.228 102.866 182.868 102.158C182.508 101.462 182.328 101.114 182.328 101.114L183.876 100.34C183.876 100.34 184.032 100.64 184.344 101.24C184.668 101.852 185.1 102.416 185.64 102.932C186.18 103.448 186.828 103.85 187.584 104.138C188.34 104.426 189.234 104.57 190.266 104.57C192.414 104.57 194.064 103.946 195.216 102.698C196.368 101.462 196.944 99.674 196.944 97.334V93.572H196.872C196.416 94.88 195.564 96.008 194.316 96.956C193.068 97.892 191.58 98.36 189.852 98.36C187.404 98.36 185.388 97.49 183.804 95.75C182.232 94.01 181.446 91.694 181.446 88.802C181.446 85.922 182.25 83.612 183.858 81.872C185.466 80.132 187.482 79.262 189.906 79.262C191.61 79.262 193.092 79.724 194.352 80.648C195.624 81.56 196.488 82.706 196.944 84.086H197.448L197.016 84.716V79.766H198.672V97.28C198.672 100.124 197.934 102.314 196.458 103.85C194.982 105.386 192.918 106.154 190.266 106.154ZM190.068 96.794C192.096 96.794 193.764 96.062 195.072 94.598C196.38 93.122 197.034 91.172 197.034 88.748C197.034 86.324 196.386 84.404 195.09 82.988C193.794 81.56 192.132 80.846 190.104 80.846C188.112 80.846 186.456 81.554 185.136 82.97C183.828 84.374 183.174 86.318 183.174 88.802C183.174 91.334 183.828 93.302 185.136 94.706C186.444 96.098 188.088 96.794 190.068 96.794ZM209.18 98.504C207.236 98.504 205.652 97.964 204.428 96.884C203.204 95.792 202.592 94.346 202.592 92.546C202.592 90.65 203.276 89.168 204.644 88.1C206.024 87.02 207.8 86.48 209.972 86.48C211.196 86.48 212.348 86.648 213.428 86.984C214.52 87.32 215.36 87.746 215.948 88.262V86.12C215.948 84.464 215.42 83.168 214.364 82.232C213.308 81.296 211.976 80.828 210.368 80.828C209.36 80.828 208.508 80.978 207.812 81.278C207.128 81.578 206.576 81.914 206.156 82.286C205.748 82.646 205.4 82.994 205.112 83.33C204.836 83.666 204.698 83.834 204.698 83.834L203.366 82.862C203.366 82.862 203.534 82.658 203.87 82.25C204.218 81.842 204.662 81.41 205.202 80.954C205.754 80.498 206.432 80.102 207.236 79.766C208.052 79.43 209.108 79.262 210.404 79.262C212.564 79.262 214.304 79.862 215.624 81.062C216.956 82.262 217.622 83.942 217.622 86.102V98H215.948V92.96L216.578 93.986H215.894C215.414 95.27 214.568 96.344 213.356 97.208C212.156 98.072 210.764 98.504 209.18 98.504ZM209.342 96.938C211.226 96.938 212.798 96.278 214.058 94.958C215.318 93.626 215.948 91.988 215.948 90.044V89.882C215.36 89.258 214.538 88.778 213.482 88.442C212.438 88.094 211.34 87.92 210.188 87.92C208.424 87.92 207.014 88.322 205.958 89.126C204.902 89.918 204.374 91.064 204.374 92.564C204.374 93.884 204.836 94.946 205.76 95.75C206.696 96.542 207.89 96.938 209.342 96.938ZM229.791 98.504C227.319 98.504 225.291 97.622 223.707 95.858C222.135 94.082 221.349 91.76 221.349 88.892C221.349 86.012 222.159 83.69 223.779 81.926C225.399 80.162 227.433 79.28 229.881 79.28C231.609 79.28 233.097 79.748 234.345 80.684C235.605 81.608 236.451 82.748 236.883 84.104H236.919V72.224H238.665V98H236.991V93.194L237.297 93.698L236.955 93.734C236.451 95.162 235.557 96.314 234.273 97.19C232.989 98.066 231.495 98.504 229.791 98.504ZM229.971 96.938C231.987 96.938 233.661 96.212 234.993 94.76C236.337 93.308 237.009 91.346 237.009 88.874C237.009 86.438 236.355 84.494 235.047 83.042C233.739 81.59 232.071 80.864 230.043 80.864C228.087 80.864 226.437 81.584 225.093 83.024C223.749 84.452 223.077 86.408 223.077 88.892C223.077 91.364 223.737 93.326 225.057 94.778C226.377 96.218 228.015 96.938 229.971 96.938ZM251.744 98.504C249.068 98.504 246.878 97.604 245.174 95.804C243.47 93.992 242.618 91.682 242.618 88.874C242.618 86.054 243.482 83.75 245.21 81.962C246.938 80.162 249.116 79.262 251.744 79.262C254.36 79.262 256.532 80.174 258.26 81.998C259.988 83.81 260.852 86.102 260.852 88.874C260.852 91.658 260.006 93.962 258.314 95.786C256.622 97.598 254.432 98.504 251.744 98.504ZM251.744 96.92C253.856 96.92 255.608 96.176 257 94.688C258.404 93.2 259.106 91.262 259.106 88.874C259.106 86.498 258.398 84.566 256.982 83.078C255.578 81.59 253.832 80.846 251.744 80.846C249.644 80.846 247.886 81.584 246.47 83.06C245.066 84.536 244.364 86.474 244.364 88.874C244.364 91.274 245.06 93.218 246.452 94.706C247.844 96.182 249.608 96.92 251.744 96.92ZM270.82 98.504C269.596 98.504 268.54 98.342 267.652 98.018C266.776 97.694 266.014 97.226 265.366 96.614C264.73 96.002 264.25 95.354 263.926 94.67C263.602 93.986 263.44 93.644 263.44 93.644L264.988 92.924C264.988 92.924 265.132 93.212 265.42 93.788C265.72 94.364 266.122 94.904 266.626 95.408C267.13 95.912 267.724 96.302 268.408 96.578C269.104 96.842 269.944 96.974 270.928 96.974C272.452 96.974 273.646 96.632 274.51 95.948C275.386 95.252 275.824 94.352 275.824 93.248C275.824 92.24 275.452 91.454 274.708 90.89C273.964 90.314 272.572 89.78 270.532 89.288C268.396 88.772 266.812 88.106 265.78 87.29C264.748 86.474 264.232 85.388 264.232 84.032C264.232 82.664 264.82 81.53 265.996 80.63C267.172 79.718 268.684 79.262 270.532 79.262C271.552 79.262 272.452 79.394 273.232 79.658C274.012 79.91 274.696 80.282 275.284 80.774C275.884 81.266 276.334 81.782 276.634 82.322C276.934 82.85 277.084 83.114 277.084 83.114L275.59 83.834C275.59 83.834 275.458 83.618 275.194 83.186C274.942 82.742 274.594 82.334 274.15 81.962C273.706 81.59 273.178 81.308 272.566 81.116C271.966 80.924 271.276 80.828 270.496 80.828C269.104 80.828 268 81.134 267.184 81.746C266.38 82.346 265.978 83.096 265.978 83.996C265.978 84.884 266.338 85.604 267.058 86.156C267.778 86.696 269.104 87.206 271.036 87.686C273.448 88.274 275.14 88.994 276.112 89.846C277.096 90.686 277.588 91.778 277.588 93.122C277.588 94.706 276.97 96.002 275.734 97.01C274.51 98.006 272.872 98.504 270.82 98.504Z" fill="#000A5E"/>
</svg>
