<?xml version="1.0" encoding="UTF-8"?>
<svg id="Layer_1" xmlns="http://www.w3.org/2000/svg" version="1.1" viewBox="0 0 98.6 21.9">
  <!-- Generator: Adobe Illustrator 30.5.1, SVG Export Plug-In . SVG Version: 2.1.4 Build 3)  -->
  <defs>
    <style>
      .st0 {
        fill: #070707;
      }

      .st1 {
        isolation: isolate;
      }
    </style>
  </defs>
  <g id="CUSTOM-group">
    <path class="st0" d="M46.4,7.1c-.4,0-.7.3-.7.7s.3.7.7.7.7-.3.7-.7-.3-.7-.7-.7ZM48.5,5c-.4,0-.7.3-.7.7s.3.7.7.7.7-.3.7-.7-.3-.7-.7-.7ZM56.2,10.1l-5.5-8.5c-.7-1-1.8-1.6-2.9-1.6s-2.3.6-2.9,1.6l-5.5,8.5c-.4.6-.6,1.3-.6,1.9,0,1.9,1.6,3.5,3.5,3.5h11c1.9,0,3.5-1.6,3.5-3.5s-.2-1.3-.6-1.9ZM50.6,14.2h-5.6v-2.8h5.6v2.8ZM53.3,14.2h-1.3v-3.5c0-.4-.3-.7-.7-.7h-7c-.4,0-.7.3-.7.7v3.5h-1.3c-1.2,0-2.1-.9-2.1-2.1s0-.8.4-1.2l5.5-8.5c.4-.6,1.1-.9,1.8-.9s1.4.4,1.8.9l5.5,8.5c.2.3.4.8.4,1.2-.2,1.1-1.2,2.1-2.3,2.1Z"/>
  </g>
  <g class="st1">
    <path class="st0" d="M8.8,18.1h-1.2v.8h1.1v.5h-1.1v.8h1.2v.5h-1.8v-3.1h1.8v.5Z"/>
    <path class="st0" d="M10.7,20l-.4.7h-.7l.8-1.2-.8-1.2h.7l.5.8.5-.8h.7l-.8,1.2.8,1.2h-.7l-.6-.7Z"/>
    <path class="st0" d="M14.3,18.2c.6,0,1.1.5,1.1,1.3s-.5,1.3-1.1,1.3-.7-.2-.8-.4v1.5h-.6v-3.7h.6v.4c.1-.2.4-.4.8-.4ZM14.1,18.8c-.3,0-.7.3-.7.7s.3.7.7.7.7-.3.7-.7-.3-.7-.7-.7Z"/>
    <path class="st0" d="M17.5,20.8c-.7,0-1.2-.5-1.2-1.3s.5-1.3,1.2-1.3,1.2.5,1.2,1.2v.2h-1.8c0,.4.3.6.6.6s.4-.1.5-.3h.7c-.2.5-.6.9-1.2.9ZM16.9,19.3h1.2c0-.3-.3-.5-.6-.5-.3,0-.6.1-.6.5Z"/>
    <path class="st0" d="M20.3,20.7h-.6v-2.5h.6v.4c.2-.3.4-.4.8-.4v.7h-.2c-.4,0-.6.1-.6.6,0,0,0,1.2,0,1.2Z"/>
    <path class="st0" d="M22,17.6c0-.2.2-.4.4-.4s.4.2.4.4-.2.4-.4.4-.4-.2-.4-.4ZM22.1,18.3h.6v2.5h-.6v-2.5Z"/>
    <path class="st0" d="M27.3,19.4c0-.4-.2-.6-.6-.6s-.6.2-.6.6v1.4h-.6v-1.4c0-.4-.2-.6-.6-.6s-.6.2-.6.6v1.4h-.6v-2.5h.6v.3c.2-.2.4-.3.7-.3s.7.2.9.5c.2-.3.5-.5.9-.5.6,0,1,.4,1,1.1v1.5h-.5v-1.5Z"/>
    <path class="st0" d="M30.2,20.8c-.7,0-1.2-.5-1.2-1.3s.5-1.3,1.2-1.3,1.2.5,1.2,1.2v.2h-1.8c0,.4.3.6.6.6s.4-.1.5-.3h.6c-.1.5-.5.9-1.1.9ZM29.6,19.3h1.2c0-.3-.3-.5-.6-.5-.4,0-.6.1-.6.5Z"/>
    <path class="st0" d="M34.1,19.4c0-.4-.2-.6-.6-.6s-.6.2-.6.6v1.4h-.6v-2.5h.6v.3c.2-.2.4-.3.7-.3.6,0,1,.4,1,1.1v1.5h-.6v-1.5h0Z"/>
    <path class="st0" d="M36,18.8h-.3v-.5h.3v-.6h.6v.6h.6v.5h-.6v1.2c0,.2,0,.2.3.2h.3v.5h-.4c-.5,0-.8-.2-.8-.8,0,0,0-1.1,0-1.1Z"/>
    <path class="st0" d="M39.1,18.2c.4,0,.7.2.8.4v-.4h.6v2.5h-.6v-.4c0,.2-.4.4-.8.4-.6,0-1.1-.5-1.1-1.3s.5-1.2,1.1-1.2ZM39.3,18.8c-.3,0-.7.2-.7.7s.3.7.7.7.7-.3.7-.7-.4-.7-.7-.7Z"/>
    <path class="st0" d="M41.7,17.4h.6v3.3h-.6v-3.3Z"/>
    <path class="st0" d="M46.3,17.6h.6v2.2c0,.6-.4,1-1,1s-1-.4-1-1h.6c0,.3,0,.4.4.4s.4-.2.4-.4v-2.2Z"/>
    <path class="st0" d="M49.2,18.2c.4,0,.7.2.8.4v-.4h.6v2.5h-.6v-.4c0,.2-.4.4-.8.4-.6,0-1.1-.5-1.1-1.3,0-.7.5-1.2,1.1-1.2ZM49.3,18.8c-.3,0-.7.2-.7.7s.3.7.7.7.7-.3.7-.7-.3-.7-.7-.7Z"/>
    <path class="st0" d="M53.2,18.2c.6,0,1.1.5,1.1,1.3s-.5,1.3-1.1,1.3-.7-.2-.8-.4v1.5h-.6v-3.7h.6v.4c.2-.2.5-.4.8-.4ZM53.1,18.8c-.3,0-.7.3-.7.7s.3.7.7.7.7-.3.7-.7c0-.5-.4-.7-.7-.7Z"/>
    <path class="st0" d="M56.3,18.2c.4,0,.7.2.8.4v-.4h.6v2.5h-.6v-.4c0,.2-.4.4-.8.4-.6,0-1.1-.5-1.1-1.3s.5-1.2,1.1-1.2ZM56.5,18.8c-.3,0-.7.2-.7.7s.3.7.7.7.7-.3.7-.7-.4-.7-.7-.7Z"/>
    <path class="st0" d="M60.7,19.4c0-.4-.2-.6-.6-.6s-.6.2-.6.6v1.4h-.6v-2.5h.6v.3c.2-.2.4-.3.7-.3.6,0,1,.4,1,1.1v1.5h-.6v-1.5h0Z"/>
    <path class="st0" d="M63.5,20.8c-.7,0-1.2-.5-1.2-1.3s.5-1.3,1.2-1.3,1.2.5,1.2,1.2v.2h-1.8c0,.4.3.6.6.6s.4-.1.5-.3h.7c0,.5-.6.9-1.2.9ZM62.9,19.3h1.2c0-.3-.3-.5-.6-.5-.3,0-.5.1-.6.5Z"/>
    <path class="st0" d="M66.7,20.8c-.6,0-1.1-.4-1.1-.8h.6c0,.2.2.3.4.3s.4-.1.4-.3c0-.4-1.4-.2-1.4-1.1s.4-.7,1-.7,1,.3,1,.8h-.6c0-.2-.2-.3-.4-.3s-.4.1-.4.2c0,.5,1.4.2,1.4,1.1,0,.5-.3.8-.9.8Z"/>
    <path class="st0" d="M69.8,20.8c-.7,0-1.2-.5-1.2-1.3s.5-1.3,1.2-1.3,1.2.5,1.2,1.2v.2h-1.8c0,.4.3.6.6.6s.4-.1.5-.3h.7c-.2.5-.6.9-1.2.9ZM69.2,19.3h1.2c0-.3-.3-.5-.6-.5-.3,0-.5.1-.6.5Z"/>
    <path class="st0" d="M75.1,17.6c.7,0,1.3.4,1.5,1h-.7c0-.3-.4-.4-.8-.4s-.9.4-.9,1,.4,1,.9,1,.6-.1.8-.5h.7c-.2.6-.8,1-1.5,1s-1.6-.7-1.6-1.6.7-1.5,1.6-1.5Z"/>
    <path class="st0" d="M80,20.7h-.7v-.3c-.2.2-.4.3-.7.3-.6,0-1-.4-1-1.1v-1.5h.6v1.4c0,.4.2.6.6.6s.6-.2.6-.6v-1.4h.6v2.6Z"/>
    <path class="st0" d="M81,17.6c0-.2.2-.4.4-.4s.4.2.4.4,0,.4-.4.4-.4-.2-.4-.4ZM81.1,18.3h.6v2.5h-.6v-2.5Z"/>
    <path class="st0" d="M83.8,20.8c-.6,0-1.1-.4-1.1-.8h.6c0,.2.2.3.4.3s.4-.1.4-.3c0-.4-1.4-.2-1.4-1.1s.4-.7,1-.7,1,.3,1,.8h-.6c0-.2-.2-.3-.4-.3s-.4.1-.4.2c0,.5,1.4.2,1.4,1.1,0,.5-.2.8-.9.8Z"/>
    <path class="st0" d="M85.8,17.6c0-.2.2-.4.4-.4s.4.2.4.4-.2.4-.4.4-.4-.2-.4-.4ZM85.9,18.3h.6v2.5h-.6v-2.5Z"/>
    <path class="st0" d="M89.4,19.4c0-.4-.2-.6-.6-.6s-.6.2-.6.6v1.4h-.6v-2.5h.7v.3c.2-.2.4-.3.7-.3.6,0,1,.4,1,1.1v1.5h-.6v-1.5Z"/>
    <path class="st0" d="M92.2,20.8c-.7,0-1.2-.5-1.2-1.3s.5-1.3,1.2-1.3,1.2.5,1.2,1.2v.2h-1.8c0,.4.3.6.6.6s.4-.1.5-.3h.7c0,.5-.5.9-1.2.9ZM91.6,19.3h1.2c0-.3-.3-.5-.6-.5-.3,0-.5.1-.6.5Z"/>
  </g>
  <g>
    <g class="st1">
      <path class="st0" d="M6.4,14.3c-3.5,0-6.4-2.6-6.4-6.4S2.9,1.6,6.4,1.6s6.3,2.6,6.3,6.3-2.8,6.4-6.3,6.4ZM6.4,12c2.2,0,3.8-1.6,3.8-4.1s-1.5-4.1-3.8-4.1-3.8,1.6-3.8,4.1c0,2.5,1.5,4.1,3.8,4.1Z"/>
      <path class="st0" d="M26.7,1.7v12.4h-2.4l-5.6-8.5v8.5h-2.5V1.7h2.5l5.6,8.5V1.7h2.4Z"/>
      <path class="st0" d="M30.8,1.7h2.5v12.4h-2.5V1.7Z"/>
    </g>
    <g class="st1">
      <path class="st0" d="M72.9,5.5h-2.9c-.6-1-1.6-1.6-2.9-1.6-2.2,0-3.8,1.6-3.8,4s1.6,4.1,3.9,4.1,3.1-1.1,3.5-2.9h-4.3v-1.9h6.7v2.2c-.5,2.5-2.8,4.8-6.1,4.8s-6.3-2.6-6.3-6.3,2.7-6.3,6.3-6.3c2.9,0,5.1,1.4,5.9,3.9Z"/>
      <path class="st0" d="M76.6,1.7h2.5v12.4h-2.5V1.7Z"/>
      <path class="st0" d="M87.8,1.7c3,0,4.5,1.7,4.5,3.8s-.8,3-2.8,3.6l3,5h-2.9l-2.7-4.8h-1.2v4.8h-2.5V1.7h4.6ZM87.7,3.8h-2.1v3.6h2.1c1.4,0,2-.7,2-1.8s-.6-1.8-2-1.8Z"/>
      <path class="st0" d="M96.1,1.7h2.5v12.4h-2.5V1.7Z"/>
    </g>
  </g>
</svg>