<?xml version="1.0" encoding="UTF-8"?>
<svg id="Layer_2" data-name="Layer 2" xmlns="http://www.w3.org/2000/svg" viewBox="0 0 1711.27 320.43">
  <defs>
    <style>
      .cls-1 {
        fill: #2b8042;
      }

      .cls-2 {
        fill: none;
      }

      .cls-3 {
        fill: #fabd14;
      }

      .cls-4 {
        fill: #48a648;
      }
    </style>
  </defs>
  <g id="Layer_1-2" data-name="Layer 1">
    <g>
      <rect class="cls-2" width="1711.27" height="320.43"/>
      <g>
        <path class="cls-4" d="M148.34,18.19c-24.79,1.08-49.82,9.3-70.82,23.26-29.41,19.52-50.95,49.67-59.21,82.92-7.43,29.85-5.26,61.03,6.1,89.02,16.13,39.64,51.59,71.51,92.8,83.51,28.38,8.26,60.54,7.18,88.43-3,22.87-8.31,46.18-25.03,61.57-44.16,13.48-16.72,23.51-37.57,27.98-58.23,3.89-17.66,4.48-39.59,1.62-56.36-6.3-36.64-26.51-68.9-57-90.98-18.34-13.28-40.62-22.08-63.44-25.08-6.49-.84-19.57-1.28-28.03-.89ZM166.1,35.3c21.93,1.72,41.85,8.51,59.41,20.21,8.31,5.51,13.03,9.39,19.72,16.03,19.28,19.08,30.74,41.66,35.02,69,1.28,8.11,1.28,29.26-.05,37.62-4.13,27.15-16.13,51.05-35.21,70.13-3.64,3.64-8.31,7.97-10.33,9.59-15.39,12.15-35.02,21.44-52.62,24.98-6.54,1.33-12.3,2.07-12.3,1.62,0-.54,3.39-8.16,5.66-12.64,1.28-2.56,5.61-10.52,9.59-17.7,13.77-24.79,27.64-51.64,31.72-61.48,2.16-5.21,2.31-4.52.49,2.31-3.34,12.44-8.61,26.56-16.57,44.16-5.02,11.11-12.49,26.16-14.36,28.92-.69.98-1.13,1.82-.98,1.82.74,0,8.56-4.38,12.15-6.79,9-6,15.3-12.34,21.59-21.69,10.38-15.49,15.3-31.67,18.1-59.61,2.75-27.74,6.84-41.11,17.46-57.15l.89-1.43-1.92.34c-3,.54-10.38,3.15-14.7,5.21-12.3,5.85-24.25,15.84-33.2,27.74-12.15,16.23-19.77,30.1-27.1,49.43-7.28,19.18-11.16,42.05-11.31,66.39,0,4.18-.2,6.74-.44,6.15-.2-.54-.98-4.33-1.72-8.36-7.23-39.05-22.33-71.61-46.82-100.82-7.33-8.8-16.62-18.49-21.05-22.03-9.39-7.52-20.07-13.62-28.77-16.33-4.48-1.38-14.16-3.2-17.21-3.2h-1.87l3.44,3.3c12.79,12.3,20.16,28.72,22.03,49.08,1.97,21.44,4.82,34.72,9.79,45.74,8.07,17.95,20.85,32.56,35.11,40.28,4.43,2.36,12.89,5.85,13.62,5.61.49-.15-3-10.72-6.79-20.56-4.92-12.84-12.15-28.48-20.21-43.77-3.2-6.1-5.75-11.16-5.66-11.26.2-.25,2.16,2.02,6.3,7.33,11.7,15.15,23.75,36.98,30.74,55.72,2.61,6.98,6.59,20.16,7.18,23.8q.34,2.11-1.08,1.87c-.74-.1-3.69-.59-6.54-1.03-45.34-7.03-85.13-40.77-99.59-84.54-7.13-21.39-8.31-44.85-3.39-67.13,2.95-13.38,9.54-29.21,16.82-40.33,16.67-25.48,43.23-44.9,71.9-52.57,14.11-3.74,28.82-5.11,43.08-3.98Z"/>
        <path class="cls-3" d="M149.47,51.74c-5.16,1.67-11.79,6.17-15.53,10.53-3.39,4-3.24,4.2,4.4,5.21,4.81.66,5.82.25,6.48-2.73.4-1.97,2.13-5.36,2.68-5.36,1.16,0,1.62,1.52,1.27,4.66-.46,4.6-.25,4.71,7.79,4.25,4.15-.25,6.68-.61,7.08-1.01.56-.56.56-1.21.05-3.8-.51-2.38-.51-3.24-.05-3.69.86-.86,1.82.56,3.14,4.55,1.32,3.85,1.72,4,8.1,2.88,5.26-.91,5.57-1.01,5.57-1.97,0-1.21-9.26-9.61-12.45-11.28-6.02-3.19-12.85-4-18.52-2.23Z"/>
        <path class="cls-3" d="M127.66,72.03c-1.77,1.57-6.43,9.97-6.43,11.64,0,.51.25,1.11.56,1.32s4.1.76,8.45,1.32c10.02,1.21,9.61,1.37,10.93-5.72.51-2.88.96-5.92,1.01-6.73h0c.03-.87-.59-1.62-1.45-1.75l-4.32-.68c-7.39-1.11-6.78-1.16-8.75.61Z"/>
        <path class="cls-3" d="M175.63,71.32c-6.17.96-6.22,1.06-5.11,6.88,1.21,6.58,1.72,8.35,2.48,8.65,1.11.4,16.5-1.52,17.26-2.18.61-.46.66-.91.25-1.92-1.06-2.78-4.15-8.5-5.62-10.37-1.72-2.13-2.02-2.18-9.26-1.06Z"/>
        <path class="cls-3" d="M148.2,73.8c-1.27.86-1.82,2.58-2.73,8.5-.51,3.34-.51,4.1.1,4.66,1.42,1.42,20.85,1.47,21.35.05.51-1.32-1.16-11.23-2.13-12.45-.91-1.21-1.11-1.27-8.2-1.42-5.92-.1-7.49,0-8.4.66Z"/>
        <path class="cls-3" d="M118.55,91.2c-.33.36-.56.82-.79,1.33-.88,1.94-1.61,3.96-2.32,5.98-.45,1.27-.87,2.55-1.25,3.85-.22.74-.54,1.58-.54,2.36,0,1.84,1.67,2.03,3.22,2.3,2.61.45,5.25.73,7.89.99s5.16.6,7.75.65c1.17.02,2.99.12,3.82-.87.39-.47.44-1.09.56-1.66.14-.71.28-1.41.4-2.12.47-2.76.9-5.53,1.27-8.3.12-.88.6-2.24-.2-2.89-.96-.78-2.33-.95-3.52-1.09-3.91-.47-7.81-1.09-11.74-1.36-1.1-.08-2.26-.21-3.33.1-.53.15-.91.41-1.21.74Z"/>
        <path class="cls-3" d="M180.84,91.2c-3.54.46-6.68,1.06-6.93,1.32-.4.4-.25,2.73.46,7.59,1.27,8.75,1.57,9.16,6.58,8.65,8.35-.81,16.5-1.97,17.1-2.43.96-.81.76-1.92-1.47-8.1-2.83-7.94-2.88-8-6.43-7.94-1.57.05-5.77.46-9.31.91Z"/>
        <path class="cls-3" d="M144.66,93.89c-.91.96-1.16,2.33-1.72,7.89-.56,5.82-.56,6.83.1,7.24.4.25,6.43.4,13.86.3l11.64-.09c.83,0,1.5-.7,1.47-1.53h0c-.2-5.11-1.42-13.56-2.07-14.22-.61-.56-2.78-.71-11.49-.71-10.53,0-10.78.05-11.79,1.11Z"/>
        <path class="cls-3" d="M112.07,112.51c-1.21.71-1.82,2.53-3.24,9.36-1.62,7.84-1.87,7.49,7.59,8.8,10.63,1.47,15.99,1.77,17.1.96.71-.51,1.01-2.23,1.67-8.45.15-1.43.29-2.86.45-4.28.14-1.19.6-2.77-.14-3.85-.39-.57-1.61-.6-2.23-.72-.95-.18-1.9-.33-2.86-.46-1.91-.26-3.83-.43-5.75-.66-11.84-1.37-11.54-1.32-12.6-.71Z"/>
        <path class="cls-3" d="M196.56,112.08c-.55.08-1.1.19-1.65.29-3.17.58-6.39.84-9.6,1.16-1.62.16-3.24.33-4.85.57-1.29.19-3.18.11-3.56,1.67-.12.5-.08,1.02-.04,1.54.31,4.09.63,8.17.94,12.26.11,1.47.6,2.5,2.21,2.6,1.38.09,2.78-.09,4.15-.25,6.11-.71,12.21-1.42,18.27-2.45.5-.08,1.03-.19,1.36-.57.28-.32.35-.77.37-1.19.06-1.11-.11-2.22-.32-3.31-.41-2.15-.95-4.28-1.5-6.39-.35-1.33-.71-2.67-1.19-3.96-.19-.5-.4-1-.79-1.36-.39-.36-.92-.54-1.45-.63-.78-.13-1.57-.08-2.35.03Z"/>
        <path class="cls-3" d="M142.28,115.19c-1.11.81-1.57,3.44-2.07,11.28-.35,5.57-.35,5.67.76,6.27.86.46,5.01.56,15.74.46,12.09-.15,14.73-.35,15.33-.96,1.11-1.16-.2-16.09-1.52-17.05-1.32-.96-26.92-.96-28.24,0Z"/>
        <path class="cls-3" d="M106.56,136.24c-.25.56-.71,3.09-.91,5.72l-.4,4.71,3.54,3.8c1.97,2.07,3.8,3.95,4.1,4.1.66.4,8.2,1.32,14.47,1.77,4.6.3,4.96.25,5.47-.71.55-1.03.43-2.67.48-3.79.11-2.16.14-4.32.12-6.48-.01-1.32-.04-2.65-.12-3.97-.06-1.07.39-2.96-1.03-3.3-2.34-.57-4.86-.75-7.25-1-2.58-.28-5.16-.51-7.73-.83-9.56-1.21-10.07-1.21-10.73,0Z"/>
        <path class="cls-3" d="M192.33,136.34c-4.07.55-8.14,1.04-12.23,1.45-.37.04-.77.15-.92.53-.08.2-.08.41-.09.62-.09,3.46-.13,6.95.07,10.41.07,1.26.14,2.52.27,3.78.08.8.05,1.81.57,2.47.41.52,1.12.71,1.78.72.82.02,1.65-.11,2.48-.15,2.05-.11,4.09-.3,6.13-.5,7.79-.76,9.11-1.01,9.87-1.92.46-.56,2.18-2.58,3.74-4.45l2.88-3.49-.35-4c-.51-6.12-.76-6.53-3.95-6.48-3.44.12-6.86.54-10.27,1.01Z"/>
        <path class="cls-3" d="M139.73,139.42c-.48.89-.64,2.09-.74,2.92-.22,1.71-.15,3.44-.14,5.16,0,1.6-.04,3.2-.09,4.8-.02.78-.05,1.56-.08,2.34-.02.59-.23,1.33.27,1.77.3.27.71.38,1.1.46,2.05.45,4.15.54,6.24.59,3.81.1,7.63.09,11.44.03,3.62-.05,7.24-.14,10.85-.37,1.03-.07,2.06-.14,3.08-.27.4-.05,1.09-.05,1.42-.33.81-.66.86-1.57.66-8.7-.2-5.31-.51-8.25-.91-8.75-.56-.66-2.93-.76-16.5-.76-2.73,0-5.46,0-8.19-.01-1.29,0-2.58,0-3.87-.03-1.1-.03-2.47-.34-3.52.11-.46.2-.79.57-1.04,1.04Z"/>
        <path class="cls-3" d="M119.71,161.59c0,.3,1.77,2.83,3.95,5.52,2.23,2.73,4.86,6.22,5.97,7.79,1.06,1.57,2.28,2.83,2.63,2.88.86,0,.86-14.32,0-15.08-.35-.25-2.48-.66-4.71-.81-2.23-.2-4.91-.46-5.92-.61-1.32-.2-1.92-.1-1.92.3Z"/>
        <path class="cls-3" d="M185.5,161.69c-3.29.3-5.01.71-5.41,1.27s-.51,3.09-.3,9.16c.25,7.94.61,10.22,1.62,10.22.25,0,1.97-2.68,3.85-5.97,1.92-3.24,4.5-7.54,5.82-9.46,1.32-1.97,2.63-4.05,2.99-4.71.56-1.06.51-1.11-1.57-1.06-1.21.05-4.35.3-6.98.56Z"/>
        <path class="cls-3" d="M139.06,163.09c-.96.73-.71,2.7-.79,3.75-.13,1.67-.13,3.35-.19,5.03-.25,7.44-.2,8.55.56,9.72l.39.6c.29.44.79.71,1.32.7l15.75-.14c13.16-.1,16.75-.3,17.41-.86.76-.56.86-1.87.86-8.86,0-4.45-.15-8.65-.3-9.26-.18-.69-.8-1.16-1.51-1.16,0,0-15.85,0-15.85,0-3.02,0-6.04-.04-9.06,0-1.55.02-3.1.05-4.64.11-.77.03-1.55.07-2.32.11-.6.04-1.21-.06-1.62.26Z"/>
        <path class="cls-3" d="M140.71,188.92c-.15.25,1.42,3.24,3.44,6.68,2.07,3.44,4.6,7.89,5.72,9.87l1.97,3.69h18.27l2.28-4.96c2.18-4.76,2.23-5.06,2.13-9.61-.05-2.78-.35-5.01-.71-5.46-.46-.61-3.34-.71-16.7-.71-9.66,0-16.19.2-16.39.51Z"/>
        <path class="cls-3" d="M155.13,215.58c0,.71,7.29,18.37,7.59,18.37.35,0,5.46-17.86,5.21-18.37-.1-.2-3.04-.35-6.53-.35s-6.27.15-6.27.35Z"/>
      </g>
      <g>
        <path class="cls-1" d="M350.01,245.08V108.42h54.76c10.21,0,19.26,1.77,27.14,5.32,7.87,3.55,14.07,8.71,18.6,15.47,4.52,6.77,6.78,14.9,6.78,24.4s-2.08,17.8-6.25,24.5c-4.17,6.7-10.22,11.81-18.16,15.33-7.94,3.51-17.57,5.27-28.89,5.27h-21.57v46.37h-32.41ZM382.42,171.58h20.79c6.83,0,12.15-1.35,15.96-4.05,3.81-2.7,5.71-7.17,5.71-13.42s-1.97-10.79-5.91-13.62c-3.94-2.83-9.13-4.25-15.57-4.25h-20.99v35.34Z"/>
        <path class="cls-1" d="M475.54,245.08v-99.57h32.02v11.62c2.99-5.14,6.96-8.88,11.91-11.23,4.94-2.34,10.31-3.51,16.11-3.51,2.21,0,4.2.13,5.95.39,1.76.26,3.48.55,5.17.88l-3.81,32.9c-2.21-.78-4.56-1.41-7.03-1.9-2.47-.49-4.95-.73-7.42-.73-6.05,0-11.05,1.74-14.98,5.22-3.94,3.48-5.91,8.58-5.91,15.28v50.66h-32.02Z"/>
        <path class="cls-1" d="M607.71,248.01c-10.87,0-20.47-2.39-28.8-7.17-8.33-4.78-14.86-11.18-19.57-19.18-4.72-8-7.08-16.79-7.08-26.36,0-6.96,1.35-13.62,4.05-19.96,2.7-6.34,6.52-11.97,11.47-16.89,4.94-4.91,10.8-8.79,17.57-11.62,6.77-2.83,14.22-4.25,22.35-4.25,10.87,0,20.46,2.39,28.8,7.17,8.33,4.78,14.84,11.18,19.52,19.18,4.69,8,7.03,16.79,7.03,26.35,0,6.96-1.34,13.62-4,19.96-2.67,6.34-6.48,11.96-11.42,16.84-4.94,4.88-10.8,8.75-17.57,11.62-6.77,2.86-14.22,4.3-22.35,4.3ZM607.71,220.48c4.55,0,8.65-1.02,12.3-3.07,3.64-2.05,6.51-4.96,8.59-8.74,2.08-3.77,3.12-8.23,3.12-13.38s-1.02-9.68-3.07-13.42c-2.05-3.74-4.9-6.64-8.54-8.69-3.64-2.05-7.78-3.07-12.4-3.07s-8.75,1.02-12.4,3.07c-3.65,2.05-6.51,4.95-8.59,8.69-2.08,3.74-3.12,8.22-3.12,13.42s1.06,9.6,3.17,13.38c2.11,3.77,4.99,6.69,8.64,8.74,3.64,2.05,7.74,3.07,12.3,3.07Z"/>
        <path class="cls-1" d="M681.79,245.08v-99.57h32.02v12.3c2.41-3.38,5.24-6.2,8.49-8.44,3.25-2.24,6.74-3.94,10.44-5.08,3.71-1.14,7.45-1.71,11.23-1.71,7.29,0,13.58,1.65,18.89,4.93,5.3,3.29,8.93,7.7,10.88,13.23,3.9-6.31,9.14-10.92,15.72-13.81,6.57-2.89,13.57-4.34,20.99-4.34,9.63,0,17.21,1.84,22.74,5.52,5.53,3.68,9.45,8.43,11.76,14.25,2.31,5.82,3.47,11.99,3.47,18.5v64.23h-32.02v-55.05c0-5.6-1.46-10.07-4.39-13.42-2.93-3.35-7.19-5.03-12.79-5.03-3.51,0-6.64.75-9.37,2.24-2.73,1.5-4.86,3.5-6.39,6s-2.29,5.32-2.29,8.44v56.81h-32.02v-55.05c0-5.6-1.48-10.07-4.44-13.42-2.96-3.35-7.21-5.03-12.74-5.03-3.58,0-6.73.75-9.47,2.24-2.73,1.5-4.87,3.5-6.39,6-1.53,2.51-2.29,5.32-2.29,8.44v56.81h-32.02Z"/>
        <path class="cls-1" d="M915.38,248.01c-9.37,0-17.77-2.2-25.18-6.59-7.42-4.39-13.28-10.54-17.57-18.45-4.29-7.91-6.44-17.13-6.44-27.67,0-7.94,1.24-15.14,3.71-21.62,2.47-6.47,5.92-12.02,10.35-16.64,4.42-4.62,9.63-8.18,15.62-10.69,5.99-2.51,12.49-3.76,19.52-3.76,9.24,0,17.12,2,23.62,6,6.51,4,11.16,9.32,13.96,15.96l-4.39,6.93v-25.96h27.53v99.57h-27.53v-25.96l4.39,6.83c-2.8,6.64-7.45,11.98-13.96,16.01-6.51,4.04-14.38,6.05-23.62,6.05ZM920.84,220.48c4.42,0,8.41-1.02,11.96-3.07,3.55-2.05,6.36-4.96,8.44-8.74,2.08-3.77,3.12-8.23,3.12-13.38s-1.04-9.68-3.12-13.42c-2.08-3.74-4.9-6.64-8.44-8.69-3.55-2.05-7.53-3.07-11.96-3.07s-8.4,1.02-11.91,3.07c-3.51,2.05-6.31,4.95-8.39,8.69-2.08,3.74-3.12,8.22-3.12,13.42s1.04,9.6,3.12,13.38c2.08,3.77,4.88,6.69,8.39,8.74,3.51,2.05,7.48,3.07,11.91,3.07Z"/>
        <path class="cls-1" d="M1049.89,248.01c-10.54,0-19.96-2.29-28.26-6.88-8.3-4.59-14.86-10.87-19.67-18.84-4.82-7.97-7.22-16.97-7.22-26.99,0-7.55,1.42-14.51,4.25-20.89,2.83-6.38,6.81-11.96,11.96-16.74,5.14-4.78,11.13-8.49,17.96-11.13,6.83-2.64,14.25-3.95,22.26-3.95,7.55,0,14.54,1.02,20.99,3.07,6.44,2.05,12.23,5.12,17.38,9.23l-14.06,23.72c-3.19-2.93-6.69-5.08-10.49-6.44-3.81-1.37-7.79-2.05-11.96-2.05-5.47,0-10.19.98-14.15,2.93-3.97,1.95-7.01,4.82-9.13,8.59-2.12,3.77-3.17,8.3-3.17,13.57,0,7.94,2.36,14.14,7.08,18.6,4.72,4.46,11.21,6.69,19.47,6.69,4.69,0,9.09-.86,13.23-2.59,4.13-1.72,7.92-4.25,11.37-7.57l12.98,24.21c-5.6,4.17-11.99,7.45-19.18,9.86-7.19,2.4-14.4,3.61-21.62,3.61Z"/>
        <path class="cls-1" d="M1146.62,248.01c-9.37,0-17.77-2.2-25.18-6.59-7.42-4.39-13.28-10.54-17.57-18.45s-6.44-17.13-6.44-27.67c0-7.94,1.24-15.14,3.71-21.62,2.47-6.47,5.92-12.02,10.35-16.64,4.42-4.62,9.63-8.18,15.62-10.69,5.99-2.51,12.49-3.76,19.52-3.76,9.24,0,17.12,2,23.62,6,6.51,4,11.16,9.32,13.96,15.96l-4.39,6.93v-25.96h27.53v99.57h-27.53v-25.96l4.39,6.83c-2.8,6.64-7.45,11.98-13.96,16.01-6.51,4.04-14.38,6.05-23.62,6.05ZM1152.09,220.48c4.42,0,8.41-1.02,11.96-3.07,3.55-2.05,6.36-4.96,8.44-8.74,2.08-3.77,3.12-8.23,3.12-13.38s-1.04-9.68-3.12-13.42c-2.08-3.74-4.9-6.64-8.44-8.69-3.55-2.05-7.53-3.07-11.96-3.07s-8.4,1.02-11.91,3.07c-3.51,2.05-6.31,4.95-8.39,8.69-2.08,3.74-3.12,8.22-3.12,13.42s1.04,9.6,3.12,13.38c2.08,3.77,4.88,6.69,8.39,8.74,3.51,2.05,7.48,3.07,11.91,3.07Z"/>
        <path class="cls-1" d="M1279.4,245.08v-117.85h27.95v92.34h47.31v25.51h-75.26Z"/>
        <path class="cls-1" d="M1379.41,245.08v-92.34h-31.4v-25.51h90.91v25.51h-31.4v92.34h-28.12Z"/>
        <path class="cls-1" d="M1456.01,245.08v-117.85h40.41c12.23,0,22.97,2.5,32.2,7.49,9.23,5,16.43,11.91,21.59,20.75,5.16,8.84,7.75,19.07,7.75,30.68,0,8.76-1.47,16.74-4.42,23.95-2.95,7.21-7.14,13.43-12.58,18.65-5.45,5.22-11.93,9.25-19.45,12.08-7.52,2.84-15.88,4.25-25.09,4.25h-40.41ZM1483.95,219.07h11.03c5.05,0,9.62-.7,13.72-2.1,4.1-1.4,7.65-3.51,10.65-6.31,3-2.81,5.3-6.26,6.9-10.35,1.6-4.1,2.4-8.81,2.4-14.14,0-7.13-1.4-13.14-4.21-18.05-2.81-4.91-6.75-8.61-11.83-11.11-5.08-2.49-10.96-3.74-17.64-3.74h-11.03v65.83Z"/>
        <path class="cls-1" d="M1561.82,245.08l44.03-117.85h32.41l44.45,117.85h-31.48l-8.33-23.91h-42.26l-8.16,23.91h-30.64ZM1606.94,197.86h29.46l-14.82-40.74-14.65,40.74Z"/>
      </g>
    </g>
  </g>
</svg>