<svg width="252" height="215" viewBox="0 0 252 215" fill="none" xmlns="http://www.w3.org/2000/svg">
<circle cx="108.877" cy="107.047" r="107.047" fill="white"/>
<path d="M230.62 34.4778L238.274 49.25L251.453 47.5259C251.453 47.5259 234.446 77.6083 198.23 106.865C149.733 146.048 71.6168 184.94 0.0612372 159.575C0.0612372 159.575 64.2798 172.819 134.12 132.949C167.013 114.172 204.711 85.2615 230.623 34.4745L230.62 34.4778Z" fill="#EA221D"/>
<path d="M34.3159 78.8084L48.8552 78.6707L59.8295 118.757L72.3101 79.2184H83.9717L96.7285 119.715L107.838 78.9462H122.38L104.684 140.511H90.6938L78.0718 100.7L66.1372 140.377H51.8742L34.3159 78.8084Z" fill="#1D3B7B"/>
<path d="M126.686 79.0623H159.476C161.28 79.0623 163.079 79.3007 164.794 79.8527C166.452 80.3852 168.288 81.143 170.18 82.2438C176.962 86.1831 180.207 92.0104 181.481 94.6889C177.767 97.8998 174.052 101.107 170.341 104.318C170.141 103.022 169.681 101.078 168.492 99.0268C166.275 95.205 162.955 93.4836 161.161 92.5559C152.941 88.2932 143.508 90.7823 141.298 91.4192C141.327 102.319 141.36 113.219 141.39 124.116L127.142 132.292L126.686 79.0655V79.0623Z" fill="#1D3B7B"/>
<path d="M154.866 140.735L183.438 122.899C182.612 125.392 180.484 130.622 175.287 134.913C166.84 141.887 156.845 140.96 154.866 140.738V140.735Z" fill="#1D3B7B"/>
<path d="M162.694 154.212C162.694 149.419 166.396 145.991 171.378 145.991C174.143 145.991 176.45 146.992 177.959 148.807L175.582 150.986C174.507 149.759 173.158 149.123 171.56 149.123C168.567 149.123 166.442 151.213 166.442 154.209C166.442 157.206 168.567 159.296 171.56 159.296C173.158 159.296 174.507 158.66 175.582 157.411L177.959 159.59C176.45 161.43 174.143 162.43 171.356 162.43C166.398 162.43 162.696 159.002 162.696 154.209L162.694 154.212Z" fill="#1D3B7B"/>
<path d="M190.441 162.036L187.373 157.675H183.988V162.036H180.307V146.383H187.192C191.44 146.383 194.101 148.552 194.101 152.063C194.101 154.411 192.897 156.132 190.829 157.006L194.397 162.038H190.443L190.441 162.036ZM186.987 149.336H183.988V154.791H186.987C189.237 154.791 190.374 153.763 190.374 152.063C190.374 150.364 189.237 149.336 186.987 149.336Z" fill="#1D3B7B"/>
</svg>
