<svg width="271" height="38" viewBox="0 0 271 38" fill="none" xmlns="http://www.w3.org/2000/svg">
<path d="M167.254 30.2612H153.774C150.221 30.2612 147.295 29.1623 144.983 26.9599C142.675 24.7575 141.521 21.9873 141.521 18.6494C141.521 15.3115 142.675 12.5505 144.983 10.3664C147.29 8.18229 150.221 7.08796 153.774 7.08796H167.254V5.76927V0H153.934C147.968 0 143.06 1.75825 139.204 5.27476C135.353 8.79127 133.426 13.2144 133.426 18.5395C133.426 20.1329 133.604 21.6485 133.957 23.0862C134.886 26.2044 135.756 27.546 135.756 27.546C136.677 29.1211 137.872 30.5771 139.337 31.9096C143.279 35.4993 148.234 37.2896 154.2 37.2896H167.254V30.7649V30.2566V30.2612Z" fill="#2F52A0"/>
<path d="M92.3587 30.2612H78.8788C75.3256 30.2612 72.3998 29.1623 70.0875 26.9599C67.7798 24.7575 66.6259 21.9873 66.6259 18.6494C66.6259 15.3115 67.7798 12.5505 70.0875 10.3664C72.3952 8.18229 75.3256 7.08796 78.8788 7.08796H92.3587V5.76927V0H79.039C73.0729 0 68.1644 1.75825 64.3091 5.27476C60.4583 8.79127 58.5306 13.2144 58.5306 18.5395C58.5306 20.1329 58.7092 21.6485 59.0618 23.0862C59.9913 26.2044 60.8612 27.546 60.8612 27.546C61.7816 29.1211 62.9766 30.5771 64.4419 31.9096C68.3842 35.4993 73.3384 37.2896 79.3046 37.2896H92.3587V30.7649V30.2566V30.2612Z" fill="#2F52A0"/>
<path d="M38.7961 27.1247L31.0946 37.2942H21.6669L34.1212 20.8472L38.7961 27.1247ZM35.971 18.3976L40.9527 11.8133L49.9042 0H59.332L45.6322 18.0999L59.918 37.2942H50.0645L40.6551 24.6751L35.9756 18.4021L35.971 18.3976ZM34.112 15.9113L22.253 0H32.1614L39.1258 9.35904L34.1074 15.9113H34.112Z" fill="#2F52A0"/>
<path d="M27.3994 24.6751L17.99 37.2942H8.13647L22.4223 18.0999L8.71798 0H18.1457L27.0926 11.8178L32.0744 18.4021L27.3948 24.6751H27.3994Z" fill="#2F52A0"/>
<path d="M207.707 23.0862C208.06 21.6485 208.239 20.1329 208.239 18.5395C208.239 13.2098 206.311 8.79127 202.46 5.27476C198.605 1.75825 193.696 0 187.73 0H174.411V37.2942H187.465C193.431 37.2942 198.385 35.4993 202.327 31.9141C203.793 30.5817 204.988 29.1257 205.908 27.5506C205.908 27.5506 206.778 26.209 207.707 23.0908V23.0862ZM187.89 30.2612H182.561V7.08796H187.89C191.444 7.08796 194.369 8.18229 196.682 10.3664C198.989 12.5505 200.143 15.3115 200.143 18.6494C200.143 21.9873 198.989 24.7575 196.682 26.9599C194.374 29.1623 191.444 30.2612 187.89 30.2612Z" fill="#2F52A0"/>
<path d="M18.2831 19.991C19.0696 19.991 19.7071 19.3534 19.7071 18.567C19.7071 17.7805 19.0696 17.143 18.2831 17.143C17.4967 17.143 16.8591 17.7805 16.8591 18.567C16.8591 19.3534 17.4967 19.991 18.2831 19.991Z" fill="#85CEE4"/>
<path d="M14.5743 19.991C15.3607 19.991 15.9983 19.3534 15.9983 18.567C15.9983 17.7805 15.3607 17.143 14.5743 17.143C13.7878 17.143 13.1503 17.7805 13.1503 18.567C13.1503 19.3534 13.7878 19.991 14.5743 19.991Z" fill="#85CEE4"/>
<path d="M15.3892 23.6128C16.1757 23.6128 16.8132 22.9753 16.8132 22.1888C16.8132 21.4023 16.1757 20.7648 15.3892 20.7648C14.6028 20.7648 13.9652 21.4023 13.9652 22.1888C13.9652 22.9753 14.6028 23.6128 15.3892 23.6128Z" fill="#85CEE4"/>
<path d="M11.6805 23.6128C12.4669 23.6128 13.1045 22.9753 13.1045 22.1888C13.1045 21.4023 12.4669 20.7648 11.6805 20.7648C10.894 20.7648 10.2565 21.4023 10.2565 22.1888C10.2565 22.9753 10.894 23.6128 11.6805 23.6128Z" fill="#85CEE4"/>
<path d="M12.9534 26.9416C13.7399 26.9416 14.3774 26.304 14.3774 25.5176C14.3774 24.7311 13.7399 24.0936 12.9534 24.0936C12.167 24.0936 11.5294 24.7311 11.5294 25.5176C11.5294 26.304 12.167 26.9416 12.9534 26.9416Z" fill="#85CEE4"/>
<path d="M9.24456 26.9416C10.031 26.9416 10.6686 26.304 10.6686 25.5176C10.6686 24.7311 10.031 24.0936 9.24456 24.0936C8.4581 24.0936 7.82056 24.7311 7.82056 25.5176C7.82056 26.304 8.4581 26.9416 9.24456 26.9416Z" fill="#85CEE4"/>
<path d="M10.3298 30.4169C11.1162 30.4169 11.7538 29.7793 11.7538 28.9929C11.7538 28.2064 11.1162 27.5689 10.3298 27.5689C9.54331 27.5689 8.90576 28.2064 8.90576 28.9929C8.90576 29.7793 9.54331 30.4169 10.3298 30.4169Z" fill="#85CEE4"/>
<path d="M6.6209 30.4169C7.40736 30.4169 8.0449 29.7793 8.0449 28.9929C8.0449 28.2064 7.40736 27.5689 6.6209 27.5689C5.83445 27.5689 5.1969 28.2064 5.1969 28.9929C5.1969 29.7793 5.83445 30.4169 6.6209 30.4169Z" fill="#85CEE4"/>
<path d="M7.58709 33.9609C8.37354 33.9609 9.01109 33.3233 9.01109 32.5369C9.01109 31.7504 8.37354 31.1129 7.58709 31.1129C6.80063 31.1129 6.16309 31.7504 6.16309 32.5369C6.16309 33.3233 6.80063 33.9609 7.58709 33.9609Z" fill="#85CEE4"/>
<path d="M3.88286 33.9609C4.66932 33.9609 5.30687 33.3233 5.30687 32.5369C5.30687 31.7504 4.66932 31.1129 3.88286 31.1129C3.09641 31.1129 2.45886 31.7504 2.45886 32.5369C2.45886 33.3233 3.09641 33.9609 3.88286 33.9609Z" fill="#85CEE4"/>
<path d="M5.13286 37.2942C5.91932 37.2942 6.55687 36.6567 6.55687 35.8702C6.55687 35.0837 5.91932 34.4462 5.13286 34.4462C4.34641 34.4462 3.70886 35.0837 3.70886 35.8702C3.70886 36.6567 4.34641 37.2942 5.13286 37.2942Z" fill="#85CEE4"/>
<path d="M1.424 37.2942C2.21046 37.2942 2.848 36.6567 2.848 35.8702C2.848 35.0837 2.21046 34.4462 1.424 34.4462C0.637547 34.4462 0 35.0837 0 35.8702C0 36.6567 0.637547 37.2942 1.424 37.2942Z" fill="#85CEE4"/>
<path d="M15.5588 16.5202C16.3452 16.5202 16.9828 15.8827 16.9828 15.0962C16.9828 14.3098 16.3452 13.6722 15.5588 13.6722C14.7723 13.6722 14.1348 14.3098 14.1348 15.0962C14.1348 15.8827 14.7723 16.5202 15.5588 16.5202Z" fill="#85CEE4"/>
<path d="M11.8545 16.5202C12.641 16.5202 13.2785 15.8827 13.2785 15.0962C13.2785 14.3098 12.641 13.6722 11.8545 13.6722C11.0681 13.6722 10.4305 14.3098 10.4305 15.0962C10.4305 15.8827 11.0681 16.5202 11.8545 16.5202Z" fill="#85CEE4"/>
<path d="M13.0678 13.1274C13.8543 13.1274 14.4918 12.4898 14.4918 11.7034C14.4918 10.9169 13.8543 10.2794 13.0678 10.2794C12.2813 10.2794 11.6438 10.9169 11.6438 11.7034C11.6438 12.4898 12.2813 13.1274 13.0678 13.1274Z" fill="#85CEE4"/>
<path d="M9.36358 13.1274C10.15 13.1274 10.7876 12.4898 10.7876 11.7034C10.7876 10.9169 10.15 10.2794 9.36358 10.2794C8.57712 10.2794 7.93958 10.9169 7.93958 11.7034C7.93958 12.4898 8.57712 13.1274 9.36358 13.1274Z" fill="#85CEE4"/>
<path d="M10.4809 9.62462C11.2673 9.62462 11.9049 8.98707 11.9049 8.20061C11.9049 7.41416 11.2673 6.77661 10.4809 6.77661C9.69443 6.77661 9.05688 7.41416 9.05688 8.20061C9.05688 8.98707 9.69443 9.62462 10.4809 9.62462Z" fill="#85CEE4"/>
<path d="M6.77666 9.62462C7.56312 9.62462 8.20067 8.98707 8.20067 8.20061C8.20067 7.41416 7.56312 6.77661 6.77666 6.77661C5.99021 6.77661 5.35266 7.41416 5.35266 8.20061C5.35266 8.98707 5.99021 9.62462 6.77666 9.62462Z" fill="#85CEE4"/>
<path d="M7.79778 6.16304C8.58424 6.16304 9.22178 5.52549 9.22178 4.73904C9.22178 3.95258 8.58424 3.31503 7.79778 3.31503C7.01133 3.31503 6.37378 3.95258 6.37378 4.73904C6.37378 5.52549 7.01133 6.16304 7.79778 6.16304Z" fill="#85CEE4"/>
<path d="M4.08892 6.16304C4.87537 6.16304 5.51292 5.52549 5.51292 4.73904C5.51292 3.95258 4.87537 3.31503 4.08892 3.31503C3.30246 3.31503 2.66492 3.95258 2.66492 4.73904C2.66492 5.52549 3.30246 6.16304 4.08892 6.16304Z" fill="#85CEE4"/>
<path d="M5.17412 2.848C5.96058 2.848 6.59813 2.21046 6.59813 1.424C6.59813 0.637547 5.96058 0 5.17412 0C4.38767 0 3.75012 0.637547 3.75012 1.424C3.75012 2.21046 4.38767 2.848 5.17412 2.848Z" fill="#85CEE4"/>
<path d="M1.46526 2.848C2.25172 2.848 2.88926 2.21046 2.88926 1.424C2.88926 0.637547 2.25172 0 1.46526 0C0.678807 0 0.0412598 0.637547 0.0412598 1.424C0.0412598 2.21046 0.678807 2.848 1.46526 2.848Z" fill="#85CEE4"/>
<path d="M269.576 19.991C270.363 19.991 271 19.3534 271 18.567C271 17.7805 270.363 17.143 269.576 17.143C268.79 17.143 268.152 17.7805 268.152 18.567C268.152 19.3534 268.79 19.991 269.576 19.991Z" fill="#2F52A0"/>
<path d="M265.867 19.991C266.654 19.991 267.291 19.3534 267.291 18.567C267.291 17.7805 266.654 17.143 265.867 17.143C265.081 17.143 264.443 17.7805 264.443 18.567C264.443 19.3534 265.081 19.991 265.867 19.991Z" fill="#2F52A0"/>
<path d="M266.682 23.6128C267.469 23.6128 268.106 22.9753 268.106 22.1888C268.106 21.4023 267.469 20.7648 266.682 20.7648C265.896 20.7648 265.258 21.4023 265.258 22.1888C265.258 22.9753 265.896 23.6128 266.682 23.6128Z" fill="#2F52A0"/>
<path d="M262.973 23.6128C263.76 23.6128 264.397 22.9753 264.397 22.1888C264.397 21.4023 263.76 20.7648 262.973 20.7648C262.187 20.7648 261.549 21.4023 261.549 22.1888C261.549 22.9753 262.187 23.6128 262.973 23.6128Z" fill="#2F52A0"/>
<path d="M264.246 26.9416C265.033 26.9416 265.67 26.304 265.67 25.5176C265.67 24.7311 265.033 24.0936 264.246 24.0936C263.46 24.0936 262.822 24.7311 262.822 25.5176C262.822 26.304 263.46 26.9416 264.246 26.9416Z" fill="#2F52A0"/>
<path d="M260.538 26.9416C261.324 26.9416 261.962 26.304 261.962 25.5176C261.962 24.7311 261.324 24.0936 260.538 24.0936C259.751 24.0936 259.114 24.7311 259.114 25.5176C259.114 26.304 259.751 26.9416 260.538 26.9416Z" fill="#2F52A0"/>
<path d="M261.623 30.4169C262.409 30.4169 263.047 29.7793 263.047 28.9929C263.047 28.2064 262.409 27.5689 261.623 27.5689C260.836 27.5689 260.199 28.2064 260.199 28.9929C260.199 29.7793 260.836 30.4169 261.623 30.4169Z" fill="#2F52A0"/>
<path d="M257.914 30.4169C258.7 30.4169 259.338 29.7793 259.338 28.9929C259.338 28.2064 258.7 27.5689 257.914 27.5689C257.127 27.5689 256.49 28.2064 256.49 28.9929C256.49 29.7793 257.127 30.4169 257.914 30.4169Z" fill="#2F52A0"/>
<path d="M258.88 33.9609C259.667 33.9609 260.304 33.3233 260.304 32.5369C260.304 31.7504 259.667 31.1129 258.88 31.1129C258.094 31.1129 257.456 31.7504 257.456 32.5369C257.456 33.3233 258.094 33.9609 258.88 33.9609Z" fill="#2F52A0"/>
<path d="M255.176 33.9609C255.962 33.9609 256.6 33.3233 256.6 32.5369C256.6 31.7504 255.962 31.1129 255.176 31.1129C254.389 31.1129 253.752 31.7504 253.752 32.5369C253.752 33.3233 254.389 33.9609 255.176 33.9609Z" fill="#2F52A0"/>
<path d="M256.426 37.2942C257.212 37.2942 257.85 36.6567 257.85 35.8702C257.85 35.0837 257.212 34.4462 256.426 34.4462C255.639 34.4462 255.002 35.0837 255.002 35.8702C255.002 36.6567 255.639 37.2942 256.426 37.2942Z" fill="#2F52A0"/>
<path d="M252.717 37.2942C253.503 37.2942 254.141 36.6567 254.141 35.8702C254.141 35.0837 253.503 34.4462 252.717 34.4462C251.931 34.4462 251.293 35.0837 251.293 35.8702C251.293 36.6567 251.931 37.2942 252.717 37.2942Z" fill="#2F52A0"/>
<path d="M266.856 16.5202C267.643 16.5202 268.28 15.8827 268.28 15.0962C268.28 14.3098 267.643 13.6722 266.856 13.6722C266.07 13.6722 265.432 14.3098 265.432 15.0962C265.432 15.8827 266.07 16.5202 266.856 16.5202Z" fill="#2F52A0"/>
<path d="M263.147 16.5202C263.934 16.5202 264.571 15.8827 264.571 15.0962C264.571 14.3098 263.934 13.6722 263.147 13.6722C262.361 13.6722 261.723 14.3098 261.723 15.0962C261.723 15.8827 262.361 16.5202 263.147 16.5202Z" fill="#2F52A0"/>
<path d="M264.361 13.1274C265.147 13.1274 265.785 12.4898 265.785 11.7034C265.785 10.9169 265.147 10.2794 264.361 10.2794C263.574 10.2794 262.937 10.9169 262.937 11.7034C262.937 12.4898 263.574 13.1274 264.361 13.1274Z" fill="#2F52A0"/>
<path d="M260.657 13.1274C261.443 13.1274 262.081 12.4898 262.081 11.7034C262.081 10.9169 261.443 10.2794 260.657 10.2794C259.87 10.2794 259.233 10.9169 259.233 11.7034C259.233 12.4898 259.87 13.1274 260.657 13.1274Z" fill="#2F52A0"/>
<path d="M261.774 9.62462C262.56 9.62462 263.198 8.98707 263.198 8.20061C263.198 7.41416 262.56 6.77661 261.774 6.77661C260.987 6.77661 260.35 7.41416 260.35 8.20061C260.35 8.98707 260.987 9.62462 261.774 9.62462Z" fill="#2F52A0"/>
<path d="M258.07 9.62462C258.856 9.62462 259.494 8.98707 259.494 8.20061C259.494 7.41416 258.856 6.77661 258.07 6.77661C257.283 6.77661 256.646 7.41416 256.646 8.20061C256.646 8.98707 257.283 9.62462 258.07 9.62462Z" fill="#2F52A0"/>
<path d="M259.09 6.16304C259.877 6.16304 260.515 5.52549 260.515 4.73904C260.515 3.95258 259.877 3.31503 259.09 3.31503C258.304 3.31503 257.667 3.95258 257.667 4.73904C257.667 5.52549 258.304 6.16304 259.09 6.16304Z" fill="#2F52A0"/>
<path d="M255.382 6.16304C256.168 6.16304 256.806 5.52549 256.806 4.73904C256.806 3.95258 256.168 3.31503 255.382 3.31503C254.595 3.31503 253.958 3.95258 253.958 4.73904C253.958 5.52549 254.595 6.16304 255.382 6.16304Z" fill="#2F52A0"/>
<path d="M256.467 2.848C257.253 2.848 257.891 2.21046 257.891 1.424C257.891 0.637547 257.253 0 256.467 0C255.681 0 255.043 0.637547 255.043 1.424C255.043 2.21046 255.681 2.848 256.467 2.848Z" fill="#2F52A0"/>
<path d="M252.758 2.848C253.545 2.848 254.182 2.21046 254.182 1.424C254.182 0.637547 253.545 0 252.758 0C251.972 0 251.334 0.637547 251.334 1.424C251.334 2.21046 251.972 2.848 252.758 2.848Z" fill="#2F52A0"/>
<path d="M260.231 19.991C261.017 19.991 261.655 19.3534 261.655 18.567C261.655 17.7805 261.017 17.143 260.231 17.143C259.444 17.143 258.807 17.7805 258.807 18.567C258.807 19.3534 259.444 19.991 260.231 19.991Z" fill="#0075B3"/>
<path d="M256.522 19.991C257.308 19.991 257.946 19.3534 257.946 18.567C257.946 17.7805 257.308 17.143 256.522 17.143C255.735 17.143 255.098 17.7805 255.098 18.567C255.098 19.3534 255.735 19.991 256.522 19.991Z" fill="#0075B3"/>
<path d="M257.332 23.6128C258.119 23.6128 258.756 22.9753 258.756 22.1888C258.756 21.4023 258.119 20.7648 257.332 20.7648C256.546 20.7648 255.908 21.4023 255.908 22.1888C255.908 22.9753 256.546 23.6128 257.332 23.6128Z" fill="#0075B3"/>
<path d="M253.628 23.6128C254.415 23.6128 255.052 22.9753 255.052 22.1888C255.052 21.4023 254.415 20.7648 253.628 20.7648C252.842 20.7648 252.204 21.4023 252.204 22.1888C252.204 22.9753 252.842 23.6128 253.628 23.6128Z" fill="#0075B3"/>
<path d="M254.901 26.9416C255.688 26.9416 256.325 26.304 256.325 25.5176C256.325 24.7311 255.688 24.0936 254.901 24.0936C254.115 24.0936 253.477 24.7311 253.477 25.5176C253.477 26.304 254.115 26.9416 254.901 26.9416Z" fill="#0075B3"/>
<path d="M251.192 26.9416C251.979 26.9416 252.616 26.304 252.616 25.5176C252.616 24.7311 251.979 24.0936 251.192 24.0936C250.406 24.0936 249.768 24.7311 249.768 25.5176C249.768 26.304 250.406 26.9416 251.192 26.9416Z" fill="#0075B3"/>
<path d="M252.273 30.4169C253.059 30.4169 253.697 29.7793 253.697 28.9929C253.697 28.2064 253.059 27.5689 252.273 27.5689C251.486 27.5689 250.849 28.2064 250.849 28.9929C250.849 29.7793 251.486 30.4169 252.273 30.4169Z" fill="#0075B3"/>
<path d="M248.569 30.4169C249.355 30.4169 249.993 29.7793 249.993 28.9929C249.993 28.2064 249.355 27.5689 248.569 27.5689C247.782 27.5689 247.145 28.2064 247.145 28.9929C247.145 29.7793 247.782 30.4169 248.569 30.4169Z" fill="#0075B3"/>
<path d="M249.535 33.9609C250.321 33.9609 250.959 33.3233 250.959 32.5369C250.959 31.7504 250.321 31.1129 249.535 31.1129C248.748 31.1129 248.111 31.7504 248.111 32.5369C248.111 33.3233 248.748 33.9609 249.535 33.9609Z" fill="#0075B3"/>
<path d="M245.83 33.9609C246.617 33.9609 247.254 33.3233 247.254 32.5369C247.254 31.7504 246.617 31.1129 245.83 31.1129C245.044 31.1129 244.406 31.7504 244.406 32.5369C244.406 33.3233 245.044 33.9609 245.83 33.9609Z" fill="#0075B3"/>
<path d="M247.08 37.2942C247.867 37.2942 248.504 36.6567 248.504 35.8702C248.504 35.0837 247.867 34.4462 247.08 34.4462C246.294 34.4462 245.656 35.0837 245.656 35.8702C245.656 36.6567 246.294 37.2942 247.08 37.2942Z" fill="#0075B3"/>
<path d="M243.372 37.2942C244.158 37.2942 244.796 36.6567 244.796 35.8702C244.796 35.0837 244.158 34.4462 243.372 34.4462C242.585 34.4462 241.948 35.0837 241.948 35.8702C241.948 36.6567 242.585 37.2942 243.372 37.2942Z" fill="#0075B3"/>
<path d="M257.506 16.5202C258.293 16.5202 258.93 15.8827 258.93 15.0962C258.93 14.3098 258.293 13.6722 257.506 13.6722C256.72 13.6722 256.082 14.3098 256.082 15.0962C256.082 15.8827 256.72 16.5202 257.506 16.5202Z" fill="#0075B3"/>
<path d="M253.802 16.5202C254.589 16.5202 255.226 15.8827 255.226 15.0962C255.226 14.3098 254.589 13.6722 253.802 13.6722C253.016 13.6722 252.378 14.3098 252.378 15.0962C252.378 15.8827 253.016 16.5202 253.802 16.5202Z" fill="#0075B3"/>
<path d="M255.015 13.1274C255.802 13.1274 256.439 12.4898 256.439 11.7034C256.439 10.9169 255.802 10.2794 255.015 10.2794C254.229 10.2794 253.591 10.9169 253.591 11.7034C253.591 12.4898 254.229 13.1274 255.015 13.1274Z" fill="#0075B3"/>
<path d="M251.311 13.1274C252.098 13.1274 252.735 12.4898 252.735 11.7034C252.735 10.9169 252.098 10.2794 251.311 10.2794C250.525 10.2794 249.887 10.9169 249.887 11.7034C249.887 12.4898 250.525 13.1274 251.311 13.1274Z" fill="#0075B3"/>
<path d="M252.428 9.62462C253.215 9.62462 253.852 8.98707 253.852 8.20061C253.852 7.41416 253.215 6.77661 252.428 6.77661C251.642 6.77661 251.004 7.41416 251.004 8.20061C251.004 8.98707 251.642 9.62462 252.428 9.62462Z" fill="#0075B3"/>
<path d="M248.72 9.62462C249.506 9.62462 250.144 8.98707 250.144 8.20061C250.144 7.41416 249.506 6.77661 248.72 6.77661C247.933 6.77661 247.296 7.41416 247.296 8.20061C247.296 8.98707 247.933 9.62462 248.72 9.62462Z" fill="#0075B3"/>
<path d="M249.745 6.16304C250.532 6.16304 251.169 5.52549 251.169 4.73904C251.169 3.95258 250.532 3.31503 249.745 3.31503C248.959 3.31503 248.321 3.95258 248.321 4.73904C248.321 5.52549 248.959 6.16304 249.745 6.16304Z" fill="#0075B3"/>
<path d="M246.037 6.16304C246.823 6.16304 247.461 5.52549 247.461 4.73904C247.461 3.95258 246.823 3.31503 246.037 3.31503C245.25 3.31503 244.613 3.95258 244.613 4.73904C244.613 5.52549 245.25 6.16304 246.037 6.16304Z" fill="#0075B3"/>
<path d="M247.117 2.848C247.904 2.848 248.541 2.21046 248.541 1.424C248.541 0.637547 247.904 0 247.117 0C246.331 0 245.693 0.637547 245.693 1.424C245.693 2.21046 246.331 2.848 247.117 2.848Z" fill="#0075B3"/>
<path d="M243.413 2.848C244.199 2.848 244.837 2.21046 244.837 1.424C244.837 0.637547 244.199 0 243.413 0C242.626 0 241.989 0.637547 241.989 1.424C241.989 2.21046 242.626 2.848 243.413 2.848Z" fill="#0075B3"/>
<path d="M249.901 19.991C250.687 19.991 251.325 19.3534 251.325 18.567C251.325 17.7805 250.687 17.143 249.901 17.143C249.114 17.143 248.477 17.7805 248.477 18.567C248.477 19.3534 249.114 19.991 249.901 19.991Z" fill="#85CEE4"/>
<path d="M246.613 19.8307C247.311 19.8307 247.877 19.2649 247.877 18.567C247.877 17.869 247.311 17.3032 246.613 17.3032C245.916 17.3032 245.35 17.869 245.35 18.567C245.35 19.2649 245.916 19.8307 246.613 19.8307Z" fill="#85CEE4"/>
<path d="M243.404 19.7437C244.054 19.7437 244.58 19.2169 244.58 18.567C244.58 17.9171 244.054 17.3902 243.404 17.3902C242.754 17.3902 242.227 17.9171 242.227 18.567C242.227 19.2169 242.754 19.7437 243.404 19.7437Z" fill="#85CEE4"/>
<path d="M240.354 19.6018C240.926 19.6018 241.389 19.1385 241.389 18.567C241.389 17.9955 240.926 17.5322 240.354 17.5322C239.783 17.5322 239.319 17.9955 239.319 18.567C239.319 19.1385 239.783 19.6018 240.354 19.6018Z" fill="#85CEE4"/>
<path d="M237.199 19.5102C237.72 19.5102 238.143 19.0879 238.143 18.567C238.143 18.046 237.72 17.6237 237.199 17.6237C236.679 17.6237 236.256 18.046 236.256 18.567C236.256 19.0879 236.679 19.5102 237.199 19.5102Z" fill="#85CEE4"/>
<path d="M234.022 19.4461C234.507 19.4461 234.901 19.0525 234.901 18.567C234.901 18.0814 234.507 17.6879 234.022 17.6879C233.536 17.6879 233.143 18.0814 233.143 18.567C233.143 19.0525 233.536 19.4461 234.022 19.4461Z" fill="#85CEE4"/>
<path d="M231.224 19.3591C231.662 19.3591 232.016 19.0045 232.016 18.567C232.016 18.1295 231.662 17.7748 231.224 17.7748C230.787 17.7748 230.432 18.1295 230.432 18.567C230.432 19.0045 230.787 19.3591 231.224 19.3591Z" fill="#85CEE4"/>
<path d="M228.275 19.3088C228.685 19.3088 229.017 18.9767 229.017 18.567C229.017 18.1573 228.685 17.8252 228.275 17.8252C227.866 17.8252 227.534 18.1573 227.534 18.567C227.534 18.9767 227.866 19.3088 228.275 19.3088Z" fill="#85CEE4"/>
<path d="M225.034 19.2721C225.423 19.2721 225.739 18.9564 225.739 18.567C225.739 18.1775 225.423 17.8618 225.034 17.8618C224.644 17.8618 224.328 18.1775 224.328 18.567C224.328 18.9564 224.644 19.2721 225.034 19.2721Z" fill="#85CEE4"/>
<path d="M221.842 19.2172C222.201 19.2172 222.492 18.9261 222.492 18.567C222.492 18.2079 222.201 17.9168 221.842 17.9168C221.483 17.9168 221.192 18.2079 221.192 18.567C221.192 18.9261 221.483 19.2172 221.842 19.2172Z" fill="#85CEE4"/>
<path d="M218.866 19.1531C219.19 19.1531 219.452 18.8907 219.452 18.567C219.452 18.2433 219.19 17.9809 218.866 17.9809C218.542 17.9809 218.28 18.2433 218.28 18.567C218.28 18.8907 218.542 19.1531 218.866 19.1531Z" fill="#85CEE4"/>
<path d="M246.952 23.6128C247.739 23.6128 248.376 22.9753 248.376 22.1888C248.376 21.4023 247.739 20.7648 246.952 20.7648C246.166 20.7648 245.528 21.4023 245.528 22.1888C245.528 22.9753 246.166 23.6128 246.952 23.6128Z" fill="#85CEE4"/>
<path d="M243.665 23.4526C244.363 23.4526 244.928 22.8868 244.928 22.1888C244.928 21.4909 244.363 20.9251 243.665 20.9251C242.967 20.9251 242.401 21.4909 242.401 22.1888C242.401 22.8868 242.967 23.4526 243.665 23.4526Z" fill="#85CEE4"/>
<path d="M240.455 23.3655C241.105 23.3655 241.632 22.8387 241.632 22.1888C241.632 21.5389 241.105 21.0121 240.455 21.0121C239.805 21.0121 239.278 21.5389 239.278 22.1888C239.278 22.8387 239.805 23.3655 240.455 23.3655Z" fill="#85CEE4"/>
<path d="M237.405 23.2236C237.977 23.2236 238.44 22.7603 238.44 22.1888C238.44 21.6173 237.977 21.154 237.405 21.154C236.834 21.154 236.371 21.6173 236.371 22.1888C236.371 22.7603 236.834 23.2236 237.405 23.2236Z" fill="#85CEE4"/>
<path d="M234.251 23.132C234.772 23.132 235.194 22.7097 235.194 22.1888C235.194 21.6679 234.772 21.2456 234.251 21.2456C233.73 21.2456 233.307 21.6679 233.307 22.1888C233.307 22.7097 233.73 23.132 234.251 23.132Z" fill="#85CEE4"/>
<path d="M231.073 23.0679C231.559 23.0679 231.952 22.6743 231.952 22.1888C231.952 21.7033 231.559 21.3097 231.073 21.3097C230.587 21.3097 230.194 21.7033 230.194 22.1888C230.194 22.6743 230.587 23.0679 231.073 23.0679Z" fill="#85CEE4"/>
<path d="M228.275 22.9809C228.713 22.9809 229.067 22.6263 229.067 22.1888C229.067 21.7513 228.713 21.3967 228.275 21.3967C227.838 21.3967 227.483 21.7513 227.483 22.1888C227.483 22.6263 227.838 22.9809 228.275 22.9809Z" fill="#85CEE4"/>
<path d="M225.326 22.9306C225.736 22.9306 226.068 22.5985 226.068 22.1888C226.068 21.7791 225.736 21.447 225.326 21.447C224.917 21.447 224.585 21.7791 224.585 22.1888C224.585 22.5985 224.917 22.9306 225.326 22.9306Z" fill="#85CEE4"/>
<path d="M222.08 22.8939C222.47 22.8939 222.785 22.5782 222.785 22.1888C222.785 21.7994 222.47 21.4837 222.08 21.4837C221.691 21.4837 221.375 21.7994 221.375 22.1888C221.375 22.5782 221.691 22.8939 222.08 22.8939Z" fill="#85CEE4"/>
<path d="M218.893 22.839C219.252 22.839 219.544 22.5479 219.544 22.1888C219.544 21.8297 219.252 21.5386 218.893 21.5386C218.534 21.5386 218.243 21.8297 218.243 22.1888C218.243 22.5479 218.534 22.839 218.893 22.839Z" fill="#85CEE4"/>
<path d="M215.917 22.7749C216.241 22.7749 216.503 22.5125 216.503 22.1888C216.503 21.8651 216.241 21.6027 215.917 21.6027C215.593 21.6027 215.331 21.8651 215.331 22.1888C215.331 22.5125 215.593 22.7749 215.917 22.7749Z" fill="#85CEE4"/>
<path d="M244.631 26.9416C245.417 26.9416 246.055 26.304 246.055 25.5176C246.055 24.7311 245.417 24.0936 244.631 24.0936C243.844 24.0936 243.207 24.7311 243.207 25.5176C243.207 26.304 243.844 26.9416 244.631 26.9416Z" fill="#85CEE4"/>
<path d="M241.343 26.7813C242.041 26.7813 242.607 26.2155 242.607 25.5176C242.607 24.8196 242.041 24.2538 241.343 24.2538C240.645 24.2538 240.079 24.8196 240.079 25.5176C240.079 26.2155 240.645 26.7813 241.343 26.7813Z" fill="#85CEE4"/>
<path d="M238.133 26.6943C238.783 26.6943 239.31 26.1675 239.31 25.5176C239.31 24.8677 238.783 24.3408 238.133 24.3408C237.484 24.3408 236.957 24.8677 236.957 25.5176C236.957 26.1675 237.484 26.6943 238.133 26.6943Z" fill="#85CEE4"/>
<path d="M235.084 26.5524C235.655 26.5524 236.119 26.0891 236.119 25.5176C236.119 24.9461 235.655 24.4828 235.084 24.4828C234.512 24.4828 234.049 24.9461 234.049 25.5176C234.049 26.0891 234.512 26.5524 235.084 26.5524Z" fill="#85CEE4"/>
<path d="M231.929 26.4608C232.45 26.4608 232.872 26.0385 232.872 25.5176C232.872 24.9967 232.45 24.5744 231.929 24.5744C231.408 24.5744 230.986 24.9967 230.986 25.5176C230.986 26.0385 231.408 26.4608 231.929 26.4608Z" fill="#85CEE4"/>
<path d="M228.752 26.3967C229.237 26.3967 229.631 26.0031 229.631 25.5176C229.631 25.0321 229.237 24.6385 228.752 24.6385C228.266 24.6385 227.872 25.0321 227.872 25.5176C227.872 26.0031 228.266 26.3967 228.752 26.3967Z" fill="#85CEE4"/>
<path d="M225.954 26.3097C226.391 26.3097 226.746 25.9551 226.746 25.5176C226.746 25.0801 226.391 24.7254 225.954 24.7254C225.516 24.7254 225.162 25.0801 225.162 25.5176C225.162 25.9551 225.516 26.3097 225.954 26.3097Z" fill="#85CEE4"/>
<path d="M223.005 26.2593C223.415 26.2593 223.747 25.9272 223.747 25.5176C223.747 25.1079 223.415 24.7758 223.005 24.7758C222.596 24.7758 222.263 25.1079 222.263 25.5176C222.263 25.9272 222.596 26.2593 223.005 26.2593Z" fill="#85CEE4"/>
<path d="M219.759 26.2227C220.148 26.2227 220.464 25.907 220.464 25.5176C220.464 25.1282 220.148 24.8125 219.759 24.8125C219.369 24.8125 219.054 25.1282 219.054 25.5176C219.054 25.907 219.369 26.2227 219.759 26.2227Z" fill="#85CEE4"/>
<path d="M216.572 26.1678C216.931 26.1678 217.222 25.8767 217.222 25.5176C217.222 25.1585 216.931 24.8674 216.572 24.8674C216.213 24.8674 215.922 25.1585 215.922 25.5176C215.922 25.8767 216.213 26.1678 216.572 26.1678Z" fill="#85CEE4"/>
<path d="M213.596 26.1037C213.919 26.1037 214.182 25.8413 214.182 25.5176C214.182 25.1939 213.919 24.9315 213.596 24.9315C213.272 24.9315 213.01 25.1939 213.01 25.5176C213.01 25.8413 213.272 26.1037 213.596 26.1037Z" fill="#85CEE4"/>
<path d="M241.719 30.4169C242.505 30.4169 243.143 29.7793 243.143 28.9929C243.143 28.2064 242.505 27.5689 241.719 27.5689C240.932 27.5689 240.295 28.2064 240.295 28.9929C240.295 29.7793 240.932 30.4169 241.719 30.4169Z" fill="#85CEE4"/>
<path d="M238.426 30.2566C239.124 30.2566 239.69 29.6908 239.69 28.9929C239.69 28.2949 239.124 27.7291 238.426 27.7291C237.728 27.7291 237.163 28.2949 237.163 28.9929C237.163 29.6908 237.728 30.2566 238.426 30.2566Z" fill="#85CEE4"/>
<path d="M235.217 30.1696C235.867 30.1696 236.394 29.6428 236.394 28.9929C236.394 28.343 235.867 27.8161 235.217 27.8161C234.567 27.8161 234.04 28.343 234.04 28.9929C234.04 29.6428 234.567 30.1696 235.217 30.1696Z" fill="#85CEE4"/>
<path d="M232.167 30.0277C232.739 30.0277 233.202 29.5644 233.202 28.9929C233.202 28.4214 232.739 27.9581 232.167 27.9581C231.596 27.9581 231.132 28.4214 231.132 28.9929C231.132 29.5644 231.596 30.0277 232.167 30.0277Z" fill="#85CEE4"/>
<path d="M229.017 29.9361C229.538 29.9361 229.96 29.5138 229.96 28.9929C229.96 28.4719 229.538 28.0496 229.017 28.0496C228.496 28.0496 228.074 28.4719 228.074 28.9929C228.074 29.5138 228.496 29.9361 229.017 29.9361Z" fill="#85CEE4"/>
<path d="M225.835 29.872C226.32 29.872 226.714 29.4784 226.714 28.9929C226.714 28.5073 226.32 28.1137 225.835 28.1137C225.349 28.1137 224.956 28.5073 224.956 28.9929C224.956 29.4784 225.349 29.872 225.835 29.872Z" fill="#85CEE4"/>
<path d="M223.037 29.785C223.475 29.785 223.829 29.4303 223.829 28.9929C223.829 28.5554 223.475 28.2007 223.037 28.2007C222.6 28.2007 222.245 28.5554 222.245 28.9929C222.245 29.4303 222.6 29.785 223.037 29.785Z" fill="#85CEE4"/>
<path d="M220.088 29.7346C220.498 29.7346 220.83 29.4025 220.83 28.9929C220.83 28.5832 220.498 28.2511 220.088 28.2511C219.679 28.2511 219.347 28.5832 219.347 28.9929C219.347 29.4025 219.679 29.7346 220.088 29.7346Z" fill="#85CEE4"/>
<path d="M216.847 29.698C217.236 29.698 217.552 29.3823 217.552 28.9929C217.552 28.6034 217.236 28.2877 216.847 28.2877C216.457 28.2877 216.141 28.6034 216.141 28.9929C216.141 29.3823 216.457 29.698 216.847 29.698Z" fill="#85CEE4"/>
<path d="M213.655 29.6431C214.014 29.6431 214.306 29.352 214.306 28.9929C214.306 28.6338 214.014 28.3427 213.655 28.3427C213.296 28.3427 213.005 28.6338 213.005 28.9929C213.005 29.352 213.296 29.6431 213.655 29.6431Z" fill="#85CEE4"/>
<path d="M210.684 29.579C211.007 29.579 211.27 29.3166 211.27 28.9929C211.27 28.6692 211.007 28.4068 210.684 28.4068C210.36 28.4068 210.098 28.6692 210.098 28.9929C210.098 29.3166 210.36 29.579 210.684 29.579Z" fill="#85CEE4"/>
<path d="M239.37 33.9609C240.156 33.9609 240.794 33.3233 240.794 32.5369C240.794 31.7504 240.156 31.1129 239.37 31.1129C238.583 31.1129 237.946 31.7504 237.946 32.5369C237.946 33.3233 238.583 33.9609 239.37 33.9609Z" fill="#85CEE4"/>
<path d="M236.078 33.8006C236.776 33.8006 237.341 33.2348 237.341 32.5369C237.341 31.8389 236.776 31.2731 236.078 31.2731C235.38 31.2731 234.814 31.8389 234.814 32.5369C234.814 33.2348 235.38 33.8006 236.078 33.8006Z" fill="#85CEE4"/>
<path d="M232.872 33.7136C233.522 33.7136 234.049 33.1868 234.049 32.5369C234.049 31.887 233.522 31.3601 232.872 31.3601C232.223 31.3601 231.696 31.887 231.696 32.5369C231.696 33.1868 232.223 33.7136 232.872 33.7136Z" fill="#85CEE4"/>
<path d="M229.823 33.5717C230.395 33.5717 230.858 33.1084 230.858 32.5368C230.858 31.9653 230.395 31.502 229.823 31.502C229.251 31.502 228.788 31.9653 228.788 32.5368C228.788 33.1084 229.251 33.5717 229.823 33.5717Z" fill="#85CEE4"/>
<path d="M226.668 33.4801C227.189 33.4801 227.611 33.0578 227.611 32.5369C227.611 32.0159 227.189 31.5936 226.668 31.5936C226.147 31.5936 225.725 32.0159 225.725 32.5369C225.725 33.0578 226.147 33.4801 226.668 33.4801Z" fill="#85CEE4"/>
<path d="M223.491 33.416C223.976 33.416 224.37 33.0224 224.37 32.5369C224.37 32.0513 223.976 31.6577 223.491 31.6577C223.005 31.6577 222.611 32.0513 222.611 32.5369C222.611 33.0224 223.005 33.416 223.491 33.416Z" fill="#85CEE4"/>
<path d="M220.693 33.329C221.13 33.329 221.485 32.9743 221.485 32.5369C221.485 32.0994 221.13 31.7447 220.693 31.7447C220.255 31.7447 219.901 32.0994 219.901 32.5369C219.901 32.9743 220.255 33.329 220.693 33.329Z" fill="#85CEE4"/>
<path d="M217.74 33.2786C218.149 33.2786 218.481 32.9465 218.481 32.5369C218.481 32.1272 218.149 31.7951 217.74 31.7951C217.33 31.7951 216.998 32.1272 216.998 32.5369C216.998 32.9465 217.33 33.2786 217.74 33.2786Z" fill="#85CEE4"/>
<path d="M214.498 33.242C214.887 33.242 215.203 32.9263 215.203 32.5369C215.203 32.1474 214.887 31.8317 214.498 31.8317C214.108 31.8317 213.793 32.1474 213.793 32.5369C213.793 32.9263 214.108 33.242 214.498 33.242Z" fill="#85CEE4"/>
<path d="M211.311 33.187C211.67 33.187 211.961 32.8959 211.961 32.5369C211.961 32.1778 211.67 31.8867 211.311 31.8867C210.952 31.8867 210.661 32.1778 210.661 32.5369C210.661 32.8959 210.952 33.187 211.311 33.187Z" fill="#85CEE4"/>
<path d="M208.335 33.1229C208.658 33.1229 208.921 32.8605 208.921 32.5369C208.921 32.2132 208.658 31.9508 208.335 31.9508C208.011 31.9508 207.749 32.2132 207.749 32.5369C207.749 32.8605 208.011 33.1229 208.335 33.1229Z" fill="#85CEE4"/>
<path d="M236.522 37.2942C237.308 37.2942 237.946 36.6567 237.946 35.8702C237.946 35.0837 237.308 34.4462 236.522 34.4462C235.735 34.4462 235.098 35.0837 235.098 35.8702C235.098 36.6567 235.735 37.2942 236.522 37.2942Z" fill="#85CEE4"/>
<path d="M233.234 37.1339C233.932 37.1339 234.498 36.5681 234.498 35.8702C234.498 35.1722 233.932 34.6064 233.234 34.6064C232.536 34.6064 231.97 35.1722 231.97 35.8702C231.97 36.5681 232.536 37.1339 233.234 37.1339Z" fill="#85CEE4"/>
<path d="M230.024 37.047C230.674 37.047 231.201 36.5201 231.201 35.8702C231.201 35.2203 230.674 34.6935 230.024 34.6935C229.375 34.6935 228.848 35.2203 228.848 35.8702C228.848 36.5201 229.375 37.047 230.024 37.047Z" fill="#85CEE4"/>
<path d="M226.975 36.905C227.546 36.905 228.01 36.4417 228.01 35.8702C228.01 35.2987 227.546 34.8354 226.975 34.8354C226.403 34.8354 225.94 35.2987 225.94 35.8702C225.94 36.4417 226.403 36.905 226.975 36.905Z" fill="#85CEE4"/>
<path d="M223.82 36.8134C224.341 36.8134 224.763 36.3911 224.763 35.8702C224.763 35.3493 224.341 34.927 223.82 34.927C223.299 34.927 222.877 35.3493 222.877 35.8702C222.877 36.3911 223.299 36.8134 223.82 36.8134Z" fill="#85CEE4"/>
<path d="M220.643 36.7493C221.128 36.7493 221.522 36.3557 221.522 35.8702C221.522 35.3847 221.128 34.9911 220.643 34.9911C220.157 34.9911 219.763 35.3847 219.763 35.8702C219.763 36.3557 220.157 36.7493 220.643 36.7493Z" fill="#85CEE4"/>
<path d="M217.845 36.6623C218.282 36.6623 218.637 36.3077 218.637 35.8702C218.637 35.4327 218.282 35.0781 217.845 35.0781C217.407 35.0781 217.053 35.4327 217.053 35.8702C217.053 36.3077 217.407 36.6623 217.845 36.6623Z" fill="#85CEE4"/>
<path d="M214.896 36.612C215.306 36.612 215.638 36.2799 215.638 35.8702C215.638 35.4605 215.306 35.1284 214.896 35.1284C214.487 35.1284 214.154 35.4605 214.154 35.8702C214.154 36.2799 214.487 36.612 214.896 36.612Z" fill="#85CEE4"/>
<path d="M211.654 36.5753C212.044 36.5753 212.359 36.2596 212.359 35.8702C212.359 35.4808 212.044 35.1651 211.654 35.1651C211.265 35.1651 210.949 35.4808 210.949 35.8702C210.949 36.2596 211.265 36.5753 211.654 36.5753Z" fill="#85CEE4"/>
<path d="M208.463 36.5204C208.822 36.5204 209.113 36.2293 209.113 35.8702C209.113 35.5111 208.822 35.22 208.463 35.22C208.104 35.22 207.813 35.5111 207.813 35.8702C207.813 36.2293 208.104 36.5204 208.463 36.5204Z" fill="#85CEE4"/>
<path d="M205.487 36.4563C205.81 36.4563 206.073 36.1939 206.073 35.8702C206.073 35.5465 205.81 35.2841 205.487 35.2841C205.163 35.2841 204.901 35.5465 204.901 35.8702C204.901 36.1939 205.163 36.4563 205.487 36.4563Z" fill="#85CEE4"/>
<path d="M246.952 16.5202C247.739 16.5202 248.376 15.8827 248.376 15.0962C248.376 14.3098 247.739 13.6722 246.952 13.6722C246.166 13.6722 245.528 14.3098 245.528 15.0962C245.528 15.8827 246.166 16.5202 246.952 16.5202Z" fill="#85CEE4"/>
<path d="M243.665 16.36C244.363 16.36 244.928 15.7942 244.928 15.0962C244.928 14.3983 244.363 13.8325 243.665 13.8325C242.967 13.8325 242.401 14.3983 242.401 15.0962C242.401 15.7942 242.967 16.36 243.665 16.36Z" fill="#85CEE4"/>
<path d="M240.455 16.273C241.105 16.273 241.632 15.7461 241.632 15.0962C241.632 14.4463 241.105 13.9195 240.455 13.9195C239.805 13.9195 239.278 14.4463 239.278 15.0962C239.278 15.7461 239.805 16.273 240.455 16.273Z" fill="#85CEE4"/>
<path d="M237.405 16.131C237.977 16.131 238.44 15.6677 238.44 15.0962C238.44 14.5247 237.977 14.0614 237.405 14.0614C236.834 14.0614 236.371 14.5247 236.371 15.0962C236.371 15.6677 236.834 16.131 237.405 16.131Z" fill="#85CEE4"/>
<path d="M234.251 16.0395C234.772 16.0395 235.194 15.6172 235.194 15.0962C235.194 14.5753 234.772 14.153 234.251 14.153C233.73 14.153 233.307 14.5753 233.307 15.0962C233.307 15.6172 233.73 16.0395 234.251 16.0395Z" fill="#85CEE4"/>
<path d="M231.073 15.9754C231.559 15.9754 231.952 15.5818 231.952 15.0962C231.952 14.6107 231.559 14.2171 231.073 14.2171C230.587 14.2171 230.194 14.6107 230.194 15.0962C230.194 15.5818 230.587 15.9754 231.073 15.9754Z" fill="#85CEE4"/>
<path d="M228.275 15.8884C228.713 15.8884 229.067 15.5337 229.067 15.0962C229.067 14.6588 228.713 14.3041 228.275 14.3041C227.838 14.3041 227.483 14.6588 227.483 15.0962C227.483 15.5337 227.838 15.8884 228.275 15.8884Z" fill="#85CEE4"/>
<path d="M225.326 15.838C225.736 15.838 226.068 15.5059 226.068 15.0962C226.068 14.6866 225.736 14.3545 225.326 14.3545C224.917 14.3545 224.585 14.6866 224.585 15.0962C224.585 15.5059 224.917 15.838 225.326 15.838Z" fill="#85CEE4"/>
<path d="M222.08 15.8014C222.47 15.8014 222.785 15.4857 222.785 15.0962C222.785 14.7068 222.47 14.3911 222.08 14.3911C221.691 14.3911 221.375 14.7068 221.375 15.0962C221.375 15.4857 221.691 15.8014 222.08 15.8014Z" fill="#85CEE4"/>
<path d="M218.893 15.7464C219.252 15.7464 219.544 15.4553 219.544 15.0962C219.544 14.7371 219.252 14.446 218.893 14.446C218.534 14.446 218.243 14.7371 218.243 15.0962C218.243 15.4553 218.534 15.7464 218.893 15.7464Z" fill="#85CEE4"/>
<path d="M215.917 15.6823C216.241 15.6823 216.503 15.4199 216.503 15.0962C216.503 14.7726 216.241 14.5102 215.917 14.5102C215.593 14.5102 215.331 14.7726 215.331 15.0962C215.331 15.4199 215.593 15.6823 215.917 15.6823Z" fill="#85CEE4"/>
<path d="M244.631 13.1274C245.417 13.1274 246.055 12.4898 246.055 11.7034C246.055 10.9169 245.417 10.2794 244.631 10.2794C243.844 10.2794 243.207 10.9169 243.207 11.7034C243.207 12.4898 243.844 13.1274 244.631 13.1274Z" fill="#85CEE4"/>
<path d="M241.343 12.9671C242.041 12.9671 242.607 12.4013 242.607 11.7034C242.607 11.0054 242.041 10.4396 241.343 10.4396C240.645 10.4396 240.079 11.0054 240.079 11.7034C240.079 12.4013 240.645 12.9671 241.343 12.9671Z" fill="#85CEE4"/>
<path d="M238.133 12.8801C238.783 12.8801 239.31 12.3533 239.31 11.7034C239.31 11.0535 238.783 10.5266 238.133 10.5266C237.484 10.5266 236.957 11.0535 236.957 11.7034C236.957 12.3533 237.484 12.8801 238.133 12.8801Z" fill="#85CEE4"/>
<path d="M235.084 12.7382C235.655 12.7382 236.119 12.2749 236.119 11.7034C236.119 11.1318 235.655 10.6685 235.084 10.6685C234.512 10.6685 234.049 11.1318 234.049 11.7034C234.049 12.2749 234.512 12.7382 235.084 12.7382Z" fill="#85CEE4"/>
<path d="M231.929 12.6466C232.45 12.6466 232.872 12.2243 232.872 11.7034C232.872 11.1824 232.45 10.7601 231.929 10.7601C231.408 10.7601 230.986 11.1824 230.986 11.7034C230.986 12.2243 231.408 12.6466 231.929 12.6466Z" fill="#85CEE4"/>
<path d="M228.752 12.5825C229.237 12.5825 229.631 12.1889 229.631 11.7034C229.631 11.2178 229.237 10.8242 228.752 10.8242C228.266 10.8242 227.872 11.2178 227.872 11.7034C227.872 12.1889 228.266 12.5825 228.752 12.5825Z" fill="#85CEE4"/>
<path d="M225.954 12.4955C226.391 12.4955 226.746 12.1408 226.746 11.7034C226.746 11.2659 226.391 10.9112 225.954 10.9112C225.516 10.9112 225.162 11.2659 225.162 11.7034C225.162 12.1408 225.516 12.4955 225.954 12.4955Z" fill="#85CEE4"/>
<path d="M223.005 12.4451C223.415 12.4451 223.747 12.113 223.747 11.7034C223.747 11.2937 223.415 10.9616 223.005 10.9616C222.596 10.9616 222.263 11.2937 222.263 11.7034C222.263 12.113 222.596 12.4451 223.005 12.4451Z" fill="#85CEE4"/>
<path d="M219.759 12.4085C220.148 12.4085 220.464 12.0928 220.464 11.7034C220.464 11.3139 220.148 10.9982 219.759 10.9982C219.369 10.9982 219.054 11.3139 219.054 11.7034C219.054 12.0928 219.369 12.4085 219.759 12.4085Z" fill="#85CEE4"/>
<path d="M216.572 12.3535C216.931 12.3535 217.222 12.0624 217.222 11.7033C217.222 11.3443 216.931 11.0532 216.572 11.0532C216.213 11.0532 215.922 11.3443 215.922 11.7033C215.922 12.0624 216.213 12.3535 216.572 12.3535Z" fill="#85CEE4"/>
<path d="M213.596 12.2894C213.919 12.2894 214.182 12.027 214.182 11.7034C214.182 11.3797 213.919 11.1173 213.596 11.1173C213.272 11.1173 213.01 11.3797 213.01 11.7034C213.01 12.027 213.272 12.2894 213.596 12.2894Z" fill="#85CEE4"/>
<path d="M241.632 9.62462C242.418 9.62462 243.056 8.98707 243.056 8.20061C243.056 7.41416 242.418 6.77661 241.632 6.77661C240.845 6.77661 240.208 7.41416 240.208 8.20061C240.208 8.98707 240.845 9.62462 241.632 9.62462Z" fill="#85CEE4"/>
<path d="M238.34 9.46435C239.038 9.46435 239.603 8.89855 239.603 8.2006C239.603 7.50266 239.038 6.93686 238.34 6.93686C237.642 6.93686 237.076 7.50266 237.076 8.2006C237.076 8.89855 237.642 9.46435 238.34 9.46435Z" fill="#85CEE4"/>
<path d="M235.13 9.37736C235.78 9.37736 236.307 8.85051 236.307 8.20061C236.307 7.55071 235.78 7.02386 235.13 7.02386C234.48 7.02386 233.953 7.55071 233.953 8.20061C233.953 8.85051 234.48 9.37736 235.13 9.37736Z" fill="#85CEE4"/>
<path d="M232.08 9.23541C232.652 9.23541 233.115 8.77211 233.115 8.20061C233.115 7.6291 232.652 7.1658 232.08 7.1658C231.509 7.1658 231.046 7.6291 231.046 8.20061C231.046 8.77211 231.509 9.23541 232.08 9.23541Z" fill="#85CEE4"/>
<path d="M228.93 9.14384C229.451 9.14384 229.873 8.72155 229.873 8.20061C229.873 7.67968 229.451 7.25739 228.93 7.25739C228.409 7.25739 227.987 7.67968 227.987 8.20061C227.987 8.72155 228.409 9.14384 228.93 9.14384Z" fill="#85CEE4"/>
<path d="M225.748 9.07973C226.233 9.07973 226.627 8.68613 226.627 8.2006C226.627 7.71507 226.233 7.32147 225.748 7.32147C225.262 7.32147 224.869 7.71507 224.869 8.2006C224.869 8.68613 225.262 9.07973 225.748 9.07973Z" fill="#85CEE4"/>
<path d="M222.95 8.99274C223.388 8.99274 223.742 8.63809 223.742 8.20061C223.742 7.76313 223.388 7.40848 222.95 7.40848C222.513 7.40848 222.158 7.76313 222.158 8.20061C222.158 8.63809 222.513 8.99274 222.95 8.99274Z" fill="#85CEE4"/>
<path d="M220.002 8.94239C220.411 8.94239 220.743 8.61029 220.743 8.20063C220.743 7.79096 220.411 7.45886 220.002 7.45886C219.592 7.45886 219.26 7.79096 219.26 8.20063C219.26 8.61029 219.592 8.94239 220.002 8.94239Z" fill="#85CEE4"/>
<path d="M216.76 8.90575C217.149 8.90575 217.465 8.59005 217.465 8.20062C217.465 7.81118 217.149 7.49548 216.76 7.49548C216.37 7.49548 216.055 7.81118 216.055 8.20062C216.055 8.59005 216.37 8.90575 216.76 8.90575Z" fill="#85CEE4"/>
<path d="M213.568 8.85079C213.927 8.85079 214.219 8.55969 214.219 8.2006C214.219 7.84151 213.927 7.55042 213.568 7.55042C213.209 7.55042 212.918 7.84151 212.918 8.2006C212.918 8.55969 213.209 8.85079 213.568 8.85079Z" fill="#85CEE4"/>
<path d="M210.597 8.7867C210.92 8.7867 211.183 8.5243 211.183 8.20062C211.183 7.87693 210.92 7.61453 210.597 7.61453C210.273 7.61453 210.011 7.87693 210.011 8.20062C210.011 8.5243 210.273 8.7867 210.597 8.7867Z" fill="#85CEE4"/>
<path d="M239.411 6.16304C240.197 6.16304 240.835 5.52549 240.835 4.73904C240.835 3.95258 240.197 3.31503 239.411 3.31503C238.624 3.31503 237.987 3.95258 237.987 4.73904C237.987 5.52549 238.624 6.16304 239.411 6.16304Z" fill="#85CEE4"/>
<path d="M236.123 6.00277C236.821 6.00277 237.387 5.43697 237.387 4.73903C237.387 4.04108 236.821 3.47528 236.123 3.47528C235.425 3.47528 234.86 4.04108 234.86 4.73903C234.86 5.43697 235.425 6.00277 236.123 6.00277Z" fill="#85CEE4"/>
<path d="M232.914 5.91578C233.563 5.91578 234.09 5.38893 234.09 4.73903C234.09 4.08913 233.563 3.56229 232.914 3.56229C232.264 3.56229 231.737 4.08913 231.737 4.73903C231.737 5.38893 232.264 5.91578 232.914 5.91578Z" fill="#85CEE4"/>
<path d="M229.864 5.77383C230.436 5.77383 230.899 5.31054 230.899 4.73903C230.899 4.16752 230.436 3.70422 229.864 3.70422C229.293 3.70422 228.829 4.16752 228.829 4.73903C228.829 5.31054 229.293 5.77383 229.864 5.77383Z" fill="#85CEE4"/>
<path d="M226.709 5.68227C227.23 5.68227 227.653 5.25997 227.653 4.73904C227.653 4.21811 227.23 3.79581 226.709 3.79581C226.188 3.79581 225.766 4.21811 225.766 4.73904C225.766 5.25997 226.188 5.68227 226.709 5.68227Z" fill="#85CEE4"/>
<path d="M223.532 5.61818C224.017 5.61818 224.411 5.22458 224.411 4.73905C224.411 4.25352 224.017 3.85992 223.532 3.85992C223.046 3.85992 222.653 4.25352 222.653 4.73905C222.653 5.22458 223.046 5.61818 223.532 5.61818Z" fill="#85CEE4"/>
<path d="M220.734 5.53116C221.171 5.53116 221.526 5.17651 221.526 4.73903C221.526 4.30155 221.171 3.9469 220.734 3.9469C220.297 3.9469 219.942 4.30155 219.942 4.73903C219.942 5.17651 220.297 5.53116 220.734 5.53116Z" fill="#85CEE4"/>
<path d="M217.785 5.48081C218.195 5.48081 218.527 5.14871 218.527 4.73905C218.527 4.32938 218.195 3.99728 217.785 3.99728C217.376 3.99728 217.043 4.32938 217.043 4.73905C217.043 5.14871 217.376 5.48081 217.785 5.48081Z" fill="#85CEE4"/>
<path d="M214.539 5.44417C214.928 5.44417 215.244 5.12847 215.244 4.73904C215.244 4.3496 214.928 4.03391 214.539 4.03391C214.149 4.03391 213.834 4.3496 213.834 4.73904C213.834 5.12847 214.149 5.44417 214.539 5.44417Z" fill="#85CEE4"/>
<path d="M211.352 5.38921C211.711 5.38921 212.002 5.09811 212.002 4.73902C212.002 4.37994 211.711 4.08884 211.352 4.08884C210.993 4.08884 210.702 4.37994 210.702 4.73902C210.702 5.09811 210.993 5.38921 211.352 5.38921Z" fill="#85CEE4"/>
<path d="M208.376 5.32512C208.7 5.32512 208.962 5.06272 208.962 4.73904C208.962 4.41535 208.7 4.15295 208.376 4.15295C208.052 4.15295 207.79 4.41535 207.79 4.73904C207.79 5.06272 208.052 5.32512 208.376 5.32512Z" fill="#85CEE4"/>
<path d="M236.59 2.848C237.377 2.848 238.014 2.21046 238.014 1.424C238.014 0.637547 237.377 0 236.59 0C235.804 0 235.166 0.637547 235.166 1.424C235.166 2.21046 235.804 2.848 236.59 2.848Z" fill="#85CEE4"/>
<path d="M233.298 2.68774C233.996 2.68774 234.562 2.12194 234.562 1.42399C234.562 0.726046 233.996 0.160248 233.298 0.160248C232.6 0.160248 232.035 0.726046 232.035 1.42399C232.035 2.12194 232.6 2.68774 233.298 2.68774Z" fill="#85CEE4"/>
<path d="M230.093 2.60075C230.743 2.60075 231.27 2.0739 231.27 1.424C231.27 0.774101 230.743 0.247253 230.093 0.247253C229.443 0.247253 228.916 0.774101 228.916 1.424C228.916 2.0739 229.443 2.60075 230.093 2.60075Z" fill="#85CEE4"/>
<path d="M227.039 2.4588C227.611 2.4588 228.074 1.9955 228.074 1.424C228.074 0.852489 227.611 0.389191 227.039 0.389191C226.468 0.389191 226.004 0.852489 226.004 1.424C226.004 1.9955 226.468 2.4588 227.039 2.4588Z" fill="#85CEE4"/>
<path d="M223.889 2.36723C224.41 2.36723 224.832 1.94494 224.832 1.424C224.832 0.903072 224.41 0.480774 223.889 0.480774C223.368 0.480774 222.946 0.903072 222.946 1.424C222.946 1.94494 223.368 2.36723 223.889 2.36723Z" fill="#85CEE4"/>
<path d="M220.711 2.30311C221.197 2.30311 221.59 1.90952 221.59 1.42399C221.59 0.938459 221.197 0.544861 220.711 0.544861C220.226 0.544861 219.832 0.938459 219.832 1.42399C219.832 1.90952 220.226 2.30311 220.711 2.30311Z" fill="#85CEE4"/>
<path d="M217.914 2.21613C218.351 2.21613 218.706 1.86148 218.706 1.424C218.706 0.986515 218.351 0.631866 217.914 0.631866C217.476 0.631866 217.121 0.986515 217.121 1.424C217.121 1.86148 217.476 2.21613 217.914 2.21613Z" fill="#85CEE4"/>
<path d="M214.96 2.16578C215.37 2.16578 215.702 1.83368 215.702 1.42401C215.702 1.01435 215.37 0.682251 214.96 0.682251C214.551 0.682251 214.219 1.01435 214.219 1.42401C214.219 1.83368 214.551 2.16578 214.96 2.16578Z" fill="#85CEE4"/>
<path d="M211.718 2.12914C212.108 2.12914 212.424 1.81344 212.424 1.424C212.424 1.03457 212.108 0.718872 211.718 0.718872C211.329 0.718872 211.013 1.03457 211.013 1.424C211.013 1.81344 211.329 2.12914 211.718 2.12914Z" fill="#85CEE4"/>
<path d="M208.527 2.07418C208.886 2.07418 209.177 1.78308 209.177 1.42399C209.177 1.0649 208.886 0.773804 208.527 0.773804C208.168 0.773804 207.877 1.0649 207.877 1.42399C207.877 1.78308 208.168 2.07418 208.527 2.07418Z" fill="#85CEE4"/>
<path d="M205.555 2.01009C205.879 2.01009 206.142 1.74769 206.142 1.42401C206.142 1.10032 205.879 0.837921 205.555 0.837921C205.232 0.837921 204.969 1.10032 204.969 1.42401C204.969 1.74769 205.232 2.01009 205.555 2.01009Z" fill="#85CEE4"/>
<path d="M167.254 15.0642H146.723V22.0514H167.254V15.0642Z" fill="#2F52A0"/>
<path d="M128.224 30.2612H114.744C111.191 30.2612 108.265 29.1623 105.953 26.9599C103.645 24.7575 102.492 21.9873 102.492 18.6494C102.492 15.3115 103.645 12.5505 105.953 10.3664C108.261 8.18229 111.191 7.08796 114.744 7.08796H128.224V5.76927V0H114.905C108.938 0 104.03 1.75825 100.175 5.27476C96.3239 8.79127 94.3962 13.2144 94.3962 18.5395C94.3962 20.1329 94.5748 21.6485 94.9274 23.0862C95.8569 26.2044 96.7268 27.546 96.7268 27.546C97.6472 29.1211 98.8422 30.5771 100.307 31.9096C104.25 35.4993 109.204 37.2896 115.17 37.2896H128.224V30.7649V30.2566V30.2612Z" fill="#2F52A0"/>
<path d="M128.224 15.0642H107.693V22.0514H128.224V15.0642Z" fill="#2F52A0"/>
</svg>
