<svg width="451" height="137" viewBox="0 0 451 137" fill="none" xmlns="http://www.w3.org/2000/svg">
<path d="M52.558 61.7614L39.9437 43.3475L48.2285 29.7373H73.5639L52.558 61.7614ZM0.0698242 100.564L22.6793 67.579L35.347 86.7934L27.0622 100.564H0.0698242ZM74.5795 100.564H48.8164L1.51298 29.7373H27.0088L74.5795 100.564Z" fill="black"/>
<path d="M120.939 100.564H97.064C94.3084 100.54 91.719 100.006 89.296 98.9628C86.8729 97.8952 84.7586 96.4601 82.9533 94.6573C81.1716 92.8307 79.758 90.7077 78.7129 88.288C77.6675 85.8685 77.145 83.2828 77.145 80.5312C77.145 77.7795 77.6675 75.1939 78.7129 72.7742C79.758 70.3309 81.1716 68.2079 82.9533 66.405C84.7586 64.5784 86.8729 63.1432 89.296 62.0996C91.719 61.0321 94.3084 60.4984 97.064 60.4984H120.939V67.7571H97.064C95.3062 67.7808 93.6551 68.1368 92.1111 68.8247C90.5907 69.4888 89.2603 70.4021 88.1201 71.5644C86.9799 72.7031 86.0772 74.0434 85.4119 75.5852C84.7706 77.1272 84.4499 78.7758 84.4499 80.5312C84.4499 82.2865 84.7706 83.9352 85.4119 85.477C86.0772 87.019 86.9799 88.3711 88.1201 89.5334C89.2603 90.6721 90.5907 91.5853 92.1111 92.2732C93.6551 92.9376 95.3062 93.2696 97.064 93.2696H120.939V100.564ZM175.208 73.2368C175.208 75.0159 174.876 76.6764 174.21 78.2184C173.546 79.7602 172.631 81.1123 171.466 82.2747C170.326 83.4133 168.973 84.3147 167.404 84.9789C165.86 85.6432 164.209 85.9752 162.452 85.9752H134.479C135.002 87.0428 135.655 88.0271 136.439 88.9286C137.223 89.83 138.102 90.601 139.076 91.2414C140.05 91.8819 141.107 92.3801 142.247 92.7358C143.411 93.0916 144.623 93.2696 145.882 93.2696H169.757V100.564H145.882C143.126 100.54 140.537 100.006 138.114 98.9628C135.691 97.8952 133.577 96.4601 131.771 94.6573C129.989 92.8307 128.576 90.7077 127.531 88.288C126.485 85.8685 125.963 83.2828 125.963 80.5312C125.963 77.7795 126.485 75.1939 127.531 72.7742C128.576 70.3547 129.989 68.2434 131.771 66.4406C133.577 64.6141 135.691 63.179 138.114 62.1351C140.537 61.0677 143.126 60.522 145.882 60.4984H162.452C164.209 60.4984 165.86 60.8304 167.404 61.4947C168.973 62.1589 170.326 63.0721 171.466 64.2344C172.631 65.3731 173.546 66.7134 174.21 68.2552C174.876 69.7972 175.208 71.4577 175.208 73.2368ZM162.452 78.7165C163.188 78.7165 163.888 78.5741 164.554 78.2895C165.219 78.0048 165.802 77.6134 166.299 77.1152C166.798 76.6171 167.191 76.036 167.476 75.3717C167.76 74.7075 167.903 73.9958 167.903 73.2368C167.903 72.5014 167.76 71.8017 167.476 71.1375C167.191 70.4732 166.798 69.8921 166.299 69.394C165.802 68.8958 165.219 68.5043 164.554 68.2197C163.888 67.9113 163.188 67.7571 162.452 67.7571H145.882C144.267 67.7571 142.746 68.0417 141.321 68.6112C139.919 69.1804 138.66 69.9632 137.544 70.9595C136.451 71.9321 135.536 73.0944 134.8 74.4466C134.087 75.7749 133.624 77.1983 133.41 78.7165H162.452ZM196.696 100.564H194.879C193.097 100.564 191.434 100.232 189.89 99.5676C188.346 98.9035 186.991 98.002 185.827 96.8633C184.663 95.701 183.748 94.3489 183.083 92.807C182.418 91.2414 182.086 89.5809 182.086 87.8256V45.9097H189.391V87.8256C189.391 88.5846 189.532 89.2963 189.818 89.9604C190.103 90.601 190.496 91.1702 190.993 91.6684C191.492 92.1666 192.075 92.5579 192.74 92.8425C193.404 93.1273 194.118 93.2696 194.879 93.2696H196.696V100.564ZM249.753 73.2368C249.753 75.0159 249.42 76.6764 248.756 78.2184C248.091 79.7602 247.176 81.1123 246.012 82.2747C244.871 83.4133 243.518 84.3147 241.95 84.9789C240.406 85.6432 238.754 85.9752 236.997 85.9752H209.025C209.547 87.0428 210.201 88.0271 210.985 88.9286C211.769 89.83 212.647 90.601 213.621 91.2414C214.596 91.8819 215.652 92.3801 216.792 92.7358C217.957 93.0916 219.168 93.2696 220.427 93.2696H244.302V100.564H220.427C217.671 100.54 215.082 100.006 212.659 98.9628C210.236 97.8952 208.121 96.4601 206.316 94.6573C204.535 92.8307 203.121 90.7077 202.076 88.288C201.031 85.8685 200.508 83.2828 200.508 80.5312C200.508 77.7795 201.031 75.1939 202.076 72.7742C203.121 70.3547 204.535 68.2434 206.316 66.4406C208.121 64.6141 210.236 63.179 212.659 62.1351C215.082 61.0677 217.671 60.522 220.427 60.4984H236.997C238.754 60.4984 240.406 60.8304 241.95 61.4947C243.518 62.1589 244.871 63.0721 246.012 64.2344C247.176 65.3731 248.091 66.7134 248.756 68.2552C249.42 69.7972 249.753 71.4577 249.753 73.2368ZM236.997 78.7165C237.734 78.7165 238.434 78.5741 239.099 78.2895C239.764 78.0048 240.346 77.6134 240.846 77.1152C241.343 76.6171 241.736 76.036 242.021 75.3717C242.307 74.7075 242.448 73.9958 242.448 73.2368C242.448 72.5014 242.307 71.8017 242.021 71.1375C241.736 70.4732 241.343 69.8921 240.846 69.394C240.346 68.8958 239.764 68.5043 239.099 68.2197C238.434 67.9113 237.734 67.7571 236.997 67.7571H220.427C218.812 67.7571 217.291 68.0417 215.865 68.6112C214.464 69.1804 213.205 69.9632 212.09 70.9595C210.996 71.9321 210.081 73.0944 209.346 74.4466C208.632 75.7749 208.169 77.1983 207.955 78.7165H236.997ZM296.79 67.7571H269.424C268.663 67.7571 267.951 67.9113 267.285 68.2197C266.62 68.5043 266.037 68.8958 265.54 69.394C265.041 69.8921 264.648 70.4732 264.363 71.1375C264.079 71.8017 263.936 72.5014 263.936 73.2368V100.564H256.631V73.2368C256.631 71.4577 256.963 69.7972 257.629 68.2552C258.293 66.7134 259.208 65.3731 260.373 64.2344C261.536 63.0721 262.891 62.1589 264.435 61.4947C265.979 60.8304 267.641 60.4984 269.424 60.4984H296.79V67.7571ZM347.175 100.564H310.686C308.906 100.564 307.242 100.232 305.698 99.5676C304.153 98.9035 302.8 98.002 301.636 96.8633C300.472 95.701 299.557 94.3489 298.892 92.807C298.226 91.2414 297.895 89.5809 297.895 87.8256C297.895 86.0464 298.226 84.3858 298.892 82.844C299.557 81.3022 300.472 79.9499 301.636 78.7876C302.8 77.6253 304.153 76.7119 305.698 76.0478C307.242 75.3836 308.906 75.0515 310.686 75.0515H336.201V82.3458H310.686C309.926 82.3458 309.214 82.5 308.548 82.8084C307.884 83.0931 307.302 83.4844 306.803 83.9826C306.303 84.4807 305.912 85.0619 305.626 85.7261C305.342 86.3904 305.198 87.0901 305.198 87.8256C305.198 88.5846 305.342 89.2963 305.626 89.9604C305.912 90.601 306.303 91.1702 306.803 91.6684C307.302 92.1666 307.884 92.5579 308.548 92.8425C309.214 93.1273 309.926 93.2696 310.686 93.2696H339.87V73.2368C339.87 72.5014 339.717 71.8017 339.407 71.1375C339.123 70.4732 338.73 69.8921 338.231 69.394C337.733 68.8958 337.151 68.5043 336.485 68.2197C335.82 67.9113 335.119 67.7571 334.384 67.7571H305.198V60.4984H334.384C336.164 60.4984 337.828 60.8304 339.372 61.4947C340.915 62.1589 342.27 63.0721 343.434 64.2344C344.598 65.3731 345.513 66.7134 346.178 68.2552C346.842 69.7972 347.175 71.4577 347.175 73.2368V100.564ZM371.513 100.564H364.208V67.7571H353.269V60.4984H364.208V45.9097H371.513V60.4984H397.062V67.7571H371.513V100.564ZM449.016 73.2368C449.016 75.0159 448.684 76.6764 448.018 78.2184C447.353 79.7602 446.439 81.1123 445.274 82.2747C444.134 83.4133 442.78 84.3147 441.212 84.9789C439.668 85.6432 438.017 85.9752 436.259 85.9752H408.286C408.809 87.0428 409.463 88.0271 410.246 88.9286C411.03 89.83 411.909 90.601 412.884 91.2414C413.857 91.8819 414.914 92.3801 416.055 92.7358C417.219 93.0916 418.43 93.2696 419.69 93.2696H443.564V100.564H419.69C416.934 100.54 414.345 100.006 411.922 98.9628C409.498 97.8952 407.384 96.4601 405.579 94.6573C403.797 92.8307 402.384 90.7077 401.339 88.288C400.292 85.8685 399.77 83.2828 399.77 80.5312C399.77 77.7795 400.292 75.1939 401.339 72.7742C402.384 70.3547 403.797 68.2434 405.579 66.4406C407.384 64.6141 409.498 63.179 411.922 62.1351C414.345 61.0677 416.934 60.522 419.69 60.4984H436.259C438.017 60.4984 439.668 60.8304 441.212 61.4947C442.78 62.1589 444.134 63.0721 445.274 64.2344C446.439 65.3731 447.353 66.7134 448.018 68.2552C448.684 69.7972 449.016 71.4577 449.016 73.2368ZM436.259 78.7165C436.996 78.7165 437.696 78.5741 438.362 78.2895C439.027 78.0048 439.608 77.6134 440.107 77.1152C440.606 76.6171 440.998 76.036 441.284 75.3717C441.568 74.7075 441.711 73.9958 441.711 73.2368C441.711 72.5014 441.568 71.8017 441.284 71.1375C440.998 70.4732 440.606 69.8921 440.107 69.394C439.608 68.8958 439.027 68.5043 438.362 68.2197C437.696 67.9113 436.996 67.7571 436.259 67.7571H419.69C418.074 67.7571 416.553 68.0417 415.129 68.6112C413.727 69.1804 412.468 69.9632 411.351 70.9595C410.258 71.9321 409.344 73.0944 408.607 74.4466C407.895 75.7749 407.431 77.1983 407.218 78.7165H436.259Z" fill="black"/>
</svg>
