<?xml version="1.0" encoding="UTF-8"?>
<svg id="Layer_2" data-name="Layer 2" xmlns="http://www.w3.org/2000/svg" viewBox="0 0 495 165.8">
  <defs>
    <style>
      .cls-1 {
        fill: #308e4d;
      }
    </style>
  </defs>
  <g id="Layer_1-2" data-name="Layer 1">
    <g>
      <g>
        <path class="cls-1" d="M0,26.3h0v100c0,21.8,18.1,39.5,40.4,39.5v-100C40.4,44,22.3,26.3,0,26.3h0Z"/>
        <path class="cls-1" d="M122.3,0c-22.3,0-40.4,17.6-40.4,39.5v126.2h0c22.3,0,40.4-17.6,40.4-39.5V0h0Z"/>
        <path class="cls-1" d="M47.5,81.1v84.6c15.1,0,27.3-11.9,27.3-26.6V54.5c-15.1,0-27.3,11.9-27.3,26.6h0Z"/>
      </g>
      <g>
        <path class="cls-1" d="M184.1,114.7h-14.7v37.5h-2.9v-37.5h-14.7v-2.6h32.3v2.6h0Z"/>
        <path class="cls-1" d="M194,116v-5.2h2.8v5.2h-2.8ZM194,152.2v-29.4h2.8v29.4h-2.8Z"/>
        <path class="cls-1" d="M222.4,152.7c-2.1,0-4-.4-5.8-1.2s-3.3-1.9-4.6-3.3-2.3-3-3-4.9-1.1-3.8-1.1-5.9.4-4,1.1-5.9c.7-1.8,1.7-3.4,3-4.8,1.3-1.4,2.8-2.5,4.6-3.2s3.7-1.2,5.7-1.2,4,.4,5.7,1.2c1.8.8,3.3,1.9,4.5,3.3s2.3,3,3,4.8,1.1,3.8,1.1,5.8,0,.4,0,.7v.5h-25.8c.1,1.7.5,3.3,1.2,4.7.7,1.4,1.5,2.7,2.6,3.8,1,1.1,2.2,1.9,3.6,2.5s2.8.9,4.4.9,2-.1,3-.4c1-.3,1.9-.7,2.8-1.2s1.6-1.1,2.3-1.8,1.2-1.5,1.5-2.3l2.5.7c-.5,1.1-1.1,2-1.9,2.9s-1.8,1.6-2.8,2.3-2.2,1.1-3.5,1.5-2.6.5-4,.5h-.1ZM233.9,136.3c-.1-1.7-.5-3.3-1.2-4.8s-1.5-2.7-2.5-3.7-2.2-1.9-3.6-2.4c-1.4-.6-2.8-.9-4.4-.9s-3,.3-4.4.9c-1.4.6-2.5,1.4-3.6,2.4s-1.9,2.3-2.5,3.7-1,3-1.1,4.7h23.3v.1Z"/>
        <path class="cls-1" d="M261.2,125.2c-2.7,0-5,.9-7,2.4s-3.3,3.5-4.1,6.1v18.4h-2.8v-29.4h2.7v7.2c1-2.1,2.4-3.8,4-5.1,1.7-1.3,3.5-2,5.4-2.2h1.8v2.7h0v-.1Z"/>
        <path class="cls-1" d="M284.8,125.2c-2.7,0-5,.9-7,2.4s-3.3,3.5-4.1,6.1v18.4h-2.8v-29.4h2.7v7.2c1-2.1,2.4-3.8,4-5.1,1.7-1.3,3.5-2,5.4-2.2h1.8v2.7h0v-.1Z"/>
        <path class="cls-1" d="M301.2,152.7c-1.4,0-2.6-.2-3.8-.7s-2.2-1.1-3.1-1.9c-.9-.8-1.6-1.8-2.1-2.9s-.7-2.3-.7-3.6.3-2.4.9-3.5,1.5-2,2.5-2.7,2.4-1.4,3.9-1.8,3.1-.6,5-.6,3.2.1,4.8.4,3.1.7,4.4,1.2v-2.9c0-2.8-.8-5-2.4-6.6s-3.7-2.5-6.4-2.5-3,.3-4.6.9-3.2,1.5-4.8,2.6l-1.1-1.9c3.8-2.6,7.4-3.8,10.7-3.8s6.3,1,8.4,3.1c2,2.1,3.1,4.9,3.1,8.5v14.4c0,.9.4,1.4,1.2,1.4v2.5h-1c-.7,0-1.3-.2-1.9-.7s-.9-1.1-.9-1.8v-2.4c-1.4,1.8-3.1,3.1-5.2,4.1-2.1.9-4.4,1.4-6.8,1.4h0v-.2h-.1ZM301.8,150.4c2.2,0,4.2-.4,6-1.2,1.9-.8,3.2-1.9,4.1-3.3.6-.8,1-1.5,1-2.3v-5.2c-2.9-1.1-5.8-1.6-8.8-1.6s-5.3.6-7.1,1.8c-1.8,1.2-2.7,2.8-2.7,4.8s.2,1.9.6,2.8c.4.9.9,1.6,1.6,2.2s1.5,1.1,2.4,1.5,1.9.5,3,.5h-.1Z"/>
        <path class="cls-1" d="M348.8,152.2v-40.1h26.1v2.6h-23.2v15.9h19.7v2.5h-19.7v19.1h-2.9Z"/>
        <path class="cls-1" d="M398.1,152.7c-2.1,0-4-.4-5.8-1.2s-3.3-1.9-4.6-3.3-2.3-3-3-4.9-1.1-3.8-1.1-5.9.4-4,1.1-5.9c.7-1.8,1.7-3.4,3-4.8,1.3-1.4,2.8-2.5,4.6-3.2s3.7-1.2,5.7-1.2,4,.4,5.7,1.2c1.8.8,3.3,1.9,4.5,3.3s2.3,3,3,4.8,1.1,3.8,1.1,5.8,0,.4,0,.7v.5h-25.8c.1,1.7.5,3.3,1.2,4.7s1.5,2.7,2.6,3.8c1,1.1,2.2,1.9,3.6,2.5s2.8.9,4.4.9,2-.1,3-.4c1-.3,1.9-.7,2.8-1.2s1.6-1.1,2.3-1.8,1.2-1.5,1.5-2.3l2.5.7c-.5,1.1-1.1,2-1.9,2.9s-1.8,1.6-2.8,2.3-2.2,1.1-3.5,1.5-2.6.5-4,.5h-.1ZM409.6,136.3c-.1-1.7-.5-3.3-1.2-4.8s-1.5-2.7-2.5-3.7-2.2-1.9-3.6-2.4c-1.4-.6-2.8-.9-4.4-.9s-3,.3-4.4.9c-1.4.6-2.5,1.4-3.6,2.4s-1.9,2.3-2.5,3.7-1,3-1.1,4.7h23.3v.1ZM397.8,116.5l-2-.9,3.5-4.8h3.3l-4.8,5.7h0Z"/>
        <path class="cls-1" d="M436.8,125.2c-2.7,0-5,.9-7,2.4s-3.3,3.5-4.1,6.1v18.4h-2.8v-29.4h2.7v7.2c1-2.1,2.4-3.8,4-5.1s3.5-2,5.4-2.2h1.8v2.7h0v-.1Z"/>
        <path class="cls-1" d="M459.7,150.7c-.2,0-.4.2-.8.4s-.8.4-1.4.6-1.2.4-1.8.5-1.4.2-2.2.2-1.5-.1-2.2-.3-1.3-.6-1.8-1-1-1-1.3-1.6-.5-1.4-.5-2.3v-22.2h-4.1v-2.3h4.1v-10.1h2.8v10.1h6.9v2.3h-6.9v21.5c0,1.1.4,1.9,1.1,2.5s1.6.8,2.6.8,2.2-.2,3-.6c.8-.4,1.4-.6,1.5-.8l.8,2.3h.2,0Z"/>
        <path class="cls-1" d="M468.8,116v-5.2h2.8v5.2h-2.8ZM468.8,152.2v-29.4h2.8v29.4h-2.8Z"/>
        <path class="cls-1" d="M484.9,110.9h2.9v35.4c0,1.1.3,2,.9,2.6s1.5,1,2.6,1,.9,0,1.5-.1c.6,0,1.1-.2,1.6-.4l.6,2.3c-.6.3-1.4.5-2.4.6s-1.8.2-2.4.2c-1.6,0-2.9-.5-3.8-1.4s-1.4-2.2-1.4-3.9v-36.3h-.1Z"/>
      </g>
      <g>
        <path class="cls-1" d="M151.7,82.7l33.8-41.2h-33.1v-7.8h43.3v6.8l-33,41.2h33.1v7.8h-44.2v-6.8h.1,0Z"/>
        <path class="cls-1" d="M214.2,90.2c-2,0-3.8-.3-5.5-1-1.7-.6-3.2-1.6-4.4-2.7-1.2-1.1-2.2-2.5-2.9-4.1s-1.1-3.3-1.1-5.1.4-3.7,1.3-5.3c.8-1.6,2-2.9,3.6-4.1,1.5-1.1,3.4-2,5.5-2.7,2.1-.7,4.5-.9,7-.9s3.9.2,5.7.5,3.6.8,5.1,1.4v-2.8c0-3-.9-5.4-2.6-7.1s-4.2-2.6-7.5-2.6-4.4.4-6.5,1.2-4.3,2-6.6,3.5l-2.7-5.5c5.3-3.6,10.8-5.3,16.5-5.3s10,1.4,13.2,4.3,4.7,7,4.7,12.4v14.8c0,1,.2,1.7.5,2.1s1,.7,1.9.7v7.4c-.8.2-1.6.3-2.3.3h-1.9c-1.7-.1-2.9-.6-3.8-1.3-.9-.8-1.4-1.8-1.6-3.1l-.2-2.6c-1.8,2.4-4.1,4.2-6.8,5.5-2.7,1.3-5.6,1.9-8.7,1.9h0v.2h.1ZM216.5,83.9c2.1,0,4.1-.4,5.9-1.1s3.3-1.8,4.4-3.2c1.1-.9,1.6-1.9,1.6-3v-5.4c-1.5-.6-3-1-4.7-1.3s-3.3-.5-4.8-.5c-3.1,0-5.6.7-7.6,2s-2.9,3.1-2.9,5.3.8,3.8,2.3,5.1c1.5,1.4,3.5,2.1,5.8,2.1h0Z"/>
        <path class="cls-1" d="M245.1,68.9c0-2.9.5-5.6,1.5-8.2s2.4-4.8,4.3-6.8c1.9-1.9,4.1-3.5,6.7-4.6s5.5-1.7,8.8-1.7,7.9.9,11,2.8,5.4,4.3,6.9,7.4l-8.4,2.7c-1-1.7-2.3-3.1-4-4-1.7-1-3.5-1.4-5.6-1.4s-3.3.3-4.8,1-2.8,1.6-3.9,2.9-2,2.7-2.6,4.4-.9,3.5-.9,5.6.3,3.8,1,5.5c.6,1.7,1.5,3.2,2.7,4.4,1.1,1.3,2.4,2.2,3.9,2.9s3.1,1.1,4.8,1.1,2.1-.1,3.1-.4c1-.3,2-.7,2.9-1.2s1.6-1.1,2.3-1.8c.6-.7,1.1-1.4,1.5-2.2l8.5,2.5c-1.4,3.1-3.6,5.6-6.8,7.6-3.2,2-7,2.9-11.3,2.9s-6.1-.6-8.7-1.7c-2.6-1.1-4.9-2.7-6.7-4.7-1.9-2-3.3-4.2-4.3-6.8s-1.5-5.3-1.5-8.2h-.4Z"/>
        <path class="cls-1" d="M302.6,90.2c-2,0-3.8-.3-5.5-1-1.7-.6-3.2-1.6-4.4-2.7-1.2-1.1-2.2-2.5-2.9-4.1-.7-1.6-1.1-3.3-1.1-5.1s.4-3.7,1.3-5.3c.8-1.6,2-2.9,3.6-4.1,1.5-1.1,3.4-2,5.5-2.7s4.5-.9,7-.9,3.9.2,5.7.5,3.6.8,5.1,1.4v-2.8c0-3-.9-5.4-2.6-7.1s-4.2-2.6-7.5-2.6-4.4.4-6.5,1.2-4.3,2-6.6,3.5l-2.7-5.5c5.3-3.6,10.8-5.3,16.5-5.3s10,1.4,13.2,4.3,4.7,7,4.7,12.4v14.8c0,1,.2,1.7.5,2.1s1,.7,1.9.7v7.4c-.8.2-1.6.3-2.3.3h-1.9c-1.7-.1-2.9-.6-3.8-1.3-.9-.8-1.4-1.8-1.6-3.1l-.2-2.6c-1.8,2.4-4.1,4.2-6.8,5.5-2.7,1.3-5.6,1.9-8.7,1.9h0v.2h.1ZM304.9,83.9c2.1,0,4.1-.4,5.9-1.1s3.3-1.8,4.4-3.2c1.1-.9,1.6-1.9,1.6-3v-5.4c-1.5-.6-3-1-4.7-1.3s-3.3-.5-4.8-.5c-3.1,0-5.6.7-7.6,2s-2.9,3.1-2.9,5.3.8,3.8,2.3,5.1c1.5,1.4,3.5,2.1,5.8,2.1h0Z"/>
        <path class="cls-1" d="M358.4,87.3c-1.1.5-2.7,1.1-4.6,1.8-1.9.6-4,1-6.2,1s-2.6-.2-3.8-.6-2.2-.9-3.1-1.6c-.9-.7-1.6-1.7-2.2-2.9s-.8-2.6-.8-4.3v-25.7h-5.5v-6.7h5.5v-13.5h8.6v13.5h9v6.7h-9v22.9c0,1.5.4,2.5,1.3,3.2s1.9,1,3.1,1,2.4-.2,3.5-.6,1.9-.8,2.4-1l1.9,6.8h-.1Z"/>
        <path class="cls-1" d="M382.7,90.2c-3.2,0-6.1-.6-8.7-1.7-2.6-1.1-4.9-2.6-6.7-4.6-1.9-1.9-3.3-4.2-4.3-6.8s-1.5-5.3-1.5-8.2.5-5.6,1.5-8.2c1-2.6,2.5-4.9,4.3-6.8,1.9-2,4.1-3.5,6.7-4.6s5.5-1.7,8.8-1.7,6.1.6,8.7,1.7,4.8,2.7,6.6,4.6c1.8,1.9,3.2,4.1,4.2,6.7,1,2.5,1.5,5.2,1.5,8s0,1.2,0,1.8-.1,1-.2,1.4h-32.9c.2,1.8.6,3.5,1.3,4.9.7,1.5,1.6,2.7,2.8,3.8,1.1,1.1,2.4,1.9,3.9,2.5,1.4.6,2.9.9,4.5.9s2.3-.1,3.4-.4c1.1-.3,2.2-.7,3.1-1.3s1.8-1.2,2.5-2,1.3-1.6,1.7-2.6l7.4,2.1c-1.4,3.1-3.8,5.6-7,7.6s-7.1,2.9-11.4,2.9h-.2,0ZM395.2,65.9c-.2-1.7-.6-3.3-1.3-4.8-.7-1.5-1.6-2.7-2.7-3.7s-2.4-1.8-3.9-2.4-3-.9-4.6-.9-3.1.3-4.6.9c-1.4.6-2.7,1.4-3.8,2.4s-2,2.3-2.7,3.7c-.7,1.5-1.1,3.1-1.3,4.8h24.9Z"/>
      </g>
    </g>
  </g>
</svg>