<?xml version="1.0" encoding="UTF-8"?>
<svg id="Layer_2" data-name="Layer 2" xmlns="http://www.w3.org/2000/svg" viewBox="0 0 197.81 197.81">
  <defs>
    <style>
      .cls-1 {
        fill: #f6f6f6;
        stroke: #000;
        stroke-miterlimit: 10;
        stroke-width: 8px;
      }
    </style>
  </defs>
  <g id="Layer_1-2" data-name="Layer 1">
    <g>
      <rect class="cls-1" x="4" y="4" width="189.81" height="189.81" rx="45.87" ry="45.87"/>
      <g>
        <path d="M43.03,117.76v-28.2h7.05v3.69h1.02c.45-.98,1.31-1.92,2.56-2.81,1.25-.89,3.15-1.34,5.68-1.34,2.2,0,4.12.5,5.77,1.51,1.65,1,2.93,2.39,3.84,4.15.91,1.76,1.36,3.82,1.36,6.17v16.83h-7.16v-16.26c0-2.12-.52-3.71-1.56-4.78-1.04-1.06-2.53-1.59-4.46-1.59-2.2,0-3.9.73-5.12,2.19-1.21,1.46-1.82,3.5-1.82,6.11v14.33h-7.16Z"/>
        <path d="M91.46,118.56c-2.8,0-5.32-.57-7.56-1.71-2.24-1.14-4-2.79-5.29-4.95-1.29-2.16-1.93-4.76-1.93-7.79v-.91c0-3.03.64-5.63,1.93-7.79,1.29-2.16,3.05-3.81,5.29-4.95,2.24-1.14,4.76-1.71,7.56-1.71s5.32.57,7.56,1.71c2.24,1.14,4,2.79,5.29,4.95,1.29,2.16,1.93,4.76,1.93,7.79v.91c0,3.03-.64,5.63-1.93,7.79-1.29,2.16-3.05,3.81-5.29,4.95-2.24,1.14-4.76,1.71-7.56,1.71ZM91.46,112.19c2.2,0,4.02-.71,5.46-2.13,1.44-1.42,2.16-3.46,2.16-6.11v-.57c0-2.65-.71-4.69-2.13-6.11-1.42-1.42-3.25-2.13-5.49-2.13s-4.02.71-5.46,2.13c-1.44,1.42-2.16,3.46-2.16,6.11v.57c0,2.65.72,4.69,2.16,6.11,1.44,1.42,3.26,2.13,5.46,2.13Z"/>
        <path d="M112.83,117.76v-39.79h7.16v39.79h-7.16Z"/>
        <path d="M141.37,118.56c-2.8,0-5.32-.57-7.56-1.71-2.24-1.14-4-2.79-5.29-4.95-1.29-2.16-1.93-4.76-1.93-7.79v-.91c0-3.03.64-5.63,1.93-7.79,1.29-2.16,3.05-3.81,5.29-4.95,2.24-1.14,4.76-1.71,7.56-1.71s5.32.57,7.56,1.71c2.24,1.14,4,2.79,5.29,4.95,1.29,2.16,1.93,4.76,1.93,7.79v.91c0,3.03-.64,5.63-1.93,7.79-1.29,2.16-3.05,3.81-5.29,4.95-2.24,1.14-4.76,1.71-7.56,1.71ZM141.37,112.19c2.2,0,4.02-.71,5.46-2.13,1.44-1.42,2.16-3.46,2.16-6.11v-.57c0-2.65-.71-4.69-2.13-6.11-1.42-1.42-3.25-2.13-5.49-2.13s-4.02.71-5.46,2.13c-1.44,1.42-2.16,3.46-2.16,6.11v.57c0,2.65.72,4.69,2.16,6.11,1.44,1.42,3.26,2.13,5.46,2.13Z"/>
      </g>
    </g>
  </g>
</svg>