<?xml version="1.0" encoding="UTF-8"?>
<svg id="Layer_2" xmlns="http://www.w3.org/2000/svg" version="1.1" viewBox="0 0 197.8 197.8">
  <!-- Generator: Adobe Illustrator 30.5.1, SVG Export Plug-In . SVG Version: 2.1.4 Build 3)  -->
  <defs>
    <style>
      .st0 {
        fill: #f6f6f6;
      }
    </style>
  </defs>
  <g id="Layer_1-2">
    <g>
      <rect class="st0" x="4" y="4" width="189.8" height="189.8" rx="45.9" ry="45.9"/>
      <path d="M147.9,197.8H49.9c-27.5,0-49.9-22.4-49.9-49.9V49.9C0,22.4,22.4,0,49.9,0h98.1c27.5,0,49.9,22.4,49.9,49.9v98.1c0,27.5-22.4,49.9-49.9,49.9ZM49.9,8c-23.1,0-41.9,18.8-41.9,41.9v98.1c0,23.1,18.8,41.9,41.9,41.9h98.1c23.1,0,41.9-18.8,41.9-41.9V49.9c0-23.1-18.8-41.9-41.9-41.9H49.9Z"/>
    </g>
    <g>
      <path d="M31.9,117.9v-33.8h8.5v4.4h1.2c.5-1.2,1.6-2.3,3.1-3.4,1.5-1.1,3.8-1.6,6.8-1.6s4.9.6,6.9,1.8c2,1.2,3.5,2.9,4.6,5,1.1,2.1,1.6,4.6,1.6,7.4v20.2h-8.6v-19.5c0-2.5-.6-4.5-1.9-5.7-1.3-1.3-3-1.9-5.4-1.9s-4.7.9-6.1,2.6c-1.5,1.8-2.2,4.2-2.2,7.3v17.2h-8.6Z"/>
      <path d="M90,118.9c-3.4,0-6.4-.7-9.1-2-2.7-1.4-4.8-3.3-6.3-5.9-1.5-2.6-2.3-5.7-2.3-9.3v-1.1c0-3.6.8-6.7,2.3-9.3,1.5-2.6,3.7-4.6,6.3-5.9,2.7-1.4,5.7-2,9.1-2s6.4.7,9.1,2c2.7,1.4,4.8,3.3,6.3,5.9,1.5,2.6,2.3,5.7,2.3,9.3v1.1c0,3.6-.8,6.7-2.3,9.3s-3.7,4.6-6.3,5.9c-2.7,1.4-5.7,2-9.1,2ZM90,111.2c2.6,0,4.8-.9,6.5-2.6,1.7-1.7,2.6-4.1,2.6-7.3v-.7c0-3.2-.9-5.6-2.6-7.3s-3.9-2.6-6.6-2.6-4.8.9-6.5,2.6c-1.7,1.7-2.6,4.1-2.6,7.3v.7c0,3.2.9,5.6,2.6,7.3,1.7,1.7,3.9,2.6,6.5,2.6Z"/>
      <path d="M115.6,117.9v-47.7h8.6v47.7h-8.6Z"/>
      <path d="M149.8,118.9c-3.4,0-6.4-.7-9.1-2-2.7-1.4-4.8-3.3-6.3-5.9-1.5-2.6-2.3-5.7-2.3-9.3v-1.1c0-3.6.8-6.7,2.3-9.3,1.5-2.6,3.7-4.6,6.3-5.9,2.7-1.4,5.7-2,9.1-2s6.4.7,9.1,2c2.7,1.4,4.8,3.3,6.3,5.9,1.5,2.6,2.3,5.7,2.3,9.3v1.1c0,3.6-.8,6.7-2.3,9.3s-3.7,4.6-6.3,5.9c-2.7,1.4-5.7,2-9.1,2ZM142.2,81l-4.7-3,2.2-3.9c.7-1.2,1.5-2,2.5-2.6,1-.5,2-.8,3.2-.8s1.9.2,2.6.6c.8.4,1.5.9,2.2,1.5.4.4.9.7,1.3,1.1.5.4,1,.5,1.6.5s1.2-.2,1.7-.7c.4-.5.8-.9,1.1-1.4l1.1-1.6,4.7,3-2.2,3.9c-.7,1.1-1.5,2-2.5,2.5-1,.5-2,.8-3.2.8s-1.9-.2-2.6-.6c-.8-.4-1.5-.9-2.2-1.5-.4-.4-.8-.7-1.3-1.1-.5-.4-1-.5-1.6-.5s-1.2.2-1.6.7c-.4.5-.8.9-1.2,1.4l-1.1,1.6ZM149.8,111.2c2.6,0,4.8-.9,6.5-2.6,1.7-1.7,2.6-4.1,2.6-7.3v-.7c0-3.2-.9-5.6-2.6-7.3-1.7-1.7-3.9-2.6-6.6-2.6s-4.8.9-6.5,2.6c-1.7,1.7-2.6,4.1-2.6,7.3v.7c0,3.2.9,5.6,2.6,7.3,1.7,1.7,3.9,2.6,6.5,2.6Z"/>
    </g>
  </g>
</svg>