<?xml version="1.0" encoding="UTF-8"?>
<svg id="Layer_2" data-name="Layer 2" xmlns="http://www.w3.org/2000/svg" viewBox="0 0 262.81 262.81">
  <defs>
    <style>
      .cls-1 {
        fill: #f6f6f6;
        stroke: #000;
        stroke-miterlimit: 10;
        stroke-width: 8px;
      }
    </style>
  </defs>
  <g id="Layer_1-2" data-name="Layer 1">
    <g>
      <circle class="cls-1" cx="131.41" cy="131.41" r="127.41"/>
      <g>
        <path d="M55.59,157.92v-38.25h9.56v5.01h1.39c.62-1.34,1.77-2.61,3.47-3.82,1.7-1.21,4.27-1.81,7.71-1.81,2.98,0,5.59.68,7.83,2.04,2.24,1.36,3.97,3.24,5.21,5.63,1.23,2.39,1.85,5.18,1.85,8.37v22.83h-9.72v-22.06c0-2.88-.71-5.04-2.12-6.48-1.41-1.44-3.43-2.16-6.05-2.16-2.98,0-5.3.99-6.94,2.97-1.65,1.98-2.47,4.74-2.47,8.29v19.44h-9.72Z"/>
        <path d="M121.3,159c-3.81,0-7.22-.77-10.26-2.31-3.03-1.54-5.43-3.78-7.17-6.71-1.75-2.93-2.62-6.45-2.62-10.57v-1.23c0-4.11.87-7.64,2.62-10.57,1.75-2.93,4.14-5.17,7.17-6.71,3.03-1.54,6.45-2.31,10.26-2.31s7.22.77,10.26,2.31c3.03,1.54,5.42,3.78,7.17,6.71,1.75,2.93,2.62,6.45,2.62,10.57v1.23c0,4.11-.88,7.64-2.62,10.57-1.75,2.93-4.14,5.17-7.17,6.71-3.03,1.54-6.45,2.31-10.26,2.31ZM121.3,150.37c2.98,0,5.45-.96,7.4-2.89,1.95-1.93,2.93-4.69,2.93-8.29v-.77c0-3.6-.96-6.36-2.89-8.29-1.93-1.93-4.41-2.89-7.44-2.89s-5.45.96-7.4,2.89c-1.95,1.93-2.93,4.69-2.93,8.29v.77c0,3.6.98,6.36,2.93,8.29,1.95,1.93,4.42,2.89,7.4,2.89Z"/>
        <path d="M150.3,157.92v-53.99h9.72v53.99h-9.72Z"/>
        <path d="M189.02,159c-3.81,0-7.22-.77-10.26-2.31-3.03-1.54-5.43-3.78-7.17-6.71-1.75-2.93-2.62-6.45-2.62-10.57v-1.23c0-4.11.87-7.64,2.62-10.57,1.75-2.93,4.14-5.17,7.17-6.71,3.03-1.54,6.45-2.31,10.26-2.31s7.22.77,10.26,2.31c3.03,1.54,5.42,3.78,7.17,6.71,1.75,2.93,2.62,6.45,2.62,10.57v1.23c0,4.11-.88,7.64-2.62,10.57-1.75,2.93-4.14,5.17-7.17,6.71-3.03,1.54-6.45,2.31-10.26,2.31ZM189.02,150.37c2.98,0,5.45-.96,7.4-2.89,1.95-1.93,2.93-4.69,2.93-8.29v-.77c0-3.6-.96-6.36-2.89-8.29-1.93-1.93-4.41-2.89-7.44-2.89s-5.45.96-7.4,2.89c-1.95,1.93-2.93,4.69-2.93,8.29v.77c0,3.6.98,6.36,2.93,8.29,1.95,1.93,4.42,2.89,7.4,2.89Z"/>
      </g>
    </g>
  </g>
</svg>