<?xml version="1.0" encoding="UTF-8"?>
<svg id="Layer_2" xmlns="http://www.w3.org/2000/svg" version="1.1" viewBox="0 0 262.8 262.8">
  <!-- Generator: Adobe Illustrator 30.5.1, SVG Export Plug-In . SVG Version: 2.1.4 Build 3)  -->
  <defs>
    <style>
      .st0 {
        fill: #f6f6f6;
        stroke: #000;
        stroke-miterlimit: 10;
        stroke-width: 8px;
      }
    </style>
  </defs>
  <g id="Layer_1-2">
    <g>
      <circle class="st0" cx="131.4" cy="131.4" r="127.4"/>
      <g>
        <path d="M45.9,160.9v-42.7h10.7v5.6h1.5c.6-1.5,2-2.9,3.9-4.3s4.8-2,8.6-2,6.2.8,8.7,2.3c2.5,1.5,4.4,3.7,5.8,6.3s2,5.8,2,9.3v25.5h-10.9v-24.6c0-3.2-.8-5.7-2.4-7.2-1.6-1.6-3.8-2.4-6.8-2.4s-5.9,1.1-7.7,3.3c-1.9,2.3-2.8,5.3-2.8,9.2v21.7h-10.9.1Z"/>
        <path d="M119.2,162.2c-4.3,0-8.1-.9-11.5-2.5-3.4-1.8-6.1-4.2-8-7.5s-2.9-7.2-2.9-11.7v-1.4c0-4.5,1-8.5,2.9-11.7,1.9-3.3,4.7-5.8,8-7.5,3.4-1.8,7.2-2.5,11.5-2.5s8.1.9,11.5,2.5c3.4,1.8,6.1,4.2,8,7.5s2.9,7.2,2.9,11.7v1.4c0,4.5-1,8.5-2.9,11.7s-4.7,5.8-8,7.5c-3.4,1.8-7.2,2.5-11.5,2.5ZM119.2,152.4c3.3,0,6.1-1.1,8.2-3.3s3.3-5.2,3.3-9.2v-.9c0-4-1.1-7.1-3.3-9.2s-4.9-3.3-8.3-3.3-6.1,1.1-8.2,3.3-3.3,5.2-3.3,9.2v.9c0,4,1.1,7.1,3.3,9.2,2.1,2.1,4.9,3.3,8.2,3.3h.1Z"/>
        <path d="M151.6,160.9v-60.2h10.9v60.2s-10.9,0-10.9,0Z"/>
        <path d="M194.7,162.2c-4.3,0-8.1-.9-11.5-2.5-3.4-1.8-6.1-4.2-8-7.5s-2.9-7.2-2.9-11.7v-1.4c0-4.5,1-8.5,2.9-11.7,1.9-3.3,4.7-5.8,8-7.5,3.4-1.8,7.2-2.5,11.5-2.5s8.1.9,11.5,2.5c3.4,1.8,6.1,4.2,8,7.5s2.9,7.2,2.9,11.7v1.4c0,4.5-1,8.5-2.9,11.7s-4.7,5.8-8,7.5c-3.4,1.8-7.2,2.5-11.5,2.5ZM185.1,114.3l-5.9-3.8,2.8-4.9c.9-1.5,1.9-2.5,3.2-3.3,1.3-.6,2.5-1,4-1s2.4.3,3.3.8c1,.5,1.9,1.1,2.8,1.9.5.5,1.1.9,1.6,1.4.6.5,1.3.6,2,.6s1.5-.3,2.1-.9c.5-.6,1-1.1,1.4-1.8l1.4-2,5.9,3.8-2.8,4.9c-.9,1.4-1.9,2.5-3.2,3.2s-2.5,1-4,1-2.4-.3-3.3-.8c-1-.5-1.9-1.1-2.8-1.9-.5-.5-1-.9-1.6-1.4s-1.3-.6-2-.6-1.5.3-2,.9c-.5.6-1,1.1-1.5,1.8l-1.4,2h0ZM194.7,152.4c3.3,0,6.1-1.1,8.2-3.3s3.3-5.2,3.3-9.2v-.9c0-4-1.1-7.1-3.3-9.2-2.1-2.1-4.9-3.3-8.3-3.3s-6.1,1.1-8.2,3.3-3.3,5.2-3.3,9.2v.9c0,4,1.1,7.1,3.3,9.2,2.1,2.1,4.9,3.3,8.2,3.3h.1Z"/>
      </g>
    </g>
  </g>
</svg>