<?xml version="1.0" encoding="UTF-8"?>
<svg id="Layer_2" data-name="Layer 2" xmlns="http://www.w3.org/2000/svg" xmlns:xlink="http://www.w3.org/1999/xlink" viewBox="0 0 1890.88 1109.74">
  <defs>
    <style>
      .cls-1 {
        fill: none;
      }

      .cls-2 {
        fill: #f4b32e;
      }

      .cls-3 {
        fill: #fff;
      }

      .cls-4 {
        fill: #76addd;
      }

      .cls-5 {
        fill: #843413;
      }

      .cls-6 {
        clip-path: url(#clippath);
      }
    </style>
    <clipPath id="clippath">
      <rect class="cls-1" x="40.86" y="31.22" width="1818.19" height="1047.31" rx="123.26" ry="123.26"/>
    </clipPath>
  </defs>
  <g id="Flag">
    <g>
      <rect class="cls-3" x="0" width="1890.88" height="1109.74" rx="146.17" ry="146.17"/>
      <g class="cls-6">
        <g>
          <rect class="cls-4" x="-45.04" y="33.63" width="1990" height="1050"/>
          <rect class="cls-3" x="-45.04" y="349.17" width="1990" height="443.48"/>
          <g>
            <g>
              <g>
                <path class="cls-2" d="M946.35,391.28c-2.92,3.71-4.73,98.55-4.73,108.83h11.01s.84-101.26-2.78-109.24c-1.71-3.47-3.5.4-3.5.4Z"/>
                <path class="cls-5" d="M953.25,500.76h-12.25v-.64c0-5.53,1.62-105.12,4.87-109.24.02-.1.98-2.08,2.43-2.08.81,0,1.52.6,2.11,1.79,3.65,8.04,2.88,105.39,2.85,109.53v.64ZM942.25,499.47h9.77c.06-8.64.65-100.89-2.73-108.31-.33-.67-.7-1.07-.99-1.07-.47,0-1.11.88-1.38,1.48-2.7,3.63-4.61,93.35-4.66,107.91Z"/>
              </g>
              <polygon class="cls-5" points="946.42 499.85 946.97 434.55 948.06 499.67 946.42 499.85"/>
            </g>
            <g>
              <g>
                <path class="cls-2" d="M878.4,406.49c-1.23,4.61,34.1,92.15,38.11,101.56l10.08-4.59s-38.7-93.01-45.13-98.8c-2.92-2.46-3.05,1.83-3.05,1.83Z"/>
                <path class="cls-5" d="M916.18,508.9l-.25-.59c-2.15-5.06-39.5-96.88-38.13-101.99.02-1.04.5-3.06,2.09-3.06.59,0,1.24.3,1.96.91,6.48,5.83,43.73,95.24,45.31,99.04l.24.59-11.21,5.11ZM879.88,404.54c-.59,0-.84,1.35-.86,1.97-1.05,4.45,32.18,87.34,37.81,100.69l8.94-4.08c-3.31-7.93-38.74-92.59-44.72-97.98-.62-.52-.99-.6-1.16-.6Z"/>
              </g>
              <polygon class="cls-5" points="920.79 505.81 895.84 445.82 922.22 504.95 920.79 505.81"/>
            </g>
            <g>
              <g>
                <path class="cls-2" d="M1015.1,406.46c-4.12,2.17-42.8,88.18-46.81,97.59l10.07,4.6s40.3-92.28,40.1-101.09c-.21-3.89-3.36-1.09-3.36-1.09Z"/>
                <path class="cls-5" d="M978.67,509.49l-11.21-5.12.25-.59c2.16-5.05,42.52-95.49,47.1-97.9,0-.03,1.18-1.04,2.32-1.04.67,0,1.82.35,1.96,2.67.19,8.88-38.51,97.62-40.16,101.4l-.26.58ZM969.11,503.72l8.93,4.08c3.43-7.87,39.98-92.02,39.8-100.23-.05-.95-.29-1.44-.71-1.44-.57,0-1.39.6-1.63.82-3.89,2.19-40.66,83.48-46.39,96.77Z"/>
              </g>
              <polygon class="cls-5" points="972.77 505.81 998.77 446.3 974.35 506.33 972.77 505.81"/>
            </g>
            <g>
              <g>
                <path class="cls-2" d="M1069.25,443.6c-4.6.48-70.84,66.09-77.88,73.35l7.78,8.07s69.95-70.85,72.85-79.13c1.16-3.7-2.75-2.29-2.75-2.29Z"/>
                <path class="cls-5" d="M999.14,525.93l-8.65-8.98.44-.45c3.78-3.9,73.07-72.92,78.25-73.53-.04,0,.74-.27,1.54-.27,1.01,0,1.52.42,1.77.78.43.61.46,1.46.1,2.62-2.93,8.35-70.15,76.5-73.01,79.39l-.44.45ZM992.26,516.95l6.9,7.16c5.96-6.05,69.56-70.73,72.26-78.45.21-.67.24-1.2.07-1.44-.14-.21-.49-.25-.76-.25-.62,0-1.26.23-1.27.23-4.39.58-67.19,62.51-77.2,72.74Z"/>
              </g>
              <polygon class="cls-5" points="994.94 520.28 1040.06 474.59 996.22 521.35 994.94 520.28"/>
            </g>
            <g>
              <g>
                <path class="cls-2" d="M985.47,395.87c-2.91-.11-12.31,5.48-12.63,17.41-.31,11.93-2.18,24.98-3.43,29.17-1.25,4.19-8.74,22.68-11,33.27-2.19,10.25-2.25,24.6-2.25,24.6l10.44,2.74s2.2-16.6,2.04-21.76c-.16-5.16,6.97-27.96,8.71-32.56,2.5-6.61,2.34-17.41,1.72-24.5-.63-7.09-3.9-13.86.47-18.54,4.18-4.47,10.13-9.67,5.92-9.83Z"/>
                <path class="cls-5" d="M967.13,503.86l-11.59-3.04v-.5c0-.15.09-14.54,2.26-24.73,1.6-7.48,5.78-18.86,8.55-26.39,1.17-3.19,2.1-5.7,2.47-6.93,1.21-4.07,3.09-17.07,3.4-29,.31-11.71,9.47-18.03,13.16-18.03,1.16.04,1.82.39,2.06,1.03.58,1.53-1.51,3.77-5.23,7.6-.75.77-1.51,1.54-2.21,2.3-2.94,3.16-2.14,7.38-1.19,12.27.36,1.86.73,3.79.9,5.76.34,3.83,1.21,16.95-1.75,24.79-1.86,4.95-8.82,27.34-8.67,32.3.16,5.15-1.96,21.19-2.05,21.87l-.09.72ZM956.79,499.81l9.29,2.44c.42-3.23,2.08-16.5,1.94-20.94-.16-5.35,7.01-28.18,8.76-32.81,2.86-7.58,2-20.44,1.67-24.21-.17-1.9-.53-3.79-.88-5.63-.96-5.02-1.87-9.77,1.52-13.42.71-.76,1.47-1.54,2.23-2.32,1.96-2.02,5.25-5.4,4.95-6.21-.02-.04-.2-.18-.83-.21h0c-2.74,0-11.68,5.23-11.98,16.78-.31,12.04-2.22,25.21-3.45,29.35-.38,1.27-1.31,3.8-2.49,7.01-2.75,7.49-6.92,18.82-8.49,26.21-1.92,8.99-2.19,21.33-2.23,23.95Z"/>
              </g>
              <path class="cls-5" d="M961.16,500.96s-.47-9.67.16-14.83c0,0,.47-16.44,9.04-32.56,3.27-6.61,3.74-10.64,4.21-12.73,0,0-.78,7.09-3.58,13.54-2.81,6.45-7.79,14.18-8.73,38.04l.31,9.51-1.4-.97Z"/>
            </g>
            <g>
              <g>
                <path class="cls-2" d="M1047.36,425.06c-2.64-1.28-13.4.09-18.19,10.95-4.78,10.86-11.42,22.13-14.14,25.49-2.73,3.36-16.59,17.37-22.66,26.21-5.88,8.56-11.33,21.75-11.33,21.75l8.58,6.73s8.28-14.41,10.08-19.22c1.8-4.81,16.95-22.94,20.28-26.47,4.78-5.08,8.71-15.09,10.81-21.87,2.09-6.78,1.63-14.34,7.41-16.88,5.53-2.44,12.97-4.83,9.16-6.67Z"/>
                <path class="cls-5" d="M989.79,517.13l-9.53-7.47.19-.46c.05-.13,5.55-13.35,11.4-21.87,4.29-6.24,12.43-15.04,17.82-20.86,2.28-2.46,4.08-4.4,4.87-5.39,2.65-3.26,9.28-14.48,14.05-25.34,4.07-9.25,12.24-11.72,16.41-11.72,1.09,0,1.99.16,2.6.45.95.46,1.43,1.04,1.4,1.73-.04,1.64-2.8,2.86-7.68,4.89-.98.4-1.96.81-2.9,1.23-3.91,1.72-4.75,5.94-5.73,10.82-.37,1.86-.75,3.79-1.34,5.67-1.13,3.66-5.27,16.09-10.95,22.13-3.58,3.8-18.41,21.62-20.15,26.26-1.8,4.81-9.79,18.73-10.13,19.32l-.35.62ZM981.8,509.24l7.64,5.99c1.6-2.81,8.13-14.36,9.68-18.5,1.87-5,17.07-23.14,20.42-26.69,5.5-5.84,9.55-18.02,10.66-21.62.56-1.82.94-3.71,1.31-5.54,1-5.02,1.95-9.76,6.46-11.75.94-.41,1.94-.83,2.92-1.24,2.57-1.07,6.88-2.85,6.9-3.73,0-.04-.11-.25-.68-.53-2.39-1.14-12.68.02-17.35,10.63-4.82,10.96-11.54,22.32-14.24,25.64-.82,1.02-2.63,2.97-4.92,5.45-5.36,5.79-13.47,14.55-17.7,20.72-5.16,7.51-10.05,18.76-11.08,21.17Z"/>
              </g>
              <path class="cls-5" d="M985.38,512.05s3.21-9.1,5.73-13.6c0,0,6.62-14.95,20.59-26.34,5.5-4.77,7.45-8.29,8.67-10.03,0,0-3.39,6.22-8.4,11.02-5.01,4.81-12.52,9.92-22.36,31.52l-3.3,8.88-.93-1.46Z"/>
            </g>
            <g>
              <g>
                <path class="cls-2" d="M1107.83,504.48c-4.38-1.53-90.89,30.01-100.19,33.61l3.87,10.67s91.96-34.71,97.92-41.02c2.54-2.88-1.59-3.26-1.59-3.26Z"/>
                <path class="cls-5" d="M1011.14,549.58l-4.3-11.87.58-.23c7.93-3.07,91.8-33.71,99.96-33.71.26,0,.47.03.65.09.12-.03,2.21.23,2.73,1.6.3.79,0,1.7-.87,2.7-6,6.36-94.41,39.78-98.17,41.2l-.58.22ZM1008.44,538.47l3.43,9.46c7.84-2.97,91.56-34.77,97.1-40.65.5-.56.73-1.06.62-1.34-.17-.46-1.19-.76-1.83-.82-.15-.03-.21-.05-.39-.05-7.46,0-86.09,28.49-98.94,33.4Z"/>
              </g>
              <polygon class="cls-5" points="1009.56 542.65 1068.88 520.27 1010.31 544.17 1009.56 542.65"/>
            </g>
            <g>
              <g>
                <path class="cls-2" d="M1120.55,570.31c-3.58-3.03-95.28-4.97-105.21-4.98v11.39s97.88.96,105.6-2.78c3.35-1.77-.39-3.63-.39-3.63Z"/>
                <path class="cls-5" d="M1041.73,577.47h0c-14.99,0-26.29-.11-26.41-.11h-.62s.01-12.68.01-12.68h.62c5.34,0,101.63,1.77,105.61,5.13.09.03,1.99,1.01,2.01,2.49,0,.85-.58,1.59-1.74,2.21-5.05,2.45-46.02,2.96-79.49,2.96ZM1015.95,576.08c2.56.02,12.78.1,25.78.1,47.14,0,75.18-1,78.95-2.83.66-.35,1.04-.73,1.04-1.03,0-.49-.86-1.14-1.43-1.43-3.51-2.8-90.25-4.84-104.32-4.92v10.1Z"/>
              </g>
              <polygon class="cls-5" points="1015.59 570.29 1078.72 570.92 1015.76 571.99 1015.59 570.29"/>
            </g>
            <g>
              <g>
                <path class="cls-2" d="M1094.12,475.65c-1.96-2.23-12.4-5.27-20.86,2.84-8.46,8.11-18.8,15.85-22.57,17.86-3.76,2.01-21.78,9.4-30.68,15.13-8.62,5.55-18.57,15.53-18.57,15.53l5.4,9.64s13.02-9.98,16.47-13.71c3.46-3.72,24.2-14.39,28.6-16.32,6.31-2.78,13.67-10.44,18.13-15.86,4.46-5.42,6.86-12.57,13.14-12.62,6.01-.04,13.77.73,10.94-2.49Z"/>
                <path class="cls-5" d="M1006.66,537.59l-6-10.7.35-.35c.1-.1,10.1-10.1,18.68-15.62,6.29-4.04,17.07-8.91,24.22-12.12,3.02-1.36,5.41-2.44,6.51-3.03,3.66-1.95,13.96-9.65,22.42-17.76,4.72-4.52,9.77-5.47,13.18-5.47,4.09,0,7.41,1.34,8.57,2.67.7.8.92,1.52.65,2.15-.52,1.23-2.72,1.47-6.32,1.47-.84,0-1.72-.01-2.59-.03-.89-.01-1.79-.03-2.66-.03h-.47c-4.25.03-6.6,3.58-9.32,7.7-1.04,1.57-2.11,3.19-3.35,4.69-2.42,2.93-10.88,12.74-18.37,16.04-4.72,2.08-25.06,12.6-28.39,16.18-3.45,3.72-16.02,13.36-16.55,13.77l-.56.43ZM1002.23,527.12l4.81,8.57c2.53-1.95,12.86-10,15.83-13.2,3.58-3.86,24.38-14.52,28.8-16.47,7.24-3.18,15.53-12.81,17.9-15.69,1.2-1.45,2.25-3.04,3.27-4.59,2.8-4.23,5.45-8.22,10.34-8.25h.48c.88,0,1.78.01,2.68.03.88.01,1.75.03,2.58.03,4.4,0,5.09-.49,5.18-.71.02-.04-.01-.28-.44-.76-.82-.93-3.73-2.25-7.65-2.25-3.18,0-7.91.89-12.33,5.12-8.54,8.18-18.98,15.98-22.7,17.96-1.14.61-3.55,1.69-6.59,3.06-7.11,3.2-17.85,8.04-24.06,12.04-7.56,4.87-16.28,13.29-18.11,15.1Z"/>
              </g>
              <path class="cls-5" d="M1004.48,531.15s6.36-7.11,10.36-10.25c0,0,11.69-11.15,28.83-16.08,6.85-2.2,9.97-4.67,11.74-5.79,0,0-5.44,4.38-11.86,6.82-6.42,2.43-15.25,4.16-32.4,20.14l-6.36,6.88-.32-1.71Z"/>
            </g>
            <g>
              <g>
                <path class="cls-2" d="M1117.22,541.82c-.96-2.84-9.43-9.85-20.28-5.79-10.85,4.06-23.28,7.03-27.51,7.36-4.23.33-23.61-.12-33.96,1.57-10.02,1.63-22.96,6.82-22.96,6.82l1.35,11.05s15.75-3.95,20.33-5.99c4.59-2.03,27.71-3.5,32.48-3.51,6.86-.01,16.52-4.11,22.68-7.3,6.15-3.19,11.05-8.82,16.85-6.32,5.55,2.39,12.41,6.22,11.02,2.11Z"/>
                <path class="cls-5" d="M1013.33,563.63l-1.5-12.27.46-.18c.13-.05,13.11-5.23,23.08-6.86,7.32-1.19,19.08-1.32,26.87-1.41,3.3-.04,5.9-.06,7.14-.16,4.1-.32,16.49-3.26,27.34-7.32,2.26-.84,4.55-1.27,6.83-1.27,7.69,0,13.36,4.86,14.25,7.46.3.89.29,1.56-.05,2.04-.28.42-.76.63-1.42.63h0c-1.61,0-4.47-1.3-7.5-2.69-.97-.44-1.94-.88-2.88-1.29-.89-.38-1.78-.57-2.7-.57-2.89,0-5.75,1.89-8.77,3.9-1.55,1.03-3.15,2.09-4.85,2.98-3.33,1.72-14.81,7.35-22.96,7.37-5.13.01-27.83,1.5-32.24,3.46-4.58,2.03-19.79,5.86-20.44,6.02l-.68.17ZM1013.19,552.2l1.2,9.83c3.06-.78,15.61-4.03,19.56-5.78,4.75-2.11,27.93-3.55,32.73-3.56,7.87-.02,19.13-5.54,22.4-7.24,1.65-.85,3.22-1.9,4.74-2.91,3.18-2.11,6.19-4.1,9.45-4.1,1.08,0,2.15.23,3.18.67.95.41,1.93.85,2.9,1.3,2.78,1.27,5.65,2.57,7,2.57.28,0,.38-.06.4-.08.03-.05.07-.3-.12-.87-.61-1.82-5.56-6.59-13.06-6.59-2.14,0-4.29.4-6.41,1.19-10.95,4.1-23.5,7.07-27.67,7.4-1.28.1-3.9.13-7.22.17-7.75.08-19.47.22-26.69,1.39-8.79,1.44-20,5.68-22.38,6.61Z"/>
              </g>
              <path class="cls-5" d="M1013.75,556.82s8.53-3.98,13.4-5.27c0,0,14.97-5.56,32.61-3.2,7.14.74,10.94-.29,13-.6,0,0-6.67,1.84-13.5,1.5-6.83-.35-15.61-2.32-37.42,5.5l-8.44,3.78.36-1.7Z"/>
            </g>
            <g>
              <g>
                <path class="cls-2" d="M1107.36,641.38c-2.13-4.25-85.57-43.64-94.69-47.72l-4.38,10.45s89.51,41.02,98.02,40.75c3.76-.25,1.04-3.49,1.04-3.49Z"/>
                <path class="cls-5" d="M1106.24,645.51c-9.05,0-94.56-39.15-98.19-40.81l-.56-.26,4.87-11.63.58.26c4.9,2.2,92.62,43.3,94.99,48.02.07.06,1.44,1.75.89,3.12-.32.78-1.14,1.23-2.44,1.31h-.12ZM1009.12,603.78c7.6,3.48,88.7,40.44,97.12,40.44v.65l.06-.65c.74-.05,1.24-.24,1.35-.52.18-.45-.35-1.4-.77-1.9-2.15-4.01-81-41.45-93.89-47.29l-3.88,9.28Z"/>
              </g>
              <polygon class="cls-5" points="1011 598.32 1068.72 624.78 1010.51 599.95 1011 598.32"/>
            </g>
            <g>
              <g>
                <path class="cls-2" d="M1116.78,610.24c.09-3.01-5.39-12.69-16.92-12.93-11.53-.24-24.17-2.08-28.23-3.34-4.06-1.26-21.99-8.87-32.24-11.14-9.92-2.19-23.8-2.15-23.8-2.15l-2.57,10.82s16.07,2.16,21.05,1.96c4.98-.2,27.08,7.01,31.54,8.77,6.41,2.53,16.85,2.29,23.7,1.6,6.85-.7,13.37-4.13,17.92.35,4.36,4.29,9.42,10.41,9.55,6.05Z"/>
                <path class="cls-5" d="M1115.89,612.38h0c-1.47,0-3.56-2.07-6.85-5.46-.75-.77-1.5-1.54-2.24-2.27-1.45-1.42-3.2-2.09-5.53-2.09-1.95,0-4.08.45-6.34.94-1.8.38-3.66.78-5.56.97-2.12.22-5.42.47-9.15.47-4.33,0-10.42-.37-14.83-2.11-4.62-1.83-25.93-8.74-31.1-8.74h-.19c-5.01.19-20.53-1.88-21.16-1.96l-.69-.09,2.85-12.01h.49c1.51,0,14.41.06,23.93,2.16,7.24,1.6,18.27,5.84,25.57,8.65,3.09,1.19,5.53,2.13,6.73,2.5,3.94,1.22,16.52,3.07,28.06,3.31,5.32.11,10.2,2.28,13.73,6.12,2.56,2.78,3.85,5.87,3.8,7.47-.05,1.84-.96,2.12-1.51,2.12ZM1101.26,601.28c2.67,0,4.7.77,6.39,2.44.74.73,1.51,1.51,2.26,2.29,2.21,2.26,4.95,5.08,5.97,5.08.23,0,.26-.72.26-.87.03-1.05-.88-3.74-3.46-6.55-2.33-2.54-6.46-5.59-12.85-5.72-11.64-.24-24.39-2.12-28.4-3.36-1.23-.38-3.69-1.33-6.8-2.53-7.26-2.79-18.24-7.02-25.39-8.6-8.73-1.93-20.73-2.11-23.18-2.13l-2.29,9.62c3.13.41,15.92,2.04,20.26,1.86h.24c5.55,0,27.23,7.11,31.55,8.82,3.35,1.32,8.33,2.02,14.39,2.02,3.67,0,6.94-.25,9.02-.46,1.84-.18,3.67-.58,5.43-.95,2.32-.5,4.52-.96,6.59-.96Z"/>
              </g>
              <path class="cls-5" d="M1014.99,585.85s9.35-.55,14.34.05c0,0,15.9.37,31.54,9.12,6.41,3.34,10.32,3.79,12.34,4.26,0,0-6.86-.76-13.12-3.61-6.25-2.86-13.77-7.96-36.84-8.75l-9.19.39.93-1.46Z"/>
            </g>
            <g>
              <g>
                <path class="cls-2" d="M1070.1,696.81c-.52-4.75-64.92-72.3-72.04-79.48l-7.69,8.16s69.5,71.31,77.56,74.2c3.6,1.15,2.17-2.88,2.17-2.88Z"/>
                <path class="cls-5" d="M1069.05,700.54c-.39,0-.81-.08-1.31-.24-8.11-2.91-74.97-71.44-77.81-74.36l-.44-.45,8.55-9.08.45.45c3.82,3.86,71.64,74.6,72.22,79.86.04.06.67,1.93-.09,3.04-.23.35-.7.76-1.58.76ZM991.25,625.48c5.94,6.07,69.39,70.91,76.89,73.6.35.11.66.17.92.17.41,0,.52-.15.56-.21.27-.41.1-1.42-.1-2.01-.63-4.53-61.41-68.57-71.44-78.78l-6.82,7.24Z"/>
              </g>
              <polygon class="cls-5" points="994.89 621.07 1039.71 667.06 993.87 622.41 994.89 621.07"/>
            </g>
            <g>
              <g>
                <path class="cls-2" d="M1012.72,738.22c1.34-4.58-31.89-93-35.67-102.5l-10.19,4.33s36.48,93.97,42.77,99.92c2.86,2.53,3.09-1.75,3.09-1.75Z"/>
                <path class="cls-5" d="M1011.2,741.42h0c-.61,0-1.25-.31-1.98-.96-6.34-6-41.44-96.33-42.94-100.17l-.23-.59,11.33-4.82.24.6c2.03,5.11,37.18,97.86,35.69,102.94-.04,1.02-.56,3.01-2.12,3.01ZM967.67,640.4c3.12,8.01,36.52,93.55,42.38,99.09.61.55.99.63,1.15.63.6,0,.87-1.43.89-1.95,1.16-4.42-30.09-88.14-35.39-101.62l-9.04,3.84Z"/>
              </g>
              <polygon class="cls-5" points="972.7 637.85 996.22 698.45 971.25 638.66 972.7 637.85"/>
            </g>
            <g>
              <g>
                <path class="cls-2" d="M1040.46,722.69c2.09-2.09,4.7-12.98-3.41-21.47-8.11-8.49-15.92-18.93-17.98-22.76-2.06-3.83-9.78-22.22-15.6-31.24-5.63-8.73-15.6-18.71-15.6-18.71l-9.14,5.9s10.07,13.14,13.77,16.59c3.71,3.45,14.68,24.56,16.69,29.04,2.88,6.43,10.52,13.8,15.9,18.24,5.38,4.45,12.36,6.69,12.61,13.18.23,6.21-.26,14.26,2.76,11.23Z"/>
                <path class="cls-5" d="M1039.33,724h0c-2.02,0-2.08-3.89-2.17-9.27-.02-1.09-.04-2.19-.08-3.24-.16-4.39-3.67-6.71-7.73-9.39-1.55-1.02-3.15-2.08-4.64-3.31-2.91-2.4-12.65-10.83-16.08-18.48-2.16-4.81-12.96-25.5-16.53-28.83-3.7-3.45-13.43-16.13-13.84-16.67l-.43-.57,10.14-6.55.35.35c.1.1,10.08,10.12,15.69,18.81,4.11,6.37,9.16,17.37,12.49,24.65,1.41,3.08,2.52,5.51,3.13,6.63,2,3.72,9.77,14.12,17.88,22.62,3.74,3.92,5.77,8.99,5.71,14.29-.04,3.84-1.2,6.98-2.31,8.1-.57.57-1.08.84-1.57.84ZM979.66,634.58c1.97,2.55,10.07,12.98,13.26,15.95,3.85,3.59,14.82,24.75,16.83,29.25,3.31,7.39,12.88,15.65,15.73,18.01,1.44,1.19,3.01,2.23,4.54,3.24,4.17,2.76,8.11,5.36,8.3,10.42.04,1.06.05,2.17.07,3.27.04,2.4.13,8,.93,8,.02,0,.24-.01.7-.48.73-.73,1.9-3.32,1.94-7.19.04-3.5-.86-8.66-5.35-13.37-8.18-8.57-16.04-19.11-18.08-22.9-.62-1.16-1.75-3.61-3.16-6.7-3.32-7.25-8.35-18.2-12.41-24.49-4.94-7.66-13.36-16.4-15.17-18.25l-8.13,5.24Z"/>
              </g>
              <path class="cls-5" d="M983.98,631.79s7.07,6.35,10.24,10.38c0,0,11.15,11.73,16.46,29.29,2.35,7.02,4.83,10.16,5.97,11.96,0,0-4.41-5.49-6.96-12.05-2.56-6.56-4.5-15.64-20.5-32.85l-6.85-6.35,1.65-.38Z"/>
            </g>
            <g>
              <g>
                <path class="cls-2" d="M1089.35,674.54c1.21-2.74-.18-13.86-10.71-18.73-10.53-4.87-21.48-11.65-24.74-14.45-3.27-2.8-16.91-17.03-25.5-23.25-8.32-6.02-21.11-11.57-21.11-11.57l-6.44,8.93s13.99,8.46,18.65,10.29c4.67,1.83,22.3,17.37,25.74,20.79,4.95,4.91,14.65,8.9,21.23,11.02,6.57,2.12,13.87,1.59,16.38,7.54,2.4,5.7,4.76,13.38,6.51,9.42Z"/>
                <path class="cls-5" d="M1088.28,676.27c-1.6,0-2.81-2.86-4.81-7.91-.4-1.01-.81-2.03-1.21-2.99-1.69-4.02-5.77-4.87-10.5-5.84-1.8-.37-3.67-.76-5.49-1.34-3.56-1.15-15.6-5.34-21.47-11.17-3.7-3.68-21.04-18.89-25.53-20.65-4.66-1.82-18.18-9.99-18.75-10.33l-.6-.36,7.16-9.91.45.19c.13.05,12.95,5.64,21.23,11.63,6.06,4.39,14.62,12.73,20.28,18.26,2.41,2.35,4.31,4.2,5.26,5.02,3.17,2.72,14.06,9.49,24.6,14.36,4.86,2.24,8.53,6.21,10.34,11.16,1.31,3.59,1.33,6.95.69,8.42-.43.97-.98,1.47-1.64,1.47ZM1001.75,615.28c2.73,1.64,13.94,8.31,17.96,9.88,4.84,1.9,22.49,17.49,25.95,20.93,5.68,5.64,17.5,9.74,20.98,10.87,1.76.57,3.59.95,5.36,1.31,4.85,1,9.45,1.95,11.4,6.59.41.97.82,2,1.22,3.01,1.05,2.66,2.82,7.11,3.66,7.11.04,0,.24-.12.5-.71.42-.95.6-3.81-.72-7.43-1.19-3.27-3.84-7.75-9.68-10.44-10.63-4.91-21.66-11.78-24.88-14.54-.99-.85-2.9-2.71-5.32-5.07-5.64-5.5-14.15-13.81-20.14-18.14-7.3-5.28-18.21-10.26-20.54-11.3l-5.73,7.94Z"/>
              </g>
              <path class="cls-5" d="M1004.8,611.06s8.82,3.26,13.19,5.83c0,0,14.5,6.74,25.62,21.11,4.65,5.66,8.07,7.65,9.76,8.9,0,0-6.04-3.46-10.72-8.61-4.68-5.15-9.68-12.88-30.63-22.9l-8.61-3.35,1.4-.97Z"/>
            </g>
            <g>
              <g>
                <path class="cls-2" d="M949.43,750.52c2.91-3.72,4.22-98.58,4.16-108.86l-11.02.06s-.31,101.26,3.35,109.22c1.73,3.46,3.5-.42,3.5-.42Z"/>
                <path class="cls-5" d="M947.5,753.03h0c-.81,0-1.52-.6-2.11-1.78-3.7-8.02-3.43-105.38-3.42-109.51v-.64s12.26-.07,12.26-.07v.65c.03,5.53-1.07,105.13-4.29,109.26-.03.1-.98,2.1-2.43,2.1ZM943.2,642.37c-.02,8.64-.12,100.89,3.29,108.3.34.67.71,1.07,1,1.07.47,0,1.1-.89,1.38-1.49,2.68-3.65,4.12-93.37,4.1-107.93l-9.77.05Z"/>
              </g>
              <polygon class="cls-5" points="948.8 641.96 948.59 707.26 947.15 642.15 948.8 641.96"/>
            </g>
            <g>
              <g>
                <path class="cls-2" d="M910.16,747.4c2.91.07,12.24-5.65,12.39-17.58.16-11.93,1.86-25.01,3.05-29.22,1.19-4.21,8.44-22.8,10.56-33.42,2.06-10.28,1.93-24.62,1.93-24.62l-10.47-2.59s-1.98,16.64-1.76,21.79c.22,5.16-6.61,28.05-8.29,32.67-2.4,6.64-2.11,17.44-1.39,24.52.72,7.08,4.08,13.81-.23,18.54-4.12,4.53-10,9.81-5.79,9.91Z"/>
                <path class="cls-5" d="M910.21,748.04h-.07c-1.05-.03-1.71-.36-1.96-1-.6-1.52,1.45-3.79,5.13-7.67.74-.78,1.49-1.57,2.18-2.33,2.91-3.19,2.04-7.41,1.04-12.28-.38-1.86-.77-3.78-.98-5.75-.39-3.83-1.43-16.93,1.43-24.82,1.8-4.97,8.46-27.44,8.25-32.42-.22-5.15,1.69-21.22,1.77-21.9l.09-.71,11.63,2.88v.5c0,.15.11,14.53-1.94,24.76-1.5,7.5-5.54,18.94-8.21,26.52-1.13,3.2-2.02,5.72-2.37,6.95-1.16,4.09-2.87,17.12-3.02,29.05-.17,12.54-10,18.22-12.96,18.22ZM928.15,640.75c-.37,3.24-1.86,16.53-1.67,20.97.23,5.36-6.64,28.28-8.32,32.93-2.77,7.62-1.74,20.47-1.36,24.23.19,1.9.58,3.79.95,5.62,1.03,5.01,2,9.74-1.35,13.43-.7.77-1.45,1.57-2.2,2.35-1.94,2.05-5.18,5.47-4.86,6.28.01.04.19.18.83.2l.04.65v-.65c2.36,0,11.56-5.25,11.72-16.95.16-12.03,1.9-25.23,3.07-29.39.37-1.27,1.26-3.81,2.4-7.03,2.66-7.54,6.67-18.93,8.16-26.34,1.8-9.02,1.91-21.36,1.91-23.99l-9.32-2.31Z"/>
              </g>
              <path class="cls-5" d="M933.1,641.98s.59,9.66.03,14.83c0,0-.25,16.45-8.62,32.68-3.19,6.65-3.6,10.69-4.04,12.79,0,0,.69-7.1,3.41-13.59,2.72-6.49,7.61-14.29,8.23-38.16l-.44-9.5,1.42.95Z"/>
            </g>
            <g>
              <g>
                <path class="cls-2" d="M976.36,749.2c2.74-1.03,9.42-9.86,5.38-21.04-4.04-11.17-7.05-24-7.42-28.37-.37-4.37-.14-24.41-1.89-35.1-1.69-10.35-6.85-23.67-6.85-23.67l-10.67,1.52s3.99,16.24,6.01,20.96c2.02,4.72,3.69,28.62,3.75,33.56.09,7.09,4.16,17.04,7.31,23.37,3.15,6.33,8.64,11.33,6.3,17.36-2.24,5.77-5.87,12.9-1.92,11.41Z"/>
                <path class="cls-5" d="M975.47,750.04h0c-.67,0-1.03-.34-1.21-.62-.83-1.3.31-4.23,2.24-8.9.41-1,.83-2.01,1.21-2.98,1.58-4.07-.7-7.67-3.35-11.84-1.01-1.59-2.05-3.23-2.93-4.98-1.7-3.42-7.27-15.24-7.37-23.66-.07-5.31-1.75-28.75-3.7-33.3-2.02-4.72-5.88-20.4-6.05-21.06l-.17-.7,11.85-1.69.18.47c.05.13,5.2,13.5,6.88,23.8,1.24,7.55,1.49,19.71,1.66,27.77.07,3.41.13,6.11.23,7.39.36,4.24,3.34,17.01,7.39,28.2,1.86,5.16,1.71,10.65-.44,15.46-1.55,3.49-3.85,5.87-5.32,6.41-.42.16-.79.24-1.11.24ZM955.68,643.07c.79,3.16,4.07,16.1,5.81,20.16,2.1,4.91,3.74,28.85,3.8,33.81.1,8.14,5.57,19.73,7.24,23.09.85,1.69,1.87,3.31,2.86,4.87,2.72,4.28,5.29,8.33,3.46,13.03-.38.98-.8,2-1.22,3-1.14,2.74-2.85,6.89-2.35,7.68.02.03.08.04.17.04h0c.12,0,.33-.03.69-.16.95-.36,3.04-2.23,4.61-5.74,1.42-3.18,2.64-8.27.39-14.46-4.08-11.29-7.09-24.23-7.46-28.54-.11-1.32-.17-4.04-.24-7.47-.17-8.01-.42-20.12-1.64-27.58-1.49-9.08-5.72-20.62-6.64-23.07l-9.49,1.35Z"/>
              </g>
              <path class="cls-5" d="M960.72,642.35s3.95,8.78,5.24,13.8c0,0,5.54,15.42,3.45,33.69-.63,7.4.4,11.31.72,13.43,0,0-1.85-6.88-1.59-13.94.26-7.06,2.07-16.17-5.73-38.64l-3.74-8.69,1.65.35Z"/>
            </g>
            <g>
              <g>
                <path class="cls-2" d="M879.69,737.83c4.1-2.22,41.85-88.67,45.77-98.12l-10.12-4.48s-39.32,92.74-39.02,101.55c.26,3.88,3.38,1.06,3.38,1.06Z"/>
                <path class="cls-5" d="M877.65,739.47h0c-.67,0-1.8-.35-1.96-2.65-.29-8.88,37.47-98.06,39.08-101.85l.25-.59,11.26,4.99-.24.59c-2.11,5.08-41.51,95.98-46.06,98.43-.01.03-1.18,1.07-2.33,1.07ZM915.66,636.07c-3.35,7.91-39,92.48-38.72,100.68.07.94.3,1.43.72,1.43.58,0,1.39-.62,1.63-.83,3.87-2.24,39.76-83.93,45.36-97.29l-8.98-3.98Z"/>
              </g>
              <polygon class="cls-5" points="920.95 638 895.59 697.8 919.37 637.5 920.95 638"/>
            </g>
            <g>
              <g>
                <path class="cls-2" d="M826.88,699.72c4.61-.46,70.99-65.92,78.05-73.16l-7.76-8.09s-70.11,70.68-73.04,78.95c-1.17,3.7,2.75,2.29,2.75,2.29Z"/>
                <path class="cls-5" d="M825.41,700.63h0c-1.01,0-1.52-.43-1.77-.78-.43-.61-.46-1.47-.09-2.62,2.95-8.34,70.33-76.33,73.19-79.22l.44-.45,8.63,9-.44.45c-3.79,3.89-73.22,72.74-78.41,73.34.03,0-.74.27-1.54.27ZM897.17,619.38c-5.97,6.03-69.72,70.56-72.45,78.27-.21.67-.24,1.2-.07,1.44.14.21.5.25.76.25h0c.62,0,1.26-.22,1.26-.23,4.41-.57,67.33-62.35,77.37-72.55l-6.88-7.18Z"/>
              </g>
              <polygon class="cls-5" points="901.37 623.22 856.15 668.8 900.09 622.15 901.37 623.22"/>
            </g>
            <g>
              <g>
                <path class="cls-2" d="M846.66,718.67c2.63,1.3,13.4.05,18.29-10.76,4.88-10.81,11.63-22.01,14.38-25.34,2.76-3.33,16.75-17.2,22.91-25.98,5.96-8.5,11.54-21.63,11.54-21.63l-8.52-6.82s-8.41,14.32-10.26,19.12c-1.84,4.8-17.17,22.77-20.53,26.27-4.83,5.03-8.85,15-11.01,21.76-2.16,6.76-1.77,14.32-7.57,16.81-5.55,2.38-13.02,4.7-9.22,6.58Z"/>
                <path class="cls-5" d="M849.1,719.74h0c-1.14,0-2.08-.16-2.71-.48-.95-.47-1.41-1.06-1.39-1.75.06-1.64,2.83-2.84,7.72-4.81.98-.4,1.98-.8,2.92-1.2,3.92-1.68,4.8-5.89,5.83-10.76.39-1.86.79-3.78,1.39-5.66,1.17-3.65,5.42-16.04,11.16-22.02,3.62-3.77,18.62-21.43,20.4-26.05,1.84-4.79,9.96-18.63,10.31-19.22l.36-.62,9.46,7.57-.2.46c-.05.13-5.67,13.3-11.6,21.75-4.35,6.2-12.57,14.92-18.02,20.68-2.3,2.44-4.11,4.36-4.92,5.34-2.68,3.23-9.41,14.38-14.3,25.2-4.12,9.12-12.25,11.55-16.41,11.55ZM905.42,629.09c-1.63,2.79-8.27,14.28-9.85,18.4-1.91,4.98-17.28,22.96-20.67,26.49-5.55,5.78-9.72,17.93-10.86,21.51-.58,1.81-.98,3.7-1.36,5.53-1.05,5.01-2.04,9.74-6.57,11.67-.95.41-1.94.81-2.94,1.21-2.57,1.04-6.9,2.78-6.93,3.65,0,.04.11.25.68.54.45.23,1.24.36,2.17.36,3.86,0,11.43-2.28,15.28-10.81,4.93-10.92,11.75-22.2,14.48-25.49.84-1.01,2.66-2.94,4.98-5.4,5.41-5.74,13.6-14.42,17.9-20.54,5.23-7.46,10.23-18.66,11.27-21.05l-7.58-6.06Z"/>
              </g>
              <path class="cls-5" d="M909.45,632.31s-3.3,9.06-5.86,13.54c0,0-6.76,14.89-20.84,26.13-5.55,4.71-7.53,8.22-8.76,9.94,0,0,3.45-6.18,8.5-10.94,5.06-4.76,12.61-9.8,22.66-31.29l3.38-8.85.91,1.46Z"/>
            </g>
            <g>
              <g>
                <path class="cls-2" d="M800.04,669.27c2,2.19,12.48,5.05,20.81-3.21,8.33-8.26,18.53-16.19,22.26-18.26,3.73-2.08,21.63-9.79,30.43-15.67,8.52-5.7,18.31-15.86,18.31-15.86l-5.57-9.54s-12.85,10.21-16.24,14c-3.4,3.78-23.96,14.82-28.32,16.83-6.27,2.89-13.49,10.69-17.86,16.18-4.38,5.5-6.65,12.69-12.93,12.85-6.01.15-13.78-.48-10.89,2.69Z"/>
                <path class="cls-5" d="M807.87,672.23h0c-3.93,0-7.15-1.27-8.28-2.52-.72-.79-.95-1.51-.68-2.15.63-1.51,3.63-1.59,8.89-1.6,1.05,0,2.12,0,3.13-.03,4.24-.1,6.53-3.7,9.19-7.86,1.01-1.59,2.06-3.23,3.28-4.76,2.36-2.97,10.66-12.93,18.09-16.36,4.69-2.16,24.85-13.04,28.11-16.68,3.4-3.78,15.8-13.65,16.32-14.07l.55-.44,6.18,10.59-.35.36c-.1.1-9.93,10.28-18.41,15.95-6.22,4.16-16.93,9.21-24.02,12.56-2.99,1.42-5.36,2.53-6.46,3.14-3.63,2.02-13.79,9.9-22.13,18.16-4.75,4.71-9.91,5.7-13.41,5.7ZM886.11,607.67c-2.49,2-12.69,10.23-15.61,13.48-3.52,3.92-24.13,14.96-28.52,16.98-7.19,3.31-15.32,13.09-17.63,16-1.17,1.47-2.2,3.09-3.2,4.64-2.73,4.28-5.31,8.32-10.2,8.44-1.02.02-2.09.03-3.16.03-2.77,0-7.41.02-7.75.82-.02.04.02.28.45.75.8.88,3.61,2.11,7.37,2.11h0c3.27,0,8.09-.93,12.55-5.35,8.41-8.34,18.71-16.32,22.4-18.37,1.13-.63,3.52-1.75,6.53-3.18,7.05-3.33,17.71-8.36,23.85-12.47,7.48-5,16.05-13.58,17.86-15.42l-4.96-8.49Z"/>
              </g>
              <path class="cls-5" d="M888.74,612.17s-6.24,7.22-10.18,10.44c0,0-11.5,11.36-28.56,16.59-6.82,2.32-9.89,4.85-11.65,6,0,0,5.38-4.48,11.75-7.03,6.38-2.55,15.18-4.43,32.05-20.72l6.24-6.99.34,1.71Z"/>
            </g>
            <g>
              <g>
                <path class="cls-2" d="M788.68,643.95c4.46,1.25,88.98-35.59,98.06-39.77l-4.47-10.41s-89.79,40.36-95.37,47.02c-2.36,3.03,1.78,3.15,1.78,3.15Z"/>
                <path class="cls-5" d="M788.97,644.62h0c-.18,0-.33-.02-.45-.05-.08.03-2.22-.09-2.82-1.43-.34-.77-.1-1.7.72-2.75,5.62-6.72,91.93-45.56,95.6-47.21l.57-.25,4.98,11.58-.57.26c-7.89,3.63-90.83,39.85-98.02,39.85ZM881.94,594.62c-7.65,3.45-89.38,40.39-94.58,46.6-.46.59-.66,1.1-.54,1.38.19.45,1.23.69,1.87.71l.27.03c6.52,0,84.21-33.68,96.95-39.48l-3.97-9.23Z"/>
              </g>
              <polygon class="cls-5" points="884.56 599.75 826.64 625.77 883.72 598.27 884.56 599.75"/>
            </g>
            <g>
              <g>
                <path class="cls-2" d="M771.85,574.64c3.62,2.98,95.33,3.59,105.27,3.46l-.15-11.39s-97.9.46-105.56,4.31c-3.33,1.82.44,3.62.44,3.62Z"/>
                <path class="cls-5" d="M873.11,578.76c-.97,0-97.57-.27-101.65-3.62-.09-.02-2.01-.98-2.05-2.46-.02-.85.55-1.6,1.7-2.23,7.72-3.88,101.85-4.37,105.86-4.39h.62s.16,12.67.16,12.67h-.62c-.82.02-2.19.03-4.02.03ZM876.36,567.36c-8.35.05-97.54.66-104.67,4.24-.65.35-1.03.74-1.02,1.05,0,.49.87,1.13,1.45,1.41,3.17,2.45,72.57,3.41,101,3.41,1.42,0,2.56,0,3.38,0l-.13-10.1Z"/>
              </g>
              <polygon class="cls-5" points="876.8 573.14 813.67 573.43 876.6 571.44 876.8 573.14"/>
            </g>
            <g>
              <g>
                <path class="cls-2" d="M776.65,529.56c-.17,3,5.01,12.86,16.53,13.46,11.52.6,24.1,2.84,28.12,4.22,4.02,1.39,21.72,9.56,31.9,12.15,9.86,2.5,23.72,2.9,23.72,2.9l2.89-10.73s-16-2.66-20.99-2.62c-4.99.04-26.86-7.86-31.26-9.76-6.33-2.73-16.77-2.82-23.64-2.34-6.87.48-13.49,3.71-17.9-.92-4.23-4.42-9.11-10.7-9.37-6.35Z"/>
                <path class="cls-5" d="M877.39,562.95h-.49c-.14-.02-14.05-.44-23.85-2.93-7.19-1.83-18.09-6.42-25.31-9.46-3.05-1.28-5.46-2.3-6.64-2.7-3.9-1.35-16.43-3.59-27.95-4.19-5.32-.28-10.13-2.6-13.54-6.55-2.47-2.86-3.68-5.98-3.58-7.59.11-1.8,1-2.07,1.52-2.07,1.47,0,3.52,2.16,6.74,5.67.72.79,1.45,1.59,2.17,2.34,1.48,1.54,3.34,2.26,5.88,2.26,1.84,0,3.84-.36,5.94-.74,1.81-.33,3.69-.67,5.59-.8,2.14-.15,4.31-.23,6.46-.23,5.2,0,12.45.45,17.46,2.61,4.71,2.03,26.11,9.72,30.99,9.72h.16c5.11,0,20.33,2.52,20.97,2.63l.69.12-3.21,11.91ZM777.55,528.74c-.18,0-.26.54-.27.86-.06,1.04.77,3.77,3.26,6.65,2.26,2.61,6.29,5.79,12.68,6.12,11.63.6,24.31,2.88,28.28,4.25,1.21.42,3.64,1.44,6.71,2.74,7.18,3.02,18.04,7.59,25.14,9.4,8.65,2.19,20.57,2.76,23.1,2.86l2.57-9.55c-3.09-.5-15.67-2.5-20.08-2.5l-.16-.64v.64c-5.24,0-27.07-7.92-31.47-9.81-4.82-2.08-11.89-2.52-16.98-2.52-2.12,0-4.27.07-6.38.22-1.84.13-3.68.46-5.46.78-2.17.39-4.22.76-6.16.76-2.89,0-5.04-.84-6.77-2.65-.72-.75-1.45-1.56-2.19-2.35-2.15-2.35-4.83-5.27-5.84-5.27Z"/>
              </g>
              <path class="cls-5" d="M877.66,557.15s-9.36.26-14.33-.51c0,0-15.88-.87-31.26-10.1-6.31-3.54-10.19-4.12-12.21-4.65,0,0,6.84.97,13,4.02,6.17,3.05,13.53,8.39,36.56,9.91l9.2-.1-.96,1.43Z"/>
            </g>
            <g>
              <g>
                <path class="cls-2" d="M785.23,503.55c2.17,4.23,85.96,42.8,95.12,46.79l4.28-10.5s-89.88-40.15-98.39-39.79c-3.75.29-1,3.5-1,3.5Z"/>
                <path class="cls-5" d="M880.68,551.19l-.57-.25c-4.92-2.15-93.02-42.4-95.42-47.09-.08-.06-1.46-1.73-.92-3.11.31-.79,1.12-1.24,2.42-1.34h.16c9.21,0,94.88,38.22,98.52,39.85l.56.25-4.76,11.68ZM786.35,500.69c-.83.06-1.32.26-1.44.54-.18.45.36,1.4.78,1.89,2.19,3.99,81.37,40.66,94.32,46.37l3.8-9.31c-7.63-3.4-88.88-39.49-97.46-39.49Z"/>
              </g>
              <polygon class="cls-5" points="881.98 545.67 824.02 519.77 882.45 544.03 881.98 545.67"/>
            </g>
            <g>
              <g>
                <path class="cls-2" d="M775.13,602.27c.97,2.84,9.45,9.83,20.29,5.75,10.84-4.08,23.27-7.08,27.49-7.42,4.23-.34,23.61.07,33.96-1.64,10.02-1.66,22.95-6.87,22.95-6.87l-1.37-11.05s-15.74,3.98-20.32,6.03c-4.58,2.04-27.7,3.56-32.47,3.58-6.86.03-16.51,4.15-22.66,7.35-6.15,3.21-11.03,8.84-16.84,6.36-5.56-2.38-12.42-6.19-11.02-2.09Z"/>
                <path class="cls-5" d="M788.77,609.92c-7.67,0-13.34-4.83-14.22-7.43-.31-.9-.3-1.56.04-2.05.28-.42.77-.63,1.43-.63,1.61,0,4.47,1.3,7.5,2.67.96.44,1.94.88,2.87,1.28.89.38,1.77.56,2.69.56,2.9,0,5.76-1.9,8.78-3.92,1.54-1.03,3.14-2.09,4.85-2.98,3.32-1.73,14.8-7.39,22.94-7.42,5.13-.02,27.82-1.56,32.24-3.53,4.57-2.04,19.77-5.9,20.41-6.06l.68-.17,1.53,12.27-.45.18c-.13.05-13.1,5.26-23.07,6.91-7.3,1.21-19.07,1.37-26.86,1.47-3.3.04-5.9.08-7.15.18-4.1.33-16.48,3.3-27.33,7.38-2.27.85-4.58,1.29-6.87,1.29ZM776.01,601.11c-.29,0-.4.06-.41.08-.03.05-.07.3.12.87.61,1.81,5.56,6.57,13.05,6.57,2.14,0,4.31-.41,6.44-1.21,10.95-4.12,23.49-7.12,27.66-7.45,1.28-.1,3.91-.14,7.23-.18,7.75-.1,19.46-.26,26.68-1.45,8.79-1.45,19.98-5.73,22.36-6.66l-1.22-9.83c-3.06.79-15.6,4.06-19.54,5.82-4.75,2.12-27.92,3.61-32.72,3.63-7.87.03-19.12,5.58-22.39,7.28-1.64.86-3.21,1.9-4.73,2.91-3.19,2.12-6.19,4.13-9.46,4.13-1.09,0-2.12-.22-3.17-.66-.95-.4-1.93-.85-2.9-1.29-2.78-1.26-5.65-2.56-7-2.56Z"/>
              </g>
              <path class="cls-5" d="M878.57,587.06s-8.53,4-13.4,5.3c0,0-14.96,5.59-32.6,3.27-7.14-.72-10.94.31-12.99.63,0,0,6.66-1.86,13.49-1.53,6.83.33,15.62,2.29,37.41-5.58l8.44-3.79-.35,1.71Z"/>
            </g>
            <g>
              <g>
                <path class="cls-2" d="M919.27,394.11c-2.75,1-9.49,9.79-5.53,20.99,3.96,11.21,6.87,24.06,7.21,28.43.33,4.37-.04,24.42,1.63,35.12,1.61,10.36,6.67,23.72,6.67,23.72l10.68-1.43s-3.87-16.28-5.85-21.01c-1.98-4.73-3.47-28.65-3.5-33.58-.03-7.09-4.03-17.07-7.14-23.43-3.1-6.35-8.56-11.4-6.17-17.41,2.29-5.75,5.97-12.85,2.01-11.4Z"/>
                <path class="cls-5" d="M928.83,503.08l-.18-.47c-.05-.14-5.1-13.54-6.71-23.86-1.18-7.56-1.35-19.74-1.45-27.79-.05-3.41-.08-6.1-.18-7.38-.33-4.25-3.21-17.05-7.17-28.26-1.83-5.17-1.63-10.66.55-15.45,1.58-3.47,3.9-5.84,5.36-6.37,1.32-.48,2.05-.02,2.31.4.83,1.31-.33,4.22-2.3,8.87-.42,1-.85,2.01-1.23,2.98-1.62,4.06.64,7.68,3.26,11.86,1,1.6,2.03,3.25,2.89,5.01,1.68,3.44,7.16,15.3,7.2,23.72.03,5.31,1.54,28.77,3.45,33.33,1.98,4.73,5.73,20.45,5.89,21.11l.16.7-11.85,1.59ZM920.15,394.57c-.12,0-.33.03-.68.15-.95.35-3.06,2.21-4.65,5.7-1.45,3.17-2.7,8.25-.51,14.46,3.99,11.31,6.91,24.28,7.25,28.6.1,1.32.14,4.03.18,7.46.11,8.02.27,20.14,1.44,27.61,1.42,9.09,5.56,20.66,6.46,23.12l9.5-1.27c-.76-3.16-3.94-16.13-5.65-20.21-2.06-4.91-3.53-28.87-3.55-33.84-.04-8.13-5.42-19.77-7.07-23.14-.83-1.7-1.84-3.32-2.82-4.89-2.69-4.31-5.23-8.37-3.37-13.05.39-.98.82-2,1.24-3.01,1.16-2.73,2.9-6.86,2.4-7.65-.02-.04-.11-.04-.17-.04Z"/>
              </g>
              <path class="cls-5" d="M934.1,501.08s-3.88-8.81-5.13-13.84c0,0-5.43-15.46-3.2-33.71.68-7.39-.32-11.31-.63-13.44,0,0,1.8,6.89,1.49,13.95-.31,7.06-2.19,16.16,5.44,38.69l3.68,8.72-1.65-.36Z"/>
            </g>
            <g>
              <g>
                <path class="cls-2" d="M824.52,443.63c.4,4.76,62.92,74.17,69.84,81.55l7.91-7.93s-67.53-73.31-75.5-76.43c-3.56-1.25-2.25,2.81-2.25,2.81Z"/>
                <path class="cls-5" d="M894.34,526.09l-.44-.46c-3.72-3.97-69.58-76.66-70.01-81.94-.04-.06-.61-1.92.15-3.01.35-.5,1.3-1.03,2.91-.46,8.04,3.15,72.99,73.6,75.75,76.6l.43.46-8.8,8.82ZM825.58,441.22c-.38,0-.48.15-.52.2-.31.44-.1,1.54.05,2,.5,4.55,59.51,70.34,69.26,80.84l7.01-7.03c-5.76-6.25-67.42-72.91-74.84-75.81-.37-.13-.7-.2-.96-.2Z"/>
              </g>
              <polygon class="cls-5" points="897.62 521.54 854.08 474.25 898.68 520.22 897.62 521.54"/>
            </g>
            <g>
              <g>
                <path class="cls-2" d="M854.92,418.79c-2.17,2.02-5.15,12.8,2.65,21.59,7.8,8.79,15.25,19.51,17.17,23.42,1.93,3.91,8.99,22.57,14.49,31.81,5.32,8.94,14.94,19.28,14.94,19.28l9.34-5.55s-9.6-13.5-13.18-17.1c-3.59-3.59-13.81-25.1-15.65-29.65-2.66-6.54-10.03-14.18-15.26-18.83-5.22-4.64-12.12-7.15-12.14-13.65,0-6.22.77-14.24-2.36-11.32Z"/>
                <path class="cls-5" d="M904.06,515.69l-.34-.36c-.09-.1-9.72-10.49-15.01-19.39-3.89-6.53-8.55-17.71-11.63-25.12-1.3-3.12-2.33-5.59-2.89-6.74-1.87-3.79-9.27-14.48-17.07-23.27-3.6-4.05-5.45-9.2-5.2-14.49.18-3.84,1.44-6.94,2.6-8.02.98-.92,1.89-1.01,2.5-.35,1.03,1.09,1.03,4.09.94,8.91-.02,1.09-.04,2.19-.04,3.25,0,4.39,3.43,6.84,7.39,9.67,1.52,1.08,3.08,2.2,4.53,3.49,2.82,2.51,12.27,11.31,15.42,19.07,1.99,4.9,12.07,25.98,15.51,29.43,3.58,3.59,12.85,16.63,13.24,17.18l.42.58-10.37,6.16ZM856.04,418.85c-.12,0-.33.08-.7.43-.75.7-2.01,3.25-2.19,7.12-.16,3.49.56,8.69,4.88,13.56,7.88,8.87,15.36,19.7,17.27,23.56.58,1.18,1.62,3.67,2.93,6.81,3.07,7.37,7.7,18.5,11.54,24.95,4.67,7.84,12.78,16.89,14.52,18.81l8.31-4.93c-1.88-2.62-9.61-13.35-12.7-16.44-3.71-3.72-13.93-25.28-15.79-29.86-3.05-7.5-12.32-16.12-15.09-18.59-1.4-1.24-2.94-2.34-4.42-3.4-4.08-2.91-7.92-5.67-7.93-10.73,0-1.06.02-2.17.04-3.27.06-3.22.14-7.23-.58-7.98-.02,0-.05-.02-.08-.02Z"/>
              </g>
              <path class="cls-5" d="M908.18,511.75s-6.84-6.61-9.86-10.76c0,0-10.73-12.14-15.42-29.89-2.1-7.1-4.47-10.33-5.55-12.17,0,0,4.21,5.65,6.54,12.3,2.33,6.65,3.95,15.79,19.33,33.6l6.62,6.61-1.66.31Z"/>
            </g>
            <g>
              <g>
                <path class="cls-2" d="M805.92,466.71c-1.3,2.7-.23,13.86,10.16,19.06,10.38,5.2,21.12,12.33,24.3,15.22,3.18,2.9,16.4,17.56,24.8,24.05,8.13,6.28,20.75,12.23,20.75,12.23l6.71-8.72s-13.73-8.9-18.34-10.87c-4.61-1.97-21.77-18.07-25.11-21.59-4.8-5.07-14.38-9.36-20.89-11.69-6.51-2.33-13.82-2.03-16.15-8.06-2.22-5.78-4.36-13.53-6.23-9.63Z"/>
                <path class="cls-5" d="M886.12,538.07l-.44-.21c-.12-.06-12.78-6.05-20.87-12.3-5.94-4.58-14.25-13.21-19.75-18.92-2.32-2.41-4.16-4.31-5.09-5.16-3.09-2.82-13.78-9.93-24.17-15.13-4.79-2.4-8.35-6.48-10-11.49-1.2-3.63-1.13-6.99-.44-8.44.17-.35.68-1.41,1.64-1.41,1.61,0,2.75,2.91,4.6,8.05.37,1.02.75,2.06,1.12,3.03,1.57,4.08,5.63,5.05,10.32,6.17,1.79.43,3.64.87,5.45,1.52,3.52,1.26,15.43,5.83,21.13,11.85,3.59,3.79,20.47,19.55,24.9,21.45,4.6,1.97,17.87,10.56,18.43,10.92l.59.38-7.44,9.68ZM807.01,466.3s-.25.12-.53.7c-.45.94-.71,3.79.5,7.44,1.1,3.31,3.61,7.86,9.37,10.75,10.48,5.25,21.3,12.46,24.44,15.32.96.88,2.81,2.79,5.15,5.22,5.48,5.68,13.75,14.27,19.61,18.79,7.14,5.51,17.9,10.84,20.2,11.95l5.97-7.75c-2.68-1.72-13.69-8.74-17.66-10.44-4.78-2.05-21.96-18.19-25.32-21.74-5.51-5.81-17.19-10.29-20.65-11.53-1.74-.62-3.56-1.06-5.32-1.48-4.83-1.15-9.39-2.25-11.2-6.95-.38-.99-.75-2.03-1.13-3.06-.98-2.7-2.61-7.22-3.44-7.22Z"/>
              </g>
              <path class="cls-5" d="M888.55,532.84s-8.72-3.53-13.01-6.24c0,0-14.3-7.2-24.98-21.91-4.48-5.8-7.84-7.9-9.49-9.2,0,0,5.93,3.65,10.46,8.95,4.53,5.3,9.3,13.18,29.94,23.87l8.51,3.62-1.43.92Z"/>
            </g>
            <g>
              <path class="cls-2" d="M1015.59,571.4c0,39.51-30.97,71.54-69.17,71.54s-69.17-32.03-69.17-71.54,30.97-71.54,69.17-71.54,69.17,32.03,69.17,71.54Z"/>
              <path class="cls-5" d="M946.42,643.58c-38.49,0-69.79-32.38-69.79-72.19s31.31-72.19,69.79-72.19,69.79,32.38,69.79,72.19-31.31,72.19-69.79,72.19ZM946.42,500.5c-37.8,0-68.55,31.81-68.55,70.9s30.75,70.9,68.55,70.9,68.54-31.8,68.54-70.9-30.75-70.9-68.54-70.9Z"/>
            </g>
            <path class="cls-5" d="M969.33,542.91c-9,0-15.93,7.78-17.96,15.59-2.03,7.82,2.22,16.92,3.31,18.54,1.09,1.61,6.15,6.08,7.79,7.58,1.64,1.49-1.44,4.51-2.8,5.24-1.37.73-5.42.24-6.31-.12-.86-.35-4.99.94-5.3,1.03-.31-.09-4.43-1.38-5.29-1.03-.9.36-4.95.85-6.31.12-1.37-.72-4.44-3.75-2.8-5.24,1.63-1.49,6.7-5.96,7.79-7.58,1.09-1.61,5.34-10.72,3.31-18.54-2.02-7.82-8.96-15.59-17.96-15.59s-17.25,7.27-19.59,11.65c0,0,8.45-9.56,19.8-8.46,11.35,1.09,16.63,7.65,17.42,13.11.79,5.46-.53,15.56-4.49,18.84-3.96,3.28-8.98,6.83-7.13,9.28,1.85,2.46,4.49,3.55,6.34,3.55s2.64-.82,3.96-.27c1.3.54,2.85,1.32,4.9,1.35h0s.04,0,.06,0,.03,0,.06,0h0c2.05-.04,3.61-.83,4.9-1.36,1.32-.55,2.11.27,3.96.27s4.49-1.09,6.34-3.55c1.85-2.46-3.17-6.01-7.13-9.28-3.96-3.27-5.28-13.38-4.49-18.84.79-5.46,6.08-12.01,17.42-13.11,11.35-1.09,19.8,8.46,19.8,8.46-2.34-4.38-10.59-11.65-19.59-11.65Z"/>
            <path class="cls-5" d="M907.85,560.27s7.64-9.19,16.83-9.19,14.65,6.13,15.58,8.86c0,0-7.01-7.58-16.05-7.58s-16.37,7.9-16.37,7.9Z"/>
            <path class="cls-5" d="M912.84,559.15s0,11.77,13.09,11.77,13.25-9.19,13.25-9.19c0,0-2.65,7.9-13.71,7.9s-12.31-9.35-12.62-10.48Z"/>
            <path class="cls-5" d="M928.18,561.84c0,2.18-1.71,3.95-3.82,3.95s-3.82-1.77-3.82-3.95,1.71-3.95,3.82-3.95,3.82,1.77,3.82,3.95Z"/>
            <path class="cls-5" d="M911.59,559.54s16.55-10.18,27.78.78c0,0-13.42-8.56-27.78-.78Z"/>
            <path class="cls-5" d="M988.27,560.27s-7.64-9.19-16.83-9.19-14.65,6.13-15.58,8.86c0,0,7.01-7.58,16.05-7.58s16.36,7.9,16.36,7.9Z"/>
            <path class="cls-5" d="M983.28,559.15s0,11.77-13.09,11.77-13.24-9.19-13.24-9.19c0,0,2.64,7.9,13.71,7.9s12.31-9.35,12.62-10.48Z"/>
            <path class="cls-5" d="M967.95,561.84c0,2.18,1.71,3.95,3.82,3.95s3.82-1.77,3.82-3.95-1.71-3.95-3.82-3.95-3.82,1.77-3.82,3.95Z"/>
            <path class="cls-5" d="M984.54,559.54s-16.56-10.18-27.78.78c0,0,13.42-8.56,27.78-.78Z"/>
            <path class="cls-5" d="M953.58,602.35c-1.62-.53-5.97.44-5.97.44,0,0-4.35-.97-5.97-.44-1.62.53-8.87,1.24-8.87,1.24,1.03.88,7.76,0,8.87-.35,1.11-.35,5.97,1.41,5.97,1.41,0,0,4.86-1.76,5.97-1.41,1.11.35,7.85,1.24,8.87.35,0,0-7.25-.71-8.87-1.24Z"/>
            <path class="cls-5" d="M956.83,596.76c-.94-1.18-4.99-3.33-6.65-1.4-1.66,1.93-1.77,2.04-2.8,2.04s-1.14-.11-2.8-2.04c-1.66-1.93-5.71.22-6.65,1.4-.94,1.18-7.38,6.12-7.38,6.12,2.28,0,9.56-6.34,11.32-7.09,1.75-.74,5.42,3.76,5.5,3.85v.02h0s0,0,0,0v-.02c.07-.09,3.75-4.6,5.49-3.85,1.77.75,9.04,7.09,11.33,7.09,0,0-6.44-4.94-7.37-6.12Z"/>
            <path class="cls-5" d="M959.75,604.81c-.94,0-3.64,2.37-4.99,3.55-1.12.98-3.7,2.53-4.57,3.04-.48-.11-.97-.19-1.51-.19h-2.57c-.6,0-1.15.1-1.67.24-.79-.47-3.5-2.08-4.64-3.08-1.35-1.18-4.05-3.55-4.99-3.55s-3.95-.43-4.36-.97c0,0,1.35,1.61,3.33,1.61s3.22,1.83,3.95,2.79c.67.89,3.9,3.04,6.36,3.29-4.85,1.59-6.38,8.53-6.38,8.53,3.92-8.79,8.99-7.42,9.66-7.2v.03s.02,0,.04-.02c.02,0,.04.02.04.02v-.03c.67-.23,5.74-1.59,9.66,7.2,0,0-1.55-6.99-6.43-8.55,2.43-.33,5.52-2.4,6.17-3.27.73-.97,1.97-2.79,3.95-2.79s3.32-1.61,3.32-1.61c-.41.54-3.43.97-4.36.97Z"/>
          </g>
        </g>
      </g>
    </g>
  </g>
</svg>