<?xml version="1.0" encoding="UTF-8"?>
<svg id="Layer_1" xmlns="http://www.w3.org/2000/svg" version="1.1" viewBox="0 0 3840 935">
  <!-- Generator: Adobe Illustrator 30.4.0, SVG Export Plug-In . SVG Version: 2.1.4 Build 226)  -->
  <defs>
    <style>
      .st0 {
        fill: #7c7c7c;
      }

      .st1 {
        fill: #4f4f4f;
      }
    </style>
  </defs>
  <path class="st0" d="M2370,305c.8.7,1.7,1.4,2.5,2.1,14.3,12.5,27,28,34.9,45.3q.9,2,2.6,4.5c1.7.3,3.3.7,5,1v-78h110q0,92.8,0,138.7,0,1,0,2.1c0,14.9,0,29.8,0,44.7,0,7.3,0,14.6,0,21.9,0,.7,0,1.5,0,2.2,0,23.5,0,47,0,70.6,0,24.2,0,48.4,0,72.6,0,3.4,0,6.8,0,10.3q0,1,0,2c0,10.8,0,21.6,0,32.4,0,10.9,0,21.8,0,32.7,0,5.9,0,11.8,0,17.7,0,5.4,0,10.8,0,16.2,0,1.9,0,3.9,0,5.8.2,50-12.6,93-48.2,129.2-33.7,33.8-82.9,48.1-129,54-.9.1-1.8.2-2.7.4-65.5,8.4-141.7-.5-195.4-41.7-2.7-2.2-5.4-4.4-8-6.7q-1.3-1.1-2.6-2.2c-6.2-5.4-11.3-11.3-16.4-17.8-.7-.8-1.3-1.5-2-2.3-11.5-13.6-19.3-29.6-24-46.7,4.2-1.9,8.6-3,13-4,.8-.2,1.6-.4,2.4-.6,2.6-.6,5.2-1.3,7.9-1.9,1.8-.4,3.7-.9,5.5-1.3,4.8-1.2,9.6-2.3,14.5-3.5,3.9-.9,7.8-1.9,11.8-2.8,4.7-1.1,9.4-2.3,14.1-3.4.9-.2,1.8-.4,2.7-.6,2.5-.6,5.1-1.2,7.6-1.8q1.1-.3,2.2-.5c2.1-.5,4.2-1,6.3-1.5.8-.2,1.6-.4,2.4-.6.8-.2,1.6-.4,2.4-.6.7-.2,1.4-.3,2.2-.5,2.7-.5,4.4-.5,6.9.6q1.7,2.3,3.2,5.4c3.6,6.6,7.8,12,12.8,17.6.7.8,1.4,1.5,2,2.3,21.5,23.1,53.5,30.6,84,31.7.9,0,1.8,0,2.7.1,30.5.8,63.4-7.1,86.3-28.1,17.1-16.6,23-40.1,23.4-63.4,0-4.3,0-8.6,0-12.9,0-2.3,0-4.6,0-6.9,0-6,0-12,.1-18.1,0-6.2,0-12.3.1-18.5,0-12.1.2-24.1.2-36.2h-5c-.3.9-.5,1.8-.8,2.7-8,21.9-30.6,42.9-50.2,54.3-.7.4-1.3.8-2,1.2-24.8,14.5-52.1,19-80.5,19-.7,0-1.4,0-2.1,0-38.1-.1-78.5-9.7-109.3-33.2q-1.6-1.2-3.2-2.3c-14.5-10.7-27.6-23.8-37.8-38.7-.4-.6-.9-1.3-1.3-2-6.8-9.9-12.7-20.1-17.7-31q-.5-1.1-1-2.2c-31.2-69-30.8-161.1-5-231.8,19.2-50,53.6-91.8,103-113.9,52.6-22.4,124.3-22.4,169,16.9ZM2240,388q-1.1.9-2.2,1.8c-29.1,24.1-39.4,64.4-42.9,100.4-3.7,42.8.9,93.9,29.3,128.4,2.2,2.5,4.5,5,6.9,7.4q1,1.1,2.1,2.3c15.3,16.4,38.3,25.6,60.4,26.9,3.7,0,7.5.1,11.2.1q1,0,2,0c29.3-.2,53.3-9.8,74-30.8,4.3-4.5,8-9.2,11.3-14.6.3-.6.7-1.1,1-1.7,26.7-44.7,27.4-105.9,15-155.3-7.9-28.4-22.8-57.5-49-73-36.8-20.7-86.1-20.5-119,8Z"/>
  <path class="st0" d="M1280,124h141c3.1,7.4,6,14.6,8.6,22.2.3.9.6,1.9,1,2.8.7,2,1.4,4,2.1,6,1.9,5.5,3.8,11,5.7,16.5.4,1.1.8,2.3,1.2,3.4,3.9,11.1,7.8,22.2,11.7,33.3,6.4,18.1,12.8,36.2,19.1,54.3,1.8,5.1,3.6,10.2,5.4,15.3.2.6.4,1.3.7,1.9,4.7,13.5,9.5,27,14.2,40.5.4,1.1.8,2.2,1.2,3.3,2,5.5,3.9,11.1,5.9,16.6,3.6,10.1,7.1,20.2,10.7,30.3,2,5.6,4,11.3,5.9,16.9.8,2.2,1.6,4.5,2.4,6.8.4,1.1.8,2.2,1.2,3.4q79.6,226.1,80.7,229.5c.8,2.3,1.6,4.5,2.4,6.8,2,5.6,3.9,11.2,5.9,16.8,3.7,10.4,7.3,20.8,11,31.2,1.7,4.8,3.4,9.7,5.1,14.5.8,2.3,1.6,4.6,2.4,6.8,2.2,6.2,4.4,12.4,6.6,18.6.7,2.1,1.5,4.2,2.2,6.4,1.1,3.2,2.3,6.4,3.4,9.7.3,1,.7,2,1.1,3q.5,1.4,1,2.7c.3.8.6,1.6.8,2.4q.6,1.9.6,3.9h-122q-15.9-47.4-20.8-62-1.5-4.5-3-9c-.7-2.1-1.4-4.2-2.1-6.3-4.3-12.7-8.6-25.4-12.9-38.1-.8-2.3-1.6-4.7-2.4-7-1.5-4.4-3-8.9-4.6-13.3-.7-2-1.4-4-2-6-.3-.9-.6-1.8-1-2.8-.3-.8-.6-1.7-.9-2.5-.2-.7-.5-1.4-.8-2.2q-.5-1.9-.5-4.9h-235c-.7,3-1.3,5.9-2,9-.6,2.2-1.3,4.4-2.1,6.5-.4,1.2-.8,2.4-1.2,3.7-.4,1.3-.9,2.7-1.3,4-.5,1.4-.9,2.8-1.4,4.3-1.3,3.8-2.6,7.7-3.8,11.5-1.3,4-2.7,8-4,12-2.2,6.7-4.5,13.4-6.7,20.2-2.6,7.8-5.2,15.6-7.8,23.3-2.5,7.5-5,15-7.5,22.5-1.1,3.2-2.1,6.4-3.2,9.6-1.2,3.7-2.5,7.5-3.8,11.2-.5,1.4-.9,2.8-1.4,4.1-.6,1.9-1.2,3.7-1.9,5.6-.4,1-.7,2.1-1.1,3.2q-.9,2.3-1.9,3.3c-1.6,0-3.1.1-4.7.1q-1.5,0-3.1,0c-1.1,0-2.3,0-3.4,0-1.2,0-2.4,0-3.6,0-3.2,0-6.5,0-9.7,0-3.4,0-6.8,0-10.2,0-6.4,0-12.8,0-19.3,0-7.3,0-14.6,0-21.9,0-15,0-30.1,0-45.1,0,.5-4.1,1.2-8,2.6-11.9q.5-1.4,1-2.8c.4-1,.7-1.9,1.1-2.9.4-1,.7-2.1,1.1-3.2,1.2-3.4,2.4-6.9,3.7-10.3.9-2.4,1.7-4.9,2.6-7.3,1.6-4.4,3.1-8.8,4.7-13.2,3.9-11,7.8-22.1,11.7-33.1,2-5.6,3.9-11.2,5.9-16.8.8-2.2,1.6-4.5,2.4-6.8,39.2-111.4,78.4-222.8,138.9-394.9.8-2.3,1.6-4.5,2.4-6.8,2-5.6,3.9-11.2,5.9-16.8,3.7-10.4,7.3-20.8,11-31.2,1.7-4.8,3.4-9.6,5.1-14.5.8-2.3,1.6-4.5,2.4-6.8q.6-1.6,1.1-3.2c.3-.9.6-1.8,1-2.8,4.8-13.6,9.7-27.3,14.6-40.9ZM1349,253c-4,9.3-7.1,19-10.2,28.6-.6,1.8-1.2,3.7-1.8,5.5-1.6,4.8-3.2,9.7-4.8,14.5-2.8,8.6-5.7,17.1-8.5,25.7-.3.9-.6,1.9-1,2.9-4.5,13.4-9,26.9-13.6,40.3-5,14.5-9.9,29-14.7,43.5-.3,1-.6,1.9-1,2.9-2.3,6.8-4.5,13.6-6.8,20.4-2.3,6.9-4.6,13.8-6.9,20.7-.9,2.7-1.8,5.4-2.7,8.1-.6,1.7-1.1,3.4-1.7,5.1-.3.8-.5,1.6-.8,2.5-1.5,4.4-3,8.7-4.5,13q-.5,1.4-1,2.8c-.6,1.8-1.3,3.5-1.9,5.3q-.4,1.2-.9,2.4c-.3.7-.5,1.4-.8,2.1q-.7,2-.5,4.9h172c-7.2-22.1-14.4-44.3-21.7-66.4-1.1-3.2-2.1-6.3-3.1-9.5-4.6-13.7-9.2-27.4-13.9-41.1-5.5-15.9-10.8-31.9-16.2-47.8-.3-1-.7-2-1-3-2.4-7.1-4.7-14.2-7.1-21.2-2.4-7.2-4.8-14.4-7.2-21.5-.9-2.8-1.9-5.6-2.8-8.4-3.6-10.7-7.2-21.4-11-32.1h-4Z"/>
  <path class="st0" d="M3348.1,273.8c.7,0,1.4,0,2.2,0,54.1.2,109.7,14,149.8,52.2,27.4,28,39.2,65.2,39.1,103.8,0,1.4,0,2.8,0,4.2,0,3.8,0,7.6,0,11.4,0,4.1,0,8.2,0,12.3,0,7.1,0,14.2,0,21.2,0,10.2,0,20.5,0,30.7,0,16.6,0,33.2,0,49.8,0,16.1,0,32.3,0,48.4q0,1.5,0,3c0,5,0,10,0,15,0,41.4,0,82.8,0,124.2h-107v-65c-3.1,3.1-4.8,5-6.8,8.7-5.3,9-12.1,16.7-19.2,24.3-.5.6-1.1,1.2-1.6,1.8-21.8,23.4-54.6,34.1-85.4,38.2-.8.1-1.5.2-2.3.3-7.9.9-15.8.9-23.8.9-.7,0-1.5,0-2.3,0-44.1,0-88.2-11.7-120.5-43.1-18.4-18.5-29.3-41.7-34.1-67.2-.2-1.2-.5-2.4-.7-3.6-5.6-35.5-1.5-75.2,20.1-104.7,36.4-46.5,96.1-59.2,151.9-66,7-.8,13.9-1.6,20.9-2.4.7,0,1.4-.2,2.1-.2,7.5-.8,15-1.7,22.5-2.5q36.4-2.3,68.2-17.6c7.5-10.3,7.2-22.9,5.5-35.1-3-16.3-9.8-31.9-23.5-41.9-23.4-15.9-52.7-17.6-79.9-12.7-22.6,4.4-43.2,15.3-57.3,34-4.8,7.1-9.3,14.4-11.8,22.7-11.1-.7-22-2.3-33-3.9-2-.3-4-.6-6.1-.9-4.2-.6-8.4-1.2-12.6-1.8-5.4-.8-10.8-1.5-16.2-2.3-4.2-.6-8.3-1.2-12.5-1.8-2-.3-4-.6-6-.8-2.8-.4-5.5-.8-8.3-1.2q-1.2-.2-2.5-.3-5.7-.8-7.9-3.1c13.3-45,41-80.2,82-103,35.7-19.4,76.8-26.3,117.1-26.2ZM3423,529.2c-20.7,10.3-45.7,12.5-68.3,15.8-1.2.2-2.4.3-3.6.5-5.9.9-11.8,1.7-17.7,2.5-19.1,2.7-37.8,5.8-55.4,14-1.1.5-2.2,1-3.4,1.6-14.5,7.2-25,17.9-30.9,33.1-2,6.1-2,12.1-2,18.5,0,1,0,2,0,3,0,14.4,4.7,27,14.7,37.4,20.6,19.2,46.4,22.2,73.4,21.6,24.4-1,46.3-9.8,65.2-25.1.8-.6,1.6-1.3,2.4-1.9,18.4-15.3,27.9-37.7,30.4-61.1.5-5.5.4-11,.4-16.6,0-1.3,0-2.6,0-4,0-3.4,0-6.9,0-10.3,0-3.5,0-7,0-10.6,0-6.9,0-13.7,0-20.6-1.8,0-3.4,1.3-5,2.2Z"/>
  <path class="st0" d="M2559,280h112c0,8.8,0,17.6,0,26.7,0,28.2.1,56.5.2,84.7,0,4.4,0,8.8,0,13.2,0,.9,0,1.7,0,2.6,0,14.1,0,28.2,0,42.4,0,14.5,0,29,0,43.5,0,8.9,0,17.9,0,26.8,0,6.1,0,12.3,0,18.4,0,3.5,0,7.1,0,10.6,0,31.3,3.2,62,25.9,85.5,15.2,14.9,35.3,22.6,56.5,23.5.7,0,1.3,0,2,.1,25,.8,50.2-8.8,69-25.1.7-.6,1.5-1.3,2.2-1.9,18.7-17.4,28.5-42.9,29.9-68.1.3-7.7.3-15.5.3-23.2,0-3.5,0-7,0-10.5,0-6,0-12.1,0-18.1,0-8.7,0-17.5,0-26.2,0-14.2,0-28.3,0-42.5,0-13.7,0-27.5,0-41.2,0-.8,0-1.7,0-2.6,0-4.3,0-8.5,0-12.8,0-35.3.2-70.6.2-105.8h112v470h-109v-83h-4c-.3,1.2-.7,2.4-1,3.6-5.1,15.3-16,28.8-27,40.4-.9.9-1.7,1.9-2.6,2.9-21,22.3-49.4,35.2-79.4,40.1-.7.1-1.4.2-2.2.4-42.4,6.6-87.8-1-122.9-26.5-35.3-26.6-54-66.9-60.5-109.8-2.6-18.9-2.7-38-2.7-57.1,0-3.8,0-7.6,0-11.4,0-6.5,0-13.1,0-19.6,0-9.4,0-18.9,0-28.3,0-15.3,0-30.6,0-46,0-14.9,0-29.7,0-44.6,0-.9,0-1.8,0-2.8,0-4.6,0-9.2,0-13.8,0-38.1,0-76.3.1-114.4Z"/>
  <path class="st0" d="M1889.5,274.8c.8,0,1.5,0,2.3,0,45.7-.3,87.1,9,121.2,41.2.8.7,1.6,1.5,2.5,2.3,30.1,28.7,44.3,73.2,45.7,114,.2,8.7.1,17.3.1,26,0,3.9,0,7.9,0,11.8,0,6.8,0,13.6,0,20.3,0,9.8,0,19.6,0,29.4,0,15.9,0,31.8,0,47.7,0,15.4,0,30.9,0,46.3,0,1,0,1.9,0,2.9,0,4.8,0,9.6,0,14.4,0,39.6,0,79.3-.1,118.9h-111c0-8.7,0-17.4,0-26.3,0-27.9-.1-55.7-.2-83.6,0-4.3,0-8.7,0-13q0-1.3,0-2.6c0-13.9,0-27.9-.1-41.8,0-14.3,0-28.6-.1-43,0-8.8,0-17.6,0-26.5,0-6.1,0-12.1,0-18.2,0-3.5,0-7,0-10.5q.1-26.3-4.4-52.2c-.2-.8-.4-1.6-.6-2.4-6.4-22.1-20.2-39.8-40.2-51-23.3-12.1-52.9-13-77.7-5.2-25.9,9.2-43.8,24.6-55.8,49.4-8,18.3-9.7,38.2-9.7,58,0,1.2,0,2.3,0,3.5,0,3.8,0,7.7,0,11.5,0,2.8,0,5.5,0,8.3,0,5.9,0,11.9,0,17.8,0,8.6,0,17.2,0,25.8,0,13.9,0,27.9-.1,41.8,0,13.5,0,27.1-.1,40.6,0,.8,0,1.7,0,2.5,0,4.2,0,8.4,0,12.6-.1,34.7-.2,69.5-.3,104.2h-111v-470h107v80c1.3-.3,2.6-.7,4-1,1.4-2.4,2.5-4.6,3.6-7.1,6.5-13.7,14.8-25.1,25.4-35.9.6-.7,1.3-1.4,1.9-2.1,24.5-26.2,63.3-38.9,98.5-39.1Z"/>
  <path class="st1" d="M537,0c4.2.6,7.5,2,11.3,3.9.6.3,1.2.6,1.9.9,1.3.6,2.7,1.3,4,1.9,3.6,1.7,7.2,3.4,10.8,5.1q1.1.5,2.3,1.1c7.7,3.6,15.4,7.1,23.1,10.6,11.4,5.2,22.7,10.4,34.1,15.8.7.3,1.4.7,2.2,1,.7.3,1.4.7,2.2,1,11.5,5.4,23,10.8,34.5,16.1,7.7,3.5,15.4,7.1,23.1,10.7.8.4,1.7.8,2.6,1.2,11.5,5.3,22.9,10.6,34.4,15.9,9.8,4.5,19.6,9.1,29.4,13.6,15.3,7.1,30.6,14.1,45.9,21.2,8.7,4,17.4,8,26.1,12,1.8.8,3.5,1.6,5.3,2.4,3.3,1.5,6.6,3,9.8,4.5,9.8,4.5,19.5,9.3,29.2,14.1-.8,21.8-2.3,43.6-3.7,65.4-.4,5.8-.7,11.5-1.1,17.3-.6,9.9-1.3,19.9-1.9,29.8-.9,14.4-1.8,28.7-2.8,43.1-1.5,23.3-3,46.6-4.5,70-1.4,22.6-2.9,45.3-4.3,67.9q0,1-.1,2.1c-.4,7-.9,14-1.3,21.1-.9,14.3-1.8,28.6-2.7,42.9,0,1.3-.2,2.6-.3,4-2.8,43.2-5.5,86.3-8.3,129.5h-2c-8.4-17.9-16.8-35.7-25.1-53.7-3-6.5-6-13-9-19.5-4.9-10.5-9.8-21.1-14.6-31.7-6.2-13.5-12.5-27.1-18.8-40.6-5-10.7-9.9-21.4-14.9-32.1-5.6-12.1-11.2-24.2-16.9-36.3-6-12.9-12-25.8-18-38.7-2.7-5.8-5.4-11.6-8.1-17.5-1.1-2.3-2.2-4.7-3.2-7-.5-1.2-1.1-2.3-1.6-3.5-45-96.8-89.9-193.7-134.9-290.5-.5-1.2-1.1-2.3-1.6-3.5-1.1-2.3-2.2-4.7-3.2-7-2.7-5.9-5.5-11.8-8.2-17.6-2.7-5.8-5.4-11.6-8.1-17.4-1.1-2.3-2.1-4.6-3.2-7-1.6-3.4-3.1-6.7-4.7-10.1-.5-1-.9-2-1.4-3.1q-.6-1.4-1.3-2.8c-.4-.8-.8-1.6-1.1-2.5q-.8-2-.8-4Z"/>
  <path class="st1" d="M332,1q-.7,1.4-1.4,2.9c-9.1,19.2-18.2,38.5-27.1,57.8-2.7,5.8-5.4,11.6-8.1,17.4-1.1,2.4-2.2,4.7-3.3,7.1-2.1,4.5-4.2,9-6.3,13.5-4.8,10.4-9.7,20.9-14.5,31.3-7.7,16.6-15.4,33.2-23.1,49.7-5,10.6-9.9,21.2-14.8,31.8-6.1,13.2-12.2,26.3-18.4,39.4-5.9,12.6-11.8,25.2-17.6,37.8-2.7,5.8-5.4,11.6-8.1,17.4-1.1,2.4-2.2,4.7-3.3,7.1-2.1,4.5-4.2,9-6.3,13.5-4.8,10.4-9.7,20.9-14.5,31.3-7.7,16.6-15.4,33.2-23.1,49.7-5,10.6-9.9,21.3-14.8,32-6,13-12.1,26-18.2,39-5.4,11.5-10.7,23-16,34.5-5.6,12.2-11.3,24.3-17,36.4-4.9,10.5-9.8,21.1-14.6,31.7-6.1,13.4-12.4,26.7-18.7,40.1-.7,1.5-1.5,3-2.2,4.6-.3.7-.7,1.4-1,2.2-2.7,5.7-5.3,11.3-7.9,17-.7-.3-1.3-.7-2-1-.4-2.5-.6-5-.7-7.5,0-.8-.1-1.6-.2-2.4-.2-2.7-.3-5.4-.5-8.1-.1-2-.3-3.9-.4-5.9-.3-5.4-.7-10.8-1-16.2-.4-5.8-.7-11.6-1.1-17.4-.7-11.4-1.4-22.8-2.1-34.2-.8-12.6-1.6-25.2-2.4-37.8-1.6-25.1-3.2-50.1-4.7-75.2-1.4-22.2-2.8-44.5-4.2-66.7,0-1.4-.2-2.9-.3-4.3,0-.7,0-1.4-.1-2.1-.2-3.5-.4-7.1-.7-10.6q0-1.1-.1-2.1c-1.2-18.6-2.3-37.2-3.5-55.8,0-.7,0-1.3-.1-2-.2-3.3-.4-6.7-.6-10-.6-9.2-1.2-18.5-1.7-27.7-.7-11.3-1.4-22.6-2.1-33.8-.4-5.7-.7-11.5-1.1-17.2-.3-5.3-.7-10.5-1-15.8-.1-1.9-.2-3.8-.4-5.7-.7-11.5-1.1-22.8-.9-34.3,1.2-.6,2.4-1.1,3.6-1.7.7-.3,1.3-.6,2-.9,18.3-8.5,36.5-16.9,54.8-25.4,13.3-6.1,26.6-12.3,39.9-18.4.8-.4,1.7-.8,2.6-1.2,6-2.8,12-5.6,18.1-8.4,6.9-3.2,13.7-6.4,20.6-9.6.8-.4,1.7-.8,2.6-1.2,13.2-6.1,26.5-12.2,39.7-18.4,12.8-5.9,25.5-11.8,38.3-17.7.9-.4,1.7-.8,2.6-1.2,9.3-4.3,18.7-8.7,28-13,16.5-7.7,33-15.3,49.5-22.9,4.5-2.1,9-4.1,13.5-6.2,1.8-.8,3.6-1.7,5.4-2.5.8-.4,1.6-.7,2.4-1.1q5-2.3,8.4-1.2Z"/>
  <path class="st1" d="M253,678h362c2.9,5.9,5.7,11.4,8.1,17.4.3.7.5,1.4.8,2.1.6,1.5,1.2,2.9,1.8,4.4,1.6,4.1,3.3,8.1,4.9,12.2.4.9.7,1.7,1.1,2.6,5.4,13.3,11,26.6,16.5,39.9,2.3,5.5,4.6,11,6.9,16.5q.5,1.2,1,2.4c.9,2.1,1.7,4.2,2.6,6.3.5,1.2.9,2.3,1.4,3.5q1,2.8,1,5.8c-1.7,1-3.4,2-5.1,2.9-1.1.6-2.2,1.3-3.4,1.9-2.5,1.4-5,2.9-7.5,4.3-5.8,3.3-11.6,6.6-17.4,10-2.9,1.7-5.9,3.4-8.8,5-.6.3-1.2.7-1.8,1-7.9,4.5-15.8,9-23.7,13.4-7.7,4.3-15.4,8.8-23,13.2-9.6,5.7-19.4,11.1-29.2,16.5-8.5,4.7-16.8,9.5-25.2,14.4-7.1,4.2-14.2,8.2-21.4,12.2-8.3,4.6-16.5,9.3-24.6,14.1-2,1.1-3.9,2.3-5.9,3.4-4.2,2.4-8.3,4.9-12.4,7.3-2.1,1.2-4.2,2.4-6.2,3.7-1,.6-1.9,1.2-2.9,1.8-.9.5-1.8,1-2.7,1.6q-1.2.7-2.4,1.4t-4.8,0c-2.6-1.3-5.1-2.7-7.6-4.1-1-.6-2-1.1-3-1.7q-1.6-.9-3.2-1.8c-1.1-.6-2.2-1.2-3.4-1.9-8.5-4.8-16.9-9.7-25.3-14.6-8.2-4.8-16.4-9.4-24.7-14-7.1-4-14.2-8-21.2-12.2-8.5-5-17-9.8-25.6-14.6-9.6-5.3-19.1-10.7-28.6-16.3-7.1-4.2-14.2-8.2-21.4-12.2-9.2-5.1-18.3-10.4-27.4-15.7-11.3-6.6-22.7-12.9-34.1-19.3,2.2-8.6,5.7-16.6,9.1-24.8,1.8-4.2,3.6-8.4,5.4-12.6q.6-1.3,1.1-2.6c4.6-10.9,9.1-21.8,13.5-32.7,5.5-13.5,11.2-26.8,16.8-40.2Z"/>
  <path class="st0" d="M3005,124h111v626h-111V124Z"/>
  <path class="st0" d="M3801.3,273.7c2.5,0,4.9,0,7.4,0,1.6,0,3.2,0,4.9,0,.7,0,1.4,0,2.1,0,8.3,0,16,1.3,24.4,2.3v103c-7.3-1.3-14.5-2.6-22-4-8.2-.8-16.2-1.2-24.4-1.2-2.2,0-4.4,0-6.6,0-25.8-.2-50.4,8.3-70,25.3-.6.5-1.2.9-1.8,1.4-17.9,13.9-27.2,37.9-30.2,59.6-.3,4.1-.3,8.2-.3,12.3,0,1.2,0,2.4,0,3.6,0,3.3,0,6.6,0,9.8,0,3.6,0,7.1,0,10.7,0,6.1,0,12.3,0,18.4,0,8.9,0,17.8,0,26.6,0,14.4,0,28.8-.1,43.2,0,14,0,28-.1,42,0,.9,0,1.7,0,2.6,0,4.3,0,8.7,0,13-.1,35.9-.2,71.8-.3,107.7h-112v-470h108v79h4c.2-.6.3-1.2.5-1.9,8.4-29.3,27.7-53.6,54.2-68.4,20-10.8,40.1-15.1,62.6-15Z"/>
  <path class="st1" d="M433,245h2c5.9,13.2,11.5,26.6,16.9,40.1,5.8,14.3,11.6,28.6,17.5,42.8,1.6,3.9,3.2,7.8,4.9,11.7.4,1,.8,1.9,1.2,2.9,3.9,9.5,7.8,18.9,11.7,28.4.3.8.7,1.6,1,2.4,2.6,6.3,5.2,12.7,7.8,19,2.3,5.6,4.6,11.1,6.8,16.7.3.8.7,1.6,1,2.4,5.9,14.5,11.9,29,17.9,43.4,6.3,15.3,12.7,30.7,19,46.1q.5,1.1.9,2.2c.6,1.4,1.2,2.9,1.8,4.3,1.5,3.7,3.1,7.5,4.6,11.2.3.8.7,1.6,1,2.4.6,1.5,1.3,3,1.9,4.5,1.2,3,2.1,5.2,2.1,8.4h-238c2-6.1,4.1-12,6.6-17.9.3-.8.7-1.7,1-2.5,1.1-2.8,2.3-5.5,3.4-8.3.8-2,1.6-3.9,2.4-5.9,6.5-15.7,13-31.5,19.5-47.2,5.4-13.1,10.8-26.1,16.1-39.2,6.6-16.1,13.2-32.2,19.8-48.2,5.7-13.9,11.4-27.7,17.1-41.6,4-9.8,8-19.5,12-29.3q.6-1.5,1.3-3.1c2.1-5,4.2-10,6.2-15.1,4.2-10.2,8.4-20.4,12.5-30.7Z"/>
</svg>