<?xml version="1.0" encoding="UTF-8"?>
<svg id="Layer_2" xmlns="http://www.w3.org/2000/svg" version="1.1" viewBox="0 0 3733.5 954.7">
  <!-- Generator: Adobe Illustrator 30.4.0, SVG Export Plug-In . SVG Version: 2.1.4 Build 226)  -->
  <defs>
    <style>
      .st0 {
        fill: none;
      }

      .st1 {
        fill: #828282;
      }

      .st2 {
        fill: #666;
      }
    </style>
  </defs>
  <g id="Layer_1-2">
    <g>
      <path class="st2" d="M896.2,142.7c0-.6-.2-1.3-.3-1.9-3.5-21.1-14.6-39.9-32-52.6-10.9-7.6-22.9-11.8-36-13.9v-.6H155.6v.6c-.6,0-1.3.2-1.9.3-21,3.5-39.9,14.6-52.5,32-7.4,10.6-12.5,23.2-13.9,36h-.6v672.2h.6c.1.6.2,1.3.3,1.9,3.5,21.1,14.6,39.9,32,52.6,10.9,7.6,22.9,11.8,36,13.9v.6h672.2v-.6c.8-.1,1.5-.2,2.3-.4,22-4.2,40.8-15,53.5-33.9,6.8-10.4,10.6-21.8,12.5-34.1h.6V142.7h-.6ZM556.3,523.2h-101.3v289.3h-80.4v-289.3h-101.3v-64.6h283v64.6h0ZM830.6,711.2c0,22.2-4.6,43.7-18.5,61.4-.4.6-.9,1.2-1.3,1.7-21.3,26.9-55.5,37.8-88.4,41.7-11.5,1.3-22.9,1.7-34.4,1.7h-5.6c-12.9,0-25.6-1.2-38.3-3.1-.5,0-1.1-.2-1.7-.2-18.9-2.8-37.1-7.8-54.2-16.4v-79.1c2.3,1.2,4,2.4,6.1,4,23.7,18.5,54.1,30.6,84.4,31h1.8c20.5.2,41.8-.2,57.7-15.2,5.9-6.1,8.2-13.2,8-21.5-.4-10.4-6.3-18.5-13.6-25.5-8.9-7.8-19.8-13.3-30.4-18.4-.5-.2-1.1-.5-1.6-.8-7.7-3.7-15.6-7.1-23.5-10.4-22.1-9.2-43.2-19.4-60.7-36.1-.9-.8-1.8-1.7-2.7-2.5-9.5-9.1-16.3-20.3-21-32.5-.3-.7-.6-1.4-.8-2.2-8.6-23.5-7-52.7,3.3-75.5,6.3-13.2,15.7-25,27.3-33.9.5-.4,1.1-.8,1.6-1.3,21.3-16.1,47.5-23.5,73.7-26.6.5,0,1-.1,1.5-.2,8.7-1.1,17.4-1.3,26.3-1.3h2c30.3,0,58.5,3.8,87.3,13.4v74.1c-4.9-2.7-8.4-4.7-10.4-6-5.1-3-10.6-5.2-16.1-7.3-.6-.2-1.3-.5-1.9-.8-4.9-2-9.9-3.4-15-4.7-.8-.2-1.5-.4-2.3-.6-23.6-5.7-53.7-8.6-76.3,2.2-.6.2-1.2.6-1.8.8-9,4.6-15.5,11-18.7,20.7-1.7,7.3-.5,15.1,3.2,21.6,14.1,21.7,43.7,31.2,66.5,41,6.5,2.8,12.8,5.6,19.1,8.9,1.5.8,3,1.5,4.6,2.3,12.3,6.3,23.7,13.6,34,23,1.3,1.2,2.7,2.3,4,3.4,3.2,2.7,5.6,6,8.2,9.2.4.6.8,1.1,1.3,1.7,12.4,16.3,18,36.1,17.9,56.5v1.4l-.3.2h0Z"/>
      <g>
        <path class="st1" d="M3222.7,306.8h1.7c8.9,0,17.5.4,26.2,2.1.6.1,1.1.2,1.7.3,28.3,5.7,53.9,21.4,70.4,45.4.3.4.6.8.9,1.2,20.4,29.7,27.9,64.9,28.8,100.5,0,.5,0,1,0,1.4,1,36.7-5.2,74.8-22.6,107.4-.2.4-.4.9-.7,1.3-3.2,6-6.7,11.5-10.7,16.9-.8,1-1.6,2.1-2.3,3.2-7.5,10.2-17,19.8-27.5,26.9-.4.3-.8.5-1.2.8-6.2,4.1-12.6,7.7-19.4,10.8-.4.2-.9.4-1.3.6-30.1,13.7-68.7,15.6-99.8,4.1-13.7-5.4-24.8-13.2-35.4-23.3-.4-.4-.9-.8-1.4-1.3-2.7-2.5-5-5.3-7.3-8.2-.3-.3-.6-.7-.8-1-2.9-3.7-5.3-7.5-7.9-11.3-.2,62.5-.4,124.9-.6,189.3h-51.5v-459.7h51.5c.2,17.9.4,35.7.6,54.1l5.1-7.7c4.6-6.4,9.4-12.4,14.8-18,.6-.6,1.2-1.3,1.8-1.9,15.1-15.9,35-25.8,56.1-30.7.6-.1,1.1-.3,1.7-.4,9.6-2.2,19.2-2.6,29.1-2.6h0ZM3186.9,352.1c-.5.1-1,.2-1.6.4-25.9,6.5-44.8,23.1-58.4,45.7-8.9,15.7-13.6,34.6-13.6,52.6v1.9c0,2.1,0,4.2,0,6.2v2.2c0,3.8,0,7.6,0,11.4s0,7.8,0,11.7c0,3,0,6,0,9.1s0,2.9,0,4.3c-.1,27.6,8.3,51.5,27.4,71.6,2.8,2.8,5.8,5.2,8.9,7.6.5.4,1,.8,1.5,1.2,19,14,43.2,18,66.3,15.1,2.5-.4,5-.8,7.5-1.4.5,0,.9-.2,1.4-.3,21.4-5,40-19.2,51.6-37.6,1-1.7,2.1-3.5,3.1-5.2.2-.4.5-.8.7-1.2,14.1-24.2,17.8-53.1,18.6-80.6,0-.8,0-1.6,0-2.4.6-32.2-6.4-65.7-29.1-89.7-1.1-1.1-2.1-2.2-3.2-3.2-.3-.3-.6-.6-.9-1-8.8-9.5-22.2-15.2-34.6-18.4-.8-.2-1.6-.4-2.4-.6-13.4-3-29.9-2.7-43.3.6h0Z"/>
        <path class="st1" d="M1764.7,306.8h1.7c8.9,0,17.7.4,26.5,2.1.6.1,1.1.2,1.7.3,21.9,4.4,40.8,14.4,56.9,29.9.5.5,1,.9,1.5,1.4,7.1,6.8,12.6,14.9,17.8,23,.4.6.8,1.2,1.2,1.9,15.5,25.4,21.9,57.5,22.1,86.9,0,.8,0,1.5,0,2.3.1,17,0,33.8-2.8,50.6-.1.7-.2,1.5-.3,2.2-4,25.3-12.7,51.7-28,72.4-.4.6-.9,1.2-1.3,1.9-11.6,15.8-25.2,29.3-42.4,38.7-.4.2-.8.4-1.2.7-10.6,5.7-21.8,9.5-33.5,12.2-.4.1-.9.2-1.3.3-22.3,5-47,4.7-68.9-2.2-.4-.1-.9-.3-1.3-.4-14.3-4.7-26.8-12.6-37.6-23.1-.9-.9-1.9-1.8-2.8-2.7-4.4-4.2-8.1-8.8-11.7-13.7-.5-.6-.9-1.3-1.4-1.9-2.1-2.9-3.1-4.8-3.1-5.8h-1.3v189.9h-50.9v-459.7h50.9v55.4h1.3c.2-.4.3-.9.5-1.3,7.1-16.4,23.4-32.3,38.2-41.8.4-.2.8-.5,1.2-.8,20.7-13.4,44.1-18.7,68.5-18.7h0ZM1729.2,352.1c-.5.1-1,.2-1.5.4-15.2,3.9-28,11-39.7,21.5-.5.5-1,.9-1.5,1.4-14.5,13.7-23.5,32.4-28.1,51.4-.1.4-.2.9-.3,1.3-3.7,15.4-3.1,31.9-3.1,47.6v7.7c0,33.2,4.5,62.2,28.8,86.6,17.4,16.9,39.4,23.8,63.3,23.7,20.2-.3,39.4-6.3,54.9-19.5.3-.3.7-.6,1-.9,4.7-4,8.8-8.4,12.5-13.3.4-.5.8-1,1.1-1.5,1.2-1.6,2.3-3.3,3.4-5,.2-.4.5-.7.7-1.1,10.6-16.5,16.3-35.6,19.2-54.9,0-.6.2-1.2.3-1.9,3.1-20.9,3.7-44.3-.3-65.1-.1-.6-.2-1.2-.3-1.8-3.1-16-8.4-32.1-18.3-45.2-.4-.6-.8-1.1-1.3-1.7-6.2-7.9-13.3-14.9-21.9-20.2-.7-.4-1.4-.9-2.2-1.3-19.2-11.1-45.3-13.9-66.7-8.3h0Z"/>
        <path class="st1" d="M2156.7,336.8c31.7,28.3,40.3,70.7,43.2,111.2v36.7h-222.1c3,30.4,7.9,58.5,29.6,81.1.4.5.9,1,1.3,1.5,4,4.3,8.6,7.5,13.5,10.8.6.4,1.2.8,1.8,1.2,25.8,16.1,60,16.6,88.9,10.3,22.9-5.4,44.2-15.5,62.7-30,.7-.5,1.6-.8,2.4-.8.2,6.1.3,12.2.4,18.4,0,2.8,0,5.7.2,8.5,0,2.8.1,5.5.1,8.2,0,1,0,2.1,0,3.1.2,5.4-.6,9.2-2.3,11.1-1.8,1.3-3.6,2.4-5.6,3.4-.9.6-1.9,1.2-2.8,1.7-.9.5-1.8,1-2.7,1.5-.5.3-1,.5-1.5.8-1.5.8-3,1.6-4.5,2.4-.4.2-.9.5-1.3.7-23.9,12.6-53,17.5-79.8,18-.7,0-1.4,0-2,0-41,.7-78.6-8.9-108.7-37.9-4.5-4.4-8.5-9.2-12.2-14.3-.3-.4-.5-.7-.8-1.1-29.5-40.8-34.4-98.1-27.1-146.6,2.2-13.6,6-26.9,11.2-39.7.2-.5.4-.9.6-1.4,5.4-13.6,13.2-26,22.6-37.2.3-.3.6-.7.8-1,6.6-8,13.5-15.1,21.7-21.5.6-.5,1.2-1,1.8-1.5,16.5-13.2,36.1-21.5,56.7-25.5.5-.1,1.1-.2,1.6-.3,39.4-7.4,82.1,1.5,112.3,28.2h0ZM2005.4,378.6c-15.7,17.7-23.2,39.3-27,62.3h169.3c-.2-7.6-.8-15.2-1.7-22.7-.1-.6-.2-1.3-.3-1.9-3.9-21.1-13.4-41.4-31.5-54-11.9-8-25.5-12.4-39.9-12.8-.7,0-1.4,0-2.2,0-26.5-.5-48.6,10.1-66.8,29.2h0Z"/>
        <path class="st1" d="M2380.9,180.8c30.3-.8,62.6,1.8,90,15.5v59.2c-2.3-1.5-4.7-3-7.1-4.5-16.4-10.4-34.2-16.8-53.4-20-.6-.1-1.2-.2-1.9-.3-29.1-4.6-63.4-3.3-88.6,13.7-1.4,1.1-2.8,2.2-4.1,3.4-.5.4-1,.8-1.6,1.3-11.6,9.9-18.4,23.4-19.7,38.6-1,19.4,3.1,37.1,16.4,51.9,5.7,6.2,12.1,11.4,19,16.3.4.3.8.5,1.2.8,15.1,10.8,32.1,19.3,48.5,28,23.5,12.6,47.1,26.4,66.8,44.5,1.5,1.3,3,2.6,4.5,3.9,2.7,2.4,5,4.9,7.3,7.7.5.6,1,1.2,1.6,1.8,11.2,12.7,20.5,28.1,24.8,44.6.1.5.2.9.4,1.4,7.4,28.4,4.4,63.1-10.2,88.7-16.3,27.4-42.3,44.6-72.9,52.7-27.8,7-56.9,8.8-85.3,4.6-.8-.1-1.6-.2-2.4-.3-23.4-3.5-47.8-8.7-68.4-20.9-.5-.2-.9-.4-1.4-.7-1.9-2.1-1.5-4.4-1.5-7.2v-1.8c0-2,0-4,0-6,0-1.4,0-2.8,0-4.2,0-3.6,0-7.3,0-10.9,0-3.7,0-7.4,0-11.2,0-7.3,0-14.6.1-21.9,2.6,1.7,4.9,3.5,7.2,5.5,4.9,4.2,10.4,7.4,15.9,10.6.4.3.9.5,1.3.8,35.4,20.4,82.6,28.8,122.4,18.2,16.4-4.7,30.5-13.4,39.3-28.4,5.3-9.8,7.4-20.1,8.2-31.1,0-.7,0-1.3.1-2,.7-20.3-7.8-36.5-21-51.2-4-4.2-8.7-7.7-13.3-11.2-.4-.3-.9-.6-1.3-1-7.5-5.7-15.4-10.5-23.6-15.2-2.2-1.2-4.3-2.5-6.5-3.7-7.5-4.3-15-8.5-22.5-12.7-8.1-4.5-16.1-9-24-13.8-.6-.4-1.2-.7-1.9-1.1-14.7-8.7-29.1-18-41.6-29.6-1.4-1.3-2.8-2.5-4.2-3.7-8.8-7.7-15.6-17.3-21.2-27.4-.2-.4-.4-.8-.7-1.2-14.6-26.4-15.4-59.2-7.6-87.9,4.8-16.4,14.5-30.8,26.3-42.9.5-.5,1-1,1.5-1.6,6.3-6.6,13.9-11.7,21.7-16.4.4-.2.8-.5,1.1-.7,24.3-15,53.9-20.3,82-21.2h0Z"/>
        <path class="st1" d="M1276.6,314.1h56.7c1.9,4.8,3.2,8.2,3.9,10.2.2.7.5,1.3.7,2,.2.7.5,1.4.7,2.1.3.8.5,1.5.8,2.3.6,1.6,1.1,3.2,1.7,4.9.9,2.6,1.8,5.2,2.7,7.8.2.4.3.9.5,1.3.3.9.6,1.8.9,2.7.5,1.3.9,2.7,1.4,4,3,8.5,5.9,17,8.9,25.5.5,1.4,1,2.9,1.5,4.3,1,2.9,2,5.7,3,8.6,2.5,7.2,5.1,14.4,7.6,21.5.2.7.5,1.4.8,2.2,2.9,8.2,5.8,16.4,8.6,24.6.3.8.5,1.5.8,2.3.6,1.6,1.1,3.1,1.6,4.7.3.8.5,1.5.8,2.3.3.8.5,1.6.8,2.3,3.8,11,7.7,21.9,11.6,32.8,2.8,8,5.7,16,8.5,24,.2.4.3.9.5,1.3,1.6,4.4,3.1,8.9,4.6,13.3.7,2.1,1.5,4.3,2.2,6.4.1.4.3.8.4,1.2,1.7,5,3.5,9.9,5.3,14.8,7,19.2,10.4,31.4,10.4,36.4h1.3c.1-.7.3-1.4.4-2.1,2.5-11.8,5.9-23.3,10.2-34.6.7-1.9,1.4-3.7,2.1-5.6.8-2,1.5-4,2.3-6.1,2.7-7.3,5.4-14.6,8.1-22,1.4-3.9,2.9-7.8,4.3-11.7.6-1.6,1.2-3.1,1.7-4.7,2.6-6.9,5.1-13.8,7.7-20.8,1.4-3.8,2.8-7.6,4.2-11.5l1.7-4.6c.3-.8.6-1.5.8-2.3,10.7-29.1,16.3-44.3,16.9-45.9.6-1.5,1.1-3.1,1.7-4.6,1.4-3.8,2.8-7.6,4.2-11.5,2.6-7,5.1-13.9,7.7-20.9,7-19.1,14.1-38.2,21.2-57.3h52.8c-.5,3-1.1,5.2-2.2,8-.2.4-.3.8-.5,1.2-.5,1.3-1.1,2.6-1.6,4-.4,1-.8,1.9-1.1,2.8-.8,2-1.6,4-2.4,6.1-1.3,3.2-2.6,6.4-3.8,9.6-1.5,3.8-3,7.6-4.6,11.4-3.3,8.3-6.6,16.5-9.8,24.8-1.2,3-2.4,6-3.6,9.1-.9,2.2-1.8,4.5-2.7,6.7-2.8,7-5.5,13.9-8.3,20.8-1.5,3.9-3.1,7.8-4.6,11.7-.6,1.6-1.2,3.1-1.8,4.7-.3.8-.6,1.5-.9,2.3-41.3,104.3-62.3,157.2-62.9,158.7-.6,1.6-1.2,3.1-1.8,4.7-1.5,3.9-3.1,7.8-4.6,11.6-3.3,8.4-6.6,16.8-10,25.1-2.7,6.7-5.3,13.4-7.9,20-1.5,3.8-3,7.6-4.5,11.4-10.8,27.4-22.7,54.1-43,75.9-.9,1-1.8,2-2.6,3-2.4,2.7-4.9,5-7.7,7.3-.6.5-1.2,1-1.8,1.5-10.3,8.3-21.7,14.1-34.4,17.7-.4.1-.9.2-1.3.4-7.8,2.1-15.8,2.5-23.8,2.5h-1.4c-10.8,0-20-1.2-30.6-4v-45.7c4.3.9,7.2,1.6,8.8,2,.5.1,1,.2,1.5.3,1,.2,2,.5,3,.7.5.1,1,.2,1.5.3s.9.2,1.3.3c15,3.1,29.7,1,42.9-6.9,16.1-10.7,24-27.8,31.3-45,.3-.7.6-1.5.9-2.2,1.5-3.5,3-7.1,4.5-10.7,2.1-4.9,4.1-9.8,6.2-14.7.6-1.3,1.1-2.7,1.7-4,.8-2,1.7-4,2.5-5.9.8-1.8,1.6-3.7,2.3-5.5.2-.6.5-1.1.7-1.7.2-.5.4-1,.7-1.6.2-.4.4-.9.6-1.4.9-2.5,1.3-3.8.3-6.3-.2-.5-.4-1-.6-1.5-.2-.5-.4-1.1-.7-1.6-.2-.6-.4-1.1-.7-1.7-.7-1.9-1.5-3.8-2.2-5.6-.5-1.3-1.1-2.7-1.6-4-1.1-2.8-2.2-5.6-3.3-8.4-2.5-6.2-4.9-12.4-7.3-18.7-1.1-2.8-2.2-5.5-3.2-8.3-4.7-12-9.4-24.1-14.2-36.2-2.2-5.5-4.3-11.1-6.5-16.6-1.2-3.1-2.4-6.2-3.6-9.3-.5-1.2-1-2.5-1.4-3.7-12.6-32.1-25.1-64.2-37.7-96.3-.2-.6-.5-1.2-.7-1.9-.5-1.2-1-2.5-1.4-3.7-1.2-3.1-2.4-6.2-3.6-9.3-2.4-6.1-4.8-12.3-7.2-18.4-4.9-12.6-9.9-25.2-14.8-37.8-.6-1.4-1.1-2.9-1.7-4.3-.8-2-1.6-4-2.3-6-.2-.6-.5-1.2-.7-1.9-1.1-2.8-2.2-5.5-3.3-8.2-.2-.5-.4-.9-.6-1.4-.5-1.2-1-2.4-1.4-3.5-.4-1.1-.6-2.1-.6-3h0Z"/>
        <path class="st1" d="M1067.9,187.9h305.8v47.6h-126.8v393.4h-52.8V235.5h-126.2v-47.6h0Z"/>
        <path class="st1" d="M3461.2,221.4v92.7h79.2v43.8h-79.2c0,20.8.1,41.7.2,62.5,0,4.2,0,8.5,0,12.7,0,.5,0,1.1,0,1.6,0,8.5,0,17,0,25.6,0,8.8,0,17.5,0,26.3,0,5.4,0,10.8,0,16.2,0,3.7,0,7.4,0,11.1,0,2.1,0,4.3,0,6.4,0,7.6,0,15.2.4,22.9,0,.5,0,1,0,1.6.7,13.3,3.5,29.2,13.8,38.5,11.2,8.8,25.7,10.2,39.4,8.9,8.3-1.1,15.7-4.3,22.9-8.6,1-.6,1.7-.9,2.1-.9v43.8c-10.3,5.1-19.7,7.6-30.9,9-.6,0-1.3.2-1.9.3-22.5,2.4-49.2,0-67.6-14.4-2.2-1.9-4.3-3.8-6.4-5.8-.4-.3-.8-.7-1.2-1-16.1-14.7-20.9-40.4-21.9-61-.2-6.4-.1-12.8-.1-19.2v-37.2c0-9.6,0-19.2,0-28.8,0-9.3,0-18.7,0-28v-10.4c0-24,0-47.9,0-71.9h-54.1v-43.8h54.1v-76.6c3.9-1.4,6.8-2.5,8.6-3.1.6-.2,1.3-.4,1.9-.6.7-.2,1.4-.4,2-.7.7-.2,1.4-.5,2.2-.7,1.5-.5,3-1,4.5-1.5,2.3-.7,4.5-1.5,6.8-2.2,4.2-1.4,8.4-2.7,12.6-4.1.6-.2,1.1-.4,1.7-.6,1.5-.5,2.9-.9,4.4-1.4.8-.2,1.6-.5,2.4-.8,1.2-.3,2.5-.5,3.8-.5h0Z"/>
        <path class="st1" d="M2683.2,306.8h2c10.1,0,19.9.4,29.8,2.1.6.1,1.2.2,1.9.3,13.9,2.3,27.2,6.8,40,12.6v52.8c-3.5-1.9-6.8-3.8-10.1-5.9-19.9-12.1-42.1-18.2-65.4-18.1h-1.6c-7.7,0-15.2.3-22.7,2.1-.5.1-1.1.3-1.6.4-27.1,6.7-49.5,23.5-64.1,47.3-.3.4-.5.9-.8,1.3-4.6,7.6-7.9,15.4-10.8,23.8-.2.5-.3,1-.5,1.4-2.6,7.7-4.1,15.6-5.3,23.7,0,.5-.1,1-.2,1.5-4.4,29.8-.8,63.3,13.8,89.9.4.8.8,1.5,1.2,2.3,11.8,22,32.7,37.3,56.4,44.5,10.7,3.1,21.3,4.2,32.4,4.2h1.5c7.8,0,15.4-.4,23.1-2.1.5-.1,1-.2,1.5-.3,11.7-2.7,22.7-6.8,33.2-12.5.4-.2.8-.4,1.2-.6,4.9-2.7,9.5-5.6,14-8.9,1.8-1.4,3.2-2,4.1-2v48.3c-38.9,22.2-87.2,28.3-130.7,16.7-16.2-4.6-31.5-11.2-45.1-21.2-.4-.3-.8-.6-1.2-.9-31.7-23.4-51.3-59.1-57.4-97.6-.1-.6-.2-1.2-.3-1.8-3.6-21.1-3.1-44.7.3-65.8,0-.6.2-1.2.3-1.9,4.3-27.6,14.4-54.7,31.9-76.7.4-.6.9-1.2,1.4-1.8,8.6-10.8,18.3-20.5,29.5-28.5.3-.2.7-.5,1.1-.8,18.2-13.2,39.8-21.2,61.8-25.1.5-.1,1.1-.2,1.6-.3,11.2-1.9,22.5-2.4,33.9-2.3h0Z"/>
        <path class="st1" d="M2950.6,312.8v52.8c-3.4-1.7-6.8-3.4-10.3-5.1-17.2-6.1-36.9-6.6-53.7,1.3-5.6,2.8-10.6,6-15.2,10.3-.6.5-1.2,1.1-1.8,1.6-23.3,22.2-30.9,56.2-31.9,87.3-.1,4.5-.1,9,0,13.5,0,1.7,0,3.4,0,5.1v10.9c0,5.2,0,10.5,0,15.7,0,8.5,0,17,0,25.5,0,8.2,0,16.5,0,24.7v1.5c0,2.6,0,5.1,0,7.7,0,21.1-.1,42.3-.1,63.4h-50.9v-314.8h50.9c.2,21,.4,42.1.6,63.7,1.3-3.4,2.6-6.8,3.9-10.3,5.3-12.5,12.1-23.5,21.2-33.5.5-.5,1-1,1.4-1.6,20.9-21.9,57.6-31.9,86.1-19.7h0Z"/>
        <path class="st1" d="M2982.1,314.1h50.9v314.8h-50.9v-314.8Z"/>
      </g>
      <rect class="st0" width="3733.5" height="954.7"/>
    </g>
  </g>
</svg>